<svg width="1626" height="958" viewBox="0 0 1626 958" fill="none" xmlns="http://www.w3.org/2000/svg">
<g clip-path="url(#clip0_502_75)">
<path d="M1229.32 32.5714H761.589V23.2075H549.501V32.5714H79.8405C75.6857 32.5714 71.5715 33.3663 67.7329 34.9107C63.8944 36.4551 60.4065 38.7188 57.4686 41.5725C54.5307 44.4262 52.2002 47.814 50.6102 51.5425C49.0203 55.271 48.2019 59.2672 48.2019 63.303V685.411C48.2019 693.561 51.5352 701.378 57.4686 707.141C63.402 712.904 71.4494 716.142 79.8405 716.142H1229.32C1237.71 716.142 1245.76 712.904 1251.69 707.141C1257.63 701.378 1260.96 693.561 1260.96 685.411V63.303C1260.96 59.2672 1260.14 55.271 1258.55 51.5425C1256.96 47.814 1254.63 44.4262 1251.69 41.5725C1248.76 38.7188 1245.27 36.4551 1241.43 34.9107C1237.59 33.3663 1233.48 32.5714 1229.32 32.5714Z" fill="#3F3D56"/>
<path d="M1218.54 86.8825H90.6194V704.905H1218.54V86.8825Z" fill="#E63946"/>
<path d="M653.617 70.0274C660.006 70.0274 665.185 64.9965 665.185 58.7906C665.185 52.5847 660.006 47.5538 653.617 47.5538C647.228 47.5538 642.049 52.5847 642.049 58.7906C642.049 64.9965 647.228 70.0274 653.617 70.0274Z" fill="#E63946"/>
<path opacity="0.1" d="M895.976 704.906H90.6199V86.8832L895.976 704.906Z" fill="black"/>
<path d="M267.106 658.658C326.984 658.658 375.525 611.509 375.525 553.347C375.525 495.186 326.984 448.036 267.106 448.036C207.227 448.036 158.686 495.186 158.686 553.347C158.686 611.509 207.227 658.658 267.106 658.658Z" fill="#F2F2F2"/>
<path d="M1022.15 420.187H916.792V441.572H1022.15V420.187Z" fill="#3F3D56"/>
<path d="M1149.53 253.694H789.417V262.859H1149.53V253.694Z" fill="#3F3D56"/>
<path d="M1149.53 282.716H789.417V291.881H1149.53V282.716Z" fill="#3F3D56"/>
<path d="M1149.53 311.738H789.417V320.902H1149.53V311.738Z" fill="#3F3D56"/>
<path d="M1149.53 340.759H789.417V349.924H1149.53V340.759Z" fill="#3F3D56"/>
<path d="M1149.53 369.781H789.417V378.946H1149.53V369.781Z" fill="#3F3D56"/>
<path d="M1149.53 99.421H1105.5V142.19H1149.53V99.421Z" fill="#F2F2F2"/>
<path d="M1169.97 162.047H1116.51V110.113H1169.97V162.047ZM1118.83 159.789H1167.65V112.371H1118.83V159.789Z" fill="#3F3D56"/>
<path d="M1292.63 693.669H1182.55V685.965C1182.55 685.764 1182.51 685.566 1182.43 685.38C1182.35 685.195 1182.24 685.027 1182.09 684.885C1181.95 684.743 1181.77 684.63 1181.58 684.554C1181.39 684.477 1181.19 684.437 1180.98 684.437H1143.24C1143.03 684.437 1142.83 684.477 1142.64 684.554C1142.45 684.63 1142.27 684.743 1142.13 684.885C1141.98 685.027 1141.86 685.195 1141.79 685.38C1141.71 685.566 1141.67 685.764 1141.67 685.965V693.669H1118.08V685.965C1118.08 685.764 1118.04 685.566 1117.96 685.38C1117.88 685.195 1117.76 685.027 1117.62 684.885C1117.47 684.743 1117.3 684.63 1117.11 684.554C1116.92 684.477 1116.71 684.437 1116.51 684.437H1078.76C1078.56 684.437 1078.35 684.477 1078.16 684.554C1077.97 684.63 1077.8 684.743 1077.65 684.885C1077.51 685.027 1077.39 685.195 1077.31 685.38C1077.23 685.566 1077.19 685.764 1077.19 685.965V693.669H1053.6V685.965C1053.6 685.764 1053.56 685.566 1053.48 685.38C1053.4 685.195 1053.29 685.027 1053.14 684.885C1053 684.743 1052.82 684.63 1052.63 684.554C1052.44 684.477 1052.24 684.437 1052.03 684.437H1014.29C1014.08 684.437 1013.88 684.477 1013.69 684.554C1013.5 684.63 1013.32 684.743 1013.18 684.885C1013.03 685.027 1012.92 685.195 1012.84 685.38C1012.76 685.566 1012.72 685.764 1012.72 685.965V693.669H989.129V685.965C989.129 685.764 989.089 685.566 989.01 685.38C988.931 685.195 988.815 685.027 988.669 684.885C988.523 684.743 988.349 684.63 988.159 684.554C987.968 684.477 987.763 684.437 987.557 684.437H949.816C949.609 684.437 949.405 684.477 949.214 684.554C949.023 684.63 948.85 684.743 948.704 684.885C948.558 685.027 948.442 685.195 948.363 685.38C948.284 685.566 948.243 685.764 948.243 685.965V693.669H924.655V685.965C924.655 685.764 924.614 685.566 924.535 685.38C924.456 685.195 924.34 685.027 924.194 684.885C924.048 684.743 923.875 684.63 923.684 684.554C923.494 684.477 923.289 684.437 923.082 684.437H885.341C885.135 684.437 884.93 684.477 884.74 684.554C884.549 684.63 884.376 684.743 884.23 684.885C884.084 685.027 883.968 685.195 883.889 685.38C883.81 685.566 883.769 685.764 883.769 685.965V693.669H860.181V685.965C860.181 685.764 860.14 685.566 860.061 685.38C859.982 685.195 859.866 685.027 859.72 684.885C859.574 684.743 859.401 684.63 859.21 684.554C859.019 684.477 858.815 684.437 858.608 684.437H820.867C820.661 684.437 820.456 684.477 820.265 684.554C820.075 684.63 819.901 684.743 819.755 684.885C819.609 685.027 819.493 685.195 819.414 685.38C819.335 685.566 819.295 685.764 819.295 685.965V693.669H795.707V685.965C795.707 685.764 795.666 685.566 795.587 685.38C795.508 685.195 795.392 685.027 795.246 684.885C795.1 684.743 794.927 684.63 794.736 684.554C794.545 684.477 794.34 684.437 794.134 684.437H498.496C498.29 684.437 498.085 684.477 497.894 684.554C497.703 684.63 497.53 684.743 497.384 684.885C497.238 685.027 497.122 685.195 497.043 685.38C496.964 685.566 496.923 685.764 496.923 685.965V693.669H473.335V685.965C473.335 685.764 473.295 685.566 473.216 685.38C473.137 685.195 473.021 685.027 472.875 684.885C472.729 684.743 472.555 684.63 472.365 684.554C472.174 684.477 471.969 684.437 471.763 684.437H434.022C433.815 684.437 433.611 684.477 433.42 684.554C433.229 684.63 433.056 684.743 432.91 684.885C432.764 685.027 432.648 685.195 432.569 685.38C432.49 685.566 432.449 685.764 432.449 685.965V693.669H408.861V685.965C408.861 685.764 408.82 685.566 408.741 685.38C408.662 685.195 408.547 685.027 408.4 684.885C408.254 684.743 408.081 684.63 407.89 684.554C407.7 684.477 407.495 684.437 407.288 684.437H369.547C369.341 684.437 369.136 684.477 368.946 684.554C368.755 684.63 368.582 684.743 368.436 684.885C368.289 685.027 368.174 685.195 368.095 685.38C368.016 685.566 367.975 685.764 367.975 685.965V693.669H344.387V685.965C344.387 685.764 344.346 685.566 344.267 685.38C344.188 685.195 344.072 685.027 343.926 684.885C343.78 684.743 343.607 684.63 343.416 684.554C343.225 684.477 343.021 684.437 342.814 684.437H305.073C304.867 684.437 304.662 684.477 304.471 684.554C304.281 684.63 304.107 684.743 303.961 684.885C303.815 685.027 303.699 685.195 303.62 685.38C303.541 685.566 303.501 685.764 303.501 685.965V693.669H279.913V685.965C279.913 685.764 279.872 685.566 279.793 685.38C279.714 685.195 279.598 685.027 279.452 684.885C279.306 684.743 279.133 684.63 278.942 684.554C278.751 684.477 278.547 684.437 278.34 684.437H240.599C240.392 684.437 240.188 684.477 239.997 684.554C239.806 684.63 239.633 684.743 239.487 684.885C239.341 685.027 239.225 685.195 239.146 685.38C239.067 685.566 239.026 685.764 239.026 685.965V693.669H215.438V685.965C215.438 685.764 215.398 685.566 215.319 685.38C215.24 685.195 215.124 685.027 214.978 684.885C214.832 684.743 214.658 684.63 214.468 684.554C214.277 684.477 214.072 684.437 213.866 684.437H176.125C175.918 684.437 175.714 684.477 175.523 684.554C175.332 684.63 175.159 684.743 175.013 684.885C174.867 685.027 174.751 685.195 174.672 685.38C174.593 685.566 174.552 685.764 174.552 685.965V693.669H150.964V685.965C150.964 685.764 150.923 685.566 150.844 685.38C150.765 685.195 150.65 685.027 150.504 684.885C150.357 684.743 150.184 684.63 149.993 684.554C149.803 684.477 149.598 684.437 149.392 684.437H111.651C111.444 684.437 111.24 684.477 111.049 684.554C110.858 684.63 110.685 684.743 110.539 684.885C110.393 685.027 110.277 685.195 110.198 685.38C110.119 685.566 110.078 685.764 110.078 685.965V693.669H37.741C27.7315 693.669 18.1319 697.531 11.0541 704.406C3.97629 711.281 9.5361e-06 720.605 0 730.327V746.904C2.86083e-05 756.626 3.97632 765.951 11.0541 772.826C18.1319 779.701 27.7315 783.563 37.741 783.563H1292.63C1302.64 783.563 1312.24 779.701 1319.32 772.826C1326.39 765.951 1330.37 756.626 1330.37 746.904V730.327C1330.37 720.605 1326.39 711.281 1319.32 704.406C1312.24 697.531 1302.64 693.669 1292.63 693.669Z" fill="#3F3D56"/>
<path d="M293.349 619.123C266.326 619.123 239.909 611.34 217.44 596.757C194.971 582.174 177.459 561.446 167.117 537.196C156.776 512.945 154.07 486.261 159.342 460.516C164.614 434.772 177.627 411.124 196.735 392.564C215.844 374.003 240.189 361.363 266.694 356.242C293.198 351.122 320.67 353.75 345.636 363.795C370.603 373.84 391.942 390.85 406.955 412.675C421.969 434.5 429.982 460.159 429.982 486.408C429.941 521.594 415.533 555.327 389.918 580.208C364.303 605.088 329.574 619.083 293.349 619.123ZM293.349 357.185C267.037 357.185 241.316 364.764 219.438 378.963C197.56 393.162 180.508 413.344 170.439 436.956C160.37 460.569 157.735 486.551 162.868 511.618C168.002 536.685 180.672 559.71 199.278 577.782C217.883 595.854 241.588 608.162 267.395 613.148C293.202 618.134 319.951 615.575 344.26 605.794C368.57 596.014 389.347 579.451 403.966 558.2C418.584 536.95 426.386 511.966 426.386 486.408C426.347 452.148 412.317 419.302 387.377 395.076C362.436 370.851 328.621 357.224 293.349 357.185Z" fill="#3F3D56"/>
</g>
<defs>
<clipPath id="clip0_502_75">
<rect width="1626" height="958" fill="white"/>
</clipPath>
</defs>
</svg>
