<svg width="1598" height="1199" viewBox="0 0 1598 1199" fill="none" xmlns="http://www.w3.org/2000/svg">
<g clip-path="url(#clip0_506_1327)">
<path d="M266.397 1053.05L174.775 582.076C173.665 575.563 173.913 568.893 175.503 562.478C177.093 556.064 179.991 550.041 184.019 544.784L476.785 162.313C481.323 156.384 487.179 151.578 493.897 148.268C500.615 144.96 508.012 143.239 515.511 143.24H1077.27C1084.04 143.234 1090.75 144.633 1096.95 147.35C1103.16 150.068 1108.72 154.042 1113.29 159.019L1452.59 528.973C1457.05 533.828 1460.45 539.536 1462.61 545.746C1464.77 551.955 1465.63 558.537 1465.14 565.088L1394.21 1052.86L266.397 1053.05Z" fill="#F4F4F4"/>
<path d="M1452.12 1054.76H214.677C214.243 1054.73 213.838 1054.53 213.543 1054.21C213.248 1053.9 213.084 1053.47 213.084 1053.05C213.084 1052.62 213.248 1052.2 213.543 1051.89C213.838 1051.56 214.243 1051.37 214.677 1051.34H1452.12C1452.56 1051.37 1452.96 1051.56 1453.25 1051.89C1453.54 1052.2 1453.71 1052.62 1453.71 1053.05C1453.71 1053.47 1453.54 1053.9 1453.25 1054.21C1452.96 1054.53 1452.56 1054.73 1452.12 1054.76Z" fill="#B2B6BB"/>
<path d="M1158.8 640.17L1162.33 522.936L1163.65 527.666L1206.44 517.698L1194.85 464.13C1193.65 458.776 1191.21 453.778 1187.71 449.542C1184.2 445.306 1179.73 441.953 1174.68 439.754L1121.85 416.999H1121.74L1118.58 415.638L1114.43 416.545L1086.24 422.787L1076.62 410.335L1073.35 409.255V409.341L1038.61 405.432C1025.94 404 1013.13 406.35 1001.81 412.182L954.655 436.244L985.779 469.076L1014.49 462.92L1016.11 475.405C1022.81 525.56 1024.61 589.518 1022.29 640.17H1158.8ZM1121.82 417.096C1121.82 417.15 1121.82 417.236 1121.82 417.344V417.096Z" fill="#E63946"/>
<path d="M1022.39 632.113L1030.92 999.064H1064.88L1083.85 690.325C1083.96 688.575 1084.74 686.935 1086.03 685.74C1087.33 684.546 1089.03 683.888 1090.8 683.902C1092.56 683.916 1094.26 684.6 1095.53 685.815C1096.8 687.03 1097.55 688.682 1097.64 690.433L1114.88 999.064H1148.85L1159.29 632.113H1022.39Z" fill="#21252B"/>
<g opacity="0.5">
<path opacity="0.5" d="M1022.39 632.113L1021.31 642.783H1158.91L1159.31 632.113H1022.39Z" fill="black"/>
</g>
<path d="M1034.47 1020.2L1033.55 990.792H1062.35L1061.09 1021.12L1034.47 1020.2Z" fill="#FC9D9D"/>
<path opacity="0.15" d="M1062.04 999.064L1061.13 1021.12L1054.24 1020.91L1054.44 1007.95C1054.44 1006.94 1054.11 1005.95 1053.49 1005.15C1052.87 1004.35 1051.99 1003.78 1051 1003.52L1033.76 999.097L1062.04 999.064Z" fill="black"/>
<path d="M1145 1020.2L1145.91 990.792H1117.01L1118.32 1021.11L1145 1020.2Z" fill="#FC9D9D"/>
<path d="M1073.41 370.569L1073.71 412.063C1073.7 413.074 1074.02 414.06 1074.62 414.882L1075.03 415.584C1077.42 419.121 1080.52 422.121 1084.15 424.39C1087.79 426.66 1091.84 428.148 1096.09 428.759C1100.34 429.37 1104.66 429.089 1108.79 427.936C1112.92 426.783 1116.76 424.782 1120.05 422.064C1120.75 421.482 1121.28 420.73 1121.61 419.882C1121.92 419.035 1122.02 418.12 1121.88 417.225L1114.27 367.286L1073.41 370.569Z" fill="#FC9D9D"/>
<path d="M1118.72 350.028C1118.72 350.028 1127.03 404.611 1096.71 406.825C1067.1 409.039 1066.2 353.851 1066.2 353.851L1065.38 338.04L1103.51 331.398L1113.15 336.333L1118.72 350.028Z" fill="#FC9D9D"/>
<path opacity="0.15" d="M1119.44 402.289L1117.21 387.32C1114.47 396.986 1108.8 405.043 1098.86 406.652H1098.95L1096.78 406.954C1088.86 407.559 1082.27 403.941 1077.3 396.154C1077.26 396.073 1077.2 396.001 1077.13 395.944C1077.06 395.886 1076.98 395.843 1076.89 395.82C1076.8 395.796 1076.7 395.792 1076.62 395.806C1076.53 395.82 1076.44 395.852 1076.37 395.902C1076.29 395.951 1076.23 396.017 1076.17 396.094C1076.12 396.171 1076.08 396.256 1076.07 396.347C1076.06 396.436 1076.06 396.528 1076.08 396.617C1076.12 396.704 1076.16 396.786 1076.21 396.856C1081.49 405.118 1088.48 408.942 1096.88 408.337C1098.64 408.215 1100.37 407.878 1102.04 407.332C1108.29 407.96 1114.53 406.151 1119.44 402.289Z" fill="black"/>
<path d="M1111.54 337.845C1111.54 337.845 1121.16 331.495 1125.67 342.37C1129.52 351.54 1123.04 361.508 1123.04 361.508L1117.46 360.903C1115.13 360.806 1113.5 359.694 1113.3 357.48L1111.54 337.845Z" fill="black"/>
<path d="M1118.43 331.16C1119.24 341.539 1110.32 344.26 1106.66 344.563L1076.75 347.079C1075.57 347.184 1074.49 347.734 1073.71 348.616C1072.94 349.497 1072.54 350.641 1072.59 351.809L1073.1 361.27C1073.15 361.902 1072.95 362.528 1072.55 363.018C1072.15 363.507 1071.56 363.821 1070.93 363.895L1069.1 364.1L1067.07 366.616C1055.31 363.797 1050.44 330.663 1072.04 324.01C1073.2 323.65 1074.28 323.063 1075.21 322.287C1076.15 321.51 1076.91 320.558 1077.48 319.485C1080.62 313.005 1093.49 311.331 1099.99 318.578C1100.62 319.32 1101.41 319.906 1102.3 320.291C1103.21 320.675 1104.17 320.847 1105.15 320.792C1112.95 320.619 1118.02 325.457 1118.43 331.16Z" fill="black"/>
<path d="M1069.24 367.351C1069.16 366.472 1068.83 365.632 1068.31 364.921C1067.78 364.209 1067.06 363.654 1066.24 363.313C1065.43 362.971 1064.52 362.858 1063.64 362.983C1062.76 363.109 1061.94 363.468 1061.24 364.024L1061.13 364.132C1055.97 368.56 1059.3 382.492 1070.67 381.25L1069.24 367.351Z" fill="#FC9D9D"/>
<path d="M1125.73 359.996L1125.63 359.899C1124.87 359.456 1124 359.226 1123.11 359.231C1122.23 359.238 1121.37 359.48 1120.61 359.932C1119.84 360.386 1119.23 361.033 1118.81 361.806C1118.39 362.578 1118.19 363.45 1118.22 364.327L1118.83 377.622C1130.3 377.222 1131.41 363.625 1125.73 359.996Z" fill="#FC9D9D"/>
<path d="M1070.67 369.057C1070.69 369.404 1070.57 369.745 1070.34 370.009C1070.12 370.273 1069.8 370.439 1069.45 370.472C1069.11 370.52 1068.78 370.444 1068.49 370.258C1068.21 370.074 1068.01 369.792 1067.93 369.468L1066.61 360.504L1070.36 360.601L1070.67 369.057Z" fill="black"/>
<path d="M1120.55 365.439C1120.57 365.784 1120.47 366.124 1120.24 366.386C1120.01 366.649 1119.69 366.813 1119.34 366.843C1119.01 366.894 1118.67 366.818 1118.39 366.633C1118.11 366.448 1117.91 366.164 1117.82 365.839L1116.5 356.875L1120.25 356.972L1120.55 365.439Z" fill="black"/>
<path d="M1106.87 345.902C1106.37 345.96 1105.86 345.96 1105.35 345.902C1105.19 345.873 1105.04 345.786 1104.95 345.657C1104.84 345.528 1104.79 345.368 1104.8 345.204C1104.82 345.042 1104.89 344.89 1105.01 344.778C1105.13 344.666 1105.28 344.601 1105.45 344.595C1105.54 344.595 1111.54 344.898 1114.07 340.967C1114.17 340.82 1114.31 340.715 1114.48 340.676C1114.66 340.638 1114.83 340.668 1114.98 340.761C1115.06 340.808 1115.13 340.867 1115.17 340.938C1115.22 341.01 1115.26 341.09 1115.28 341.174C1115.29 341.258 1115.3 341.346 1115.28 341.431C1115.27 341.515 1115.23 341.596 1115.18 341.669C1112.95 344.995 1108.99 345.794 1106.87 345.902Z" fill="#FC9D9D"/>
<path d="M1084.36 375.105C1084.88 375.105 1085.39 374.952 1085.83 374.663C1086.26 374.375 1086.6 373.965 1086.81 373.485C1087 373.006 1087.06 372.477 1086.95 371.969C1086.85 371.46 1086.6 370.992 1086.23 370.625C1085.86 370.258 1085.39 370.009 1084.87 369.907C1084.36 369.806 1083.83 369.857 1083.35 370.056C1082.87 370.255 1082.46 370.591 1082.16 371.023C1081.87 371.455 1081.72 371.961 1081.72 372.481C1081.72 372.826 1081.78 373.168 1081.91 373.487C1082.04 373.806 1082.24 374.095 1082.49 374.339C1082.74 374.583 1083.02 374.777 1083.35 374.909C1083.66 375.039 1084.01 375.106 1084.36 375.105Z" fill="black"/>
<path d="M1083.14 372.783C1083.23 372.795 1083.32 372.787 1083.4 372.763C1083.48 372.738 1083.56 372.696 1083.62 372.64C1083.69 372.582 1083.74 372.512 1083.77 372.434C1083.82 372.356 1083.83 372.27 1083.83 372.184C1083.83 372.097 1083.82 372.012 1083.77 371.934C1083.74 371.855 1083.69 371.785 1083.62 371.729C1083.56 371.672 1083.48 371.63 1083.4 371.605C1083.32 371.58 1083.23 371.572 1083.14 371.584C1083.06 371.572 1082.97 371.58 1082.88 371.605C1082.81 371.63 1082.73 371.672 1082.66 371.729C1082.6 371.785 1082.54 371.855 1082.5 371.934C1082.47 372.012 1082.45 372.097 1082.45 372.184C1082.45 372.27 1082.47 372.356 1082.5 372.434C1082.54 372.512 1082.6 372.582 1082.66 372.64C1082.73 372.696 1082.81 372.738 1082.88 372.763C1082.97 372.787 1083.06 372.795 1083.14 372.783Z" fill="white"/>
<path d="M1104.59 373.593C1105.11 373.595 1105.62 373.443 1106.06 373.156C1106.5 372.867 1106.84 372.458 1107.03 371.977C1107.24 371.498 1107.3 370.97 1107.19 370.459C1107.09 369.949 1106.84 369.481 1106.47 369.113C1106.1 368.745 1105.62 368.496 1105.11 368.394C1104.6 368.294 1104.07 368.347 1103.59 368.546C1103.1 368.746 1102.68 369.084 1102.4 369.517C1102.11 369.95 1101.96 370.459 1101.96 370.98C1101.96 371.323 1102.02 371.662 1102.15 371.98C1102.29 372.297 1102.48 372.584 1102.73 372.827C1102.97 373.07 1103.26 373.263 1103.58 373.394C1103.9 373.525 1104.24 373.593 1104.59 373.593Z" fill="black"/>
<path d="M1103.42 371.379C1103.59 371.379 1103.74 371.316 1103.86 371.202C1103.97 371.089 1104.03 370.935 1104.03 370.774C1104.03 370.615 1103.97 370.46 1103.86 370.347C1103.74 370.233 1103.59 370.17 1103.42 370.17C1103.26 370.17 1103.11 370.233 1102.99 370.347C1102.88 370.46 1102.81 370.615 1102.81 370.774C1102.81 370.935 1102.88 371.089 1102.99 371.202C1103.11 371.316 1103.26 371.379 1103.42 371.379Z" fill="white"/>
<path opacity="0.3" d="M1095.81 384.868L1097.99 384.674C1098.18 384.652 1098.37 384.556 1098.5 384.406C1098.63 384.256 1098.7 384.063 1098.69 383.864C1098.67 383.667 1098.58 383.485 1098.43 383.355C1098.28 383.225 1098.08 383.156 1097.89 383.162L1095.71 383.356C1095.5 383.369 1095.29 383.341 1095.08 383.272C1094.88 383.203 1094.69 383.095 1094.53 382.955C1094.37 382.813 1094.23 382.643 1094.15 382.451C1094.05 382.259 1094 382.052 1093.98 381.839C1093.96 381.626 1094 381.412 1094.06 381.212C1094.14 381.01 1094.25 380.824 1094.39 380.663C1094.53 380.503 1094.7 380.372 1094.89 380.278C1095.08 380.186 1095.29 380.129 1095.51 380.116C1095.6 380.11 1095.7 380.084 1095.79 380.04C1095.89 379.997 1095.96 379.935 1096.03 379.86C1096.09 379.786 1096.15 379.698 1096.18 379.604C1096.21 379.511 1096.22 379.411 1096.22 379.312C1096.21 379.212 1096.19 379.115 1096.14 379.026C1096.09 378.937 1096.04 378.857 1095.96 378.791C1095.89 378.725 1095.8 378.676 1095.7 378.643C1095.6 378.611 1095.51 378.598 1095.41 378.604C1095.01 378.634 1094.62 378.744 1094.25 378.928C1093.89 379.112 1093.57 379.367 1093.31 379.676C1093.05 379.985 1092.85 380.343 1092.73 380.729C1092.63 381.114 1092.58 381.519 1092.63 381.92C1092.63 382.327 1092.7 382.73 1092.86 383.105C1093.03 383.478 1093.27 383.815 1093.56 384.093C1093.86 384.371 1094.21 384.582 1094.6 384.716C1095 384.849 1095.4 384.902 1095.81 384.868Z" fill="black"/>
<path d="M1111.94 364.024L1100.48 364.629L1098.95 364.726L1088.92 365.331H1088.82L1075.94 366.044C1075.44 366.073 1074.95 366.201 1074.5 366.419C1074.05 366.638 1073.65 366.944 1073.31 367.318C1072.98 367.693 1072.73 368.13 1072.57 368.602C1072.41 369.075 1072.35 369.576 1072.39 370.072L1072.59 372.988C1072.79 375.662 1074.03 378.153 1076.05 379.927C1078.08 381.701 1080.73 382.614 1083.42 382.473C1086.11 382.331 1088.64 381.146 1090.47 379.17C1092.3 377.195 1093.27 374.588 1093.18 371.908L1092.97 368.992C1092.93 368.173 1092.61 367.391 1092.06 366.778L1096.02 366.573C1095.56 367.259 1095.34 368.075 1095.41 368.895L1095.62 371.811C1095.69 373.152 1096.03 374.468 1096.61 375.68C1097.19 376.892 1098.01 377.979 1099.01 378.878C1100.02 379.776 1101.19 380.468 1102.47 380.917C1103.74 381.365 1105.1 381.559 1106.45 381.488C1107.8 381.417 1109.12 381.083 1110.34 380.504C1111.56 379.925 1112.66 379.113 1113.56 378.114C1114.47 377.115 1115.17 375.949 1115.61 374.682C1116.07 373.415 1116.27 372.072 1116.19 370.731L1116 367.804C1116 367.287 1115.89 366.775 1115.68 366.3C1115.47 365.825 1115.17 365.397 1114.79 365.044C1114.41 364.69 1113.96 364.416 1113.47 364.24C1112.98 364.065 1112.46 363.992 1111.94 364.024ZM1091.45 368.96L1091.66 371.876C1091.72 373.011 1091.57 374.147 1091.19 375.221C1090.82 376.294 1090.23 377.285 1089.47 378.135C1088.71 378.983 1087.79 379.676 1086.76 380.171C1085.73 380.667 1084.61 380.957 1083.47 381.024C1082.33 381.09 1081.18 380.933 1080.1 380.56C1079.02 380.188 1078.02 379.607 1077.17 378.852C1076.31 378.097 1075.62 377.182 1075.12 376.159C1074.62 375.136 1074.32 374.026 1074.26 372.891L1074.06 369.964C1074.03 369.368 1074.24 368.784 1074.63 368.335C1075.03 367.884 1075.58 367.606 1076.18 367.556L1089.07 366.843H1089.17C1089.46 366.829 1089.75 366.872 1090.03 366.972C1090.3 367.071 1090.55 367.224 1090.77 367.421C1090.97 367.619 1091.15 367.857 1091.27 368.121C1091.39 368.385 1091.45 368.67 1091.45 368.96ZM1114.68 370.569C1114.81 372.861 1114.03 375.112 1112.49 376.828C1110.96 378.543 1108.8 379.582 1106.49 379.717C1104.18 379.852 1101.91 379.07 1100.19 377.545C1098.46 376.02 1097.41 373.876 1097.28 371.584L1097.07 368.658C1097.05 368.053 1097.26 367.463 1097.67 367.012C1098.07 366.56 1098.64 366.283 1099.25 366.238L1100.77 366.141L1112.22 365.536C1112.83 365.513 1113.43 365.724 1113.87 366.127C1114.33 366.53 1114.61 367.093 1114.66 367.696L1114.68 370.569Z" fill="black"/>
<path d="M1089.36 389.005L1102.25 388.098C1102.33 388.095 1102.4 388.112 1102.47 388.143C1102.54 388.174 1102.6 388.221 1102.65 388.279C1102.7 388.337 1102.73 388.405 1102.75 388.479C1102.76 388.552 1102.77 388.629 1102.75 388.702C1102.36 390.139 1101.52 391.42 1100.37 392.369C1099.2 393.318 1097.79 393.891 1096.29 394.01C1094.8 394.127 1093.3 393.785 1092.01 393.029C1090.71 392.272 1089.69 391.139 1089.07 389.782V389.685C1089.03 389.624 1089 389.553 1088.99 389.481C1088.99 389.408 1089 389.334 1089.04 389.266C1089.06 389.199 1089.1 389.14 1089.17 389.094C1089.22 389.048 1089.29 389.018 1089.36 389.005Z" fill="white"/>
<path opacity="0.3" d="M1066.41 374.597C1066.21 374.589 1066.02 374.514 1065.88 374.387C1065.73 374.258 1065.63 374.086 1065.6 373.895L1065.39 372.286C1065.36 370.978 1064.85 369.725 1063.97 368.755C1063.81 368.611 1063.61 368.502 1063.4 368.433C1063.2 368.365 1062.98 368.338 1062.76 368.355C1062.56 368.395 1062.35 368.354 1062.17 368.241C1062.01 368.127 1061.89 367.951 1061.85 367.75C1061.8 367.549 1061.85 367.342 1061.97 367.171C1062.08 367.002 1062.25 366.883 1062.46 366.843C1063.32 366.752 1064.18 366.967 1064.88 367.448C1065.51 368.025 1066.02 368.724 1066.37 369.505C1066.72 370.286 1066.91 371.13 1066.92 371.984L1067.11 373.593C1067.12 373.814 1067.06 374.035 1066.93 374.216C1066.81 374.399 1066.62 374.533 1066.41 374.597Z" fill="black"/>
<path opacity="0.3" d="M1122.18 370.472C1122.38 370.452 1122.56 370.358 1122.71 370.207C1122.84 370.056 1122.9 369.862 1122.89 369.662V368.053C1122.78 367.418 1122.81 366.769 1122.97 366.143C1123.12 365.519 1123.41 364.934 1123.8 364.424C1123.95 364.241 1124.13 364.093 1124.35 363.99C1124.55 363.887 1124.78 363.833 1125.02 363.83C1125.23 363.843 1125.42 363.776 1125.58 363.643C1125.73 363.51 1125.82 363.323 1125.84 363.122C1125.85 362.922 1125.78 362.725 1125.64 362.574C1125.51 362.423 1125.33 362.331 1125.12 362.318C1124.7 362.329 1124.28 362.423 1123.9 362.595C1123.52 362.767 1123.17 363.014 1122.89 363.322C1121.88 364.327 1121.47 365.936 1121.57 368.15V369.77C1121.37 370.169 1121.67 370.472 1122.18 370.472Z" fill="black"/>
<path d="M1061.09 1046.8V1021.12C1061.08 1017.39 1059.59 1013.82 1056.94 1011.18C1054.29 1008.54 1050.7 1007.04 1046.95 1007.01H1046.34C1043.23 1007 1040.22 1008.06 1037.81 1010C1035.41 1011.95 1033.76 1014.67 1033.15 1017.69C1032.43 1021.38 1030.76 1024.82 1028.29 1027.66L1024.23 1032.39C1020.78 1036.41 1018.88 1041.52 1018.86 1046.8H1061.09Z" fill="#E63946"/>
<path d="M1036.6 1020.72C1036.49 1020.72 1036.39 1020.69 1036.3 1020.64C1036.21 1020.58 1036.14 1020.51 1036.09 1020.42C1035.99 1020.11 1035.99 1019.81 1036.29 1019.7C1038.67 1018.36 1041.36 1017.66 1044.1 1017.66C1046.84 1017.66 1049.53 1018.36 1051.91 1019.7C1052.1 1019.91 1052.21 1020.21 1052.01 1020.42C1051.8 1020.62 1051.51 1020.72 1051.3 1020.51C1049.09 1019.27 1046.59 1018.61 1044.05 1018.61C1041.5 1018.61 1039 1019.27 1036.79 1020.51C1036.79 1020.72 1036.69 1020.72 1036.6 1020.72Z" fill="white"/>
<g opacity="0.8">
<path opacity="0.8" d="M1050.56 431.557L1045.08 435.672L1038.75 433.015L1037.9 426.243L1043.38 422.128L1049.71 424.785L1050.56 431.557Z" fill="white"/>
<path opacity="0.8" d="M1103.85 513.637L1098.37 517.752L1092.04 515.095L1091.19 508.323L1096.67 504.208L1103 506.865L1103.85 513.637Z" fill="white"/>
<path opacity="0.8" d="M1071.22 569.797L1065.74 573.912L1059.41 571.255L1058.56 564.483L1064.05 560.368L1070.37 563.025L1071.22 569.797Z" fill="white"/>
<path opacity="0.8" d="M1158.22 445.597L1152.74 449.712L1146.41 447.055L1145.56 440.283L1151.05 436.168L1157.37 438.825L1158.22 445.597Z" fill="white"/>
<path opacity="0.8" d="M1099.53 465.447L1092.63 462.553L1091.7 455.166L1097.68 450.673L1104.59 453.567L1105.51 460.954L1099.53 465.447ZM1093.63 461.797L1099.38 464.216L1104.36 460.479L1103.59 454.323L1097.83 451.904L1092.85 455.641L1093.63 461.797Z" fill="white"/>
<path opacity="0.8" d="M1045.16 535.647L1038.25 532.753L1037.33 525.366L1043.31 520.873L1050.21 523.767L1051.14 531.154L1045.16 535.647ZM1039.25 531.997L1045 534.416L1049.98 530.679L1049.21 524.523L1043.46 522.104L1038.48 525.841L1039.25 531.997Z" fill="white"/>
<path opacity="0.8" d="M1095.18 623.127L1088.27 620.233L1087.35 612.846L1093.33 608.353L1100.24 611.247L1101.16 618.634L1095.18 623.127ZM1089.28 619.477L1095.03 621.896L1100.01 618.159L1099.24 612.003L1093.48 609.584L1088.5 613.321L1089.28 619.477Z" fill="white"/>
<path opacity="0.8" d="M1185.44 502.167L1178.54 499.273L1177.61 491.886L1183.59 487.393L1190.5 490.287L1191.42 497.674L1185.44 502.167ZM1179.54 498.517L1185.29 500.936L1190.27 497.199L1189.5 491.043L1183.75 488.624L1178.77 492.361L1179.54 498.517Z" fill="white"/>
<path opacity="0.8" d="M1113.67 559.407L1106.76 556.513L1105.84 549.126L1111.82 544.633L1118.73 547.527L1119.65 554.914L1113.67 559.407ZM1107.76 555.757L1113.52 558.176L1118.5 554.439L1117.72 548.283L1111.97 545.864L1106.99 549.601L1107.76 555.757Z" fill="white"/>
<path opacity="0.8" d="M1139.77 508.647L1132.86 505.753L1131.94 498.366L1137.92 493.873L1144.83 496.767L1145.75 504.154L1139.77 508.647ZM1133.86 504.997L1139.62 507.416L1144.6 503.679L1143.82 497.523L1138.07 495.104L1133.09 498.841L1133.86 504.997Z" fill="white"/>
<path opacity="0.8" d="M989.693 442.767L982.788 439.873L981.863 432.486L987.845 427.993L994.75 430.887L995.674 438.275L989.693 442.767ZM983.788 439.16L989.541 441.579L994.522 437.843L993.75 431.687L987.997 429.267L983.016 433.004L983.788 439.16Z" fill="white"/>
<path opacity="0.8" d="M1049.47 616.237L1043.99 620.352L1037.66 617.695L1036.81 610.923L1042.3 606.808L1048.62 609.465L1049.47 616.237Z" fill="white"/>
<path opacity="0.8" d="M1145.17 601.117L1139.69 605.232L1133.36 602.575L1132.51 595.803L1138 591.688L1144.32 594.345L1145.17 601.117Z" fill="white"/>
<path opacity="0.8" d="M1050.56 485.557L1045.08 489.672L1038.75 487.015L1037.9 480.243L1043.38 476.128L1049.71 478.785L1050.56 485.557Z" fill="white"/>
</g>
<path d="M1034.87 1024.34C1034.76 1024.34 1034.66 1024.31 1034.57 1024.26C1034.49 1024.2 1034.41 1024.13 1034.37 1024.03C1034.26 1023.73 1034.26 1023.43 1034.56 1023.33C1036.94 1021.99 1039.63 1021.29 1042.37 1021.29C1045.11 1021.29 1047.8 1021.99 1050.18 1023.33C1050.39 1023.54 1050.48 1023.84 1050.29 1024.03C1050.24 1024.09 1050.2 1024.13 1050.14 1024.17C1050.08 1024.2 1050.02 1024.23 1049.95 1024.24C1049.89 1024.25 1049.82 1024.24 1049.76 1024.23C1049.69 1024.21 1049.63 1024.18 1049.57 1024.14C1047.36 1022.9 1044.86 1022.24 1042.32 1022.24C1039.78 1022.24 1037.28 1022.9 1035.07 1024.14C1035.07 1024.34 1034.99 1024.34 1034.87 1024.34Z" fill="white"/>
<path d="M1033.04 1028.17C1032.93 1028.17 1032.83 1028.14 1032.75 1028.09C1032.66 1028.04 1032.58 1027.96 1032.54 1027.87C1032.44 1027.57 1032.44 1027.26 1032.74 1027.16C1035.12 1025.81 1037.8 1025.11 1040.54 1025.11C1043.28 1025.11 1045.97 1025.81 1048.35 1027.16C1048.41 1027.19 1048.45 1027.24 1048.48 1027.3C1048.53 1027.36 1048.55 1027.42 1048.56 1027.49C1048.57 1027.55 1048.56 1027.62 1048.55 1027.69C1048.53 1027.75 1048.5 1027.81 1048.46 1027.87C1048.25 1028.06 1047.95 1028.17 1047.75 1027.97C1045.55 1026.72 1043.05 1026.06 1040.5 1026.06C1037.96 1026.06 1035.45 1026.72 1033.25 1027.97C1033.15 1028.17 1033.04 1028.17 1033.04 1028.17Z" fill="white"/>
<path d="M1020.58 1052.14H1059.21C1059.7 1052.14 1060.15 1051.94 1060.5 1051.61C1060.84 1051.26 1061.03 1050.81 1061.03 1050.32V1046.9H1018.75V1050.32C1018.75 1050.56 1018.79 1050.8 1018.89 1051.01C1018.98 1051.24 1019.11 1051.43 1019.28 1051.61C1019.46 1051.78 1019.65 1051.91 1019.88 1052C1020.1 1052.09 1020.34 1052.14 1020.58 1052.14Z" fill="#3F4249"/>
<path d="M1030.2 999.065L1029.9 987.379H1066.41L1065.7 999.065H1030.2Z" fill="#E63946"/>
<path d="M1066.41 987.379L1065.7 999.065H1030.2L1029.9 987.379H1066.41Z" fill="#E63946"/>
<path opacity="0.15" d="M1178.05 456.44L1193.16 521.089L1206.85 517.849L1194.99 464.076C1193.8 458.721 1191.35 453.722 1187.85 449.486C1184.33 445.249 1179.86 441.897 1174.81 439.7L1162.74 434.462C1170.52 439.534 1176.01 447.415 1178.05 456.44Z" fill="black"/>
<path opacity="0.15" d="M1150.68 488.592L1142.65 640.17H1159.34L1162.69 523.238L1152.91 488.397C1152.88 488.103 1152.74 487.832 1152.51 487.643C1152.29 487.453 1151.99 487.361 1151.69 487.387C1151.39 487.413 1151.12 487.555 1150.94 487.78C1150.74 488.006 1150.65 488.298 1150.68 488.592Z" fill="black"/>
<path d="M1215.51 557.28L1206.81 517.903L1164.03 527.871L1172.55 552.711L1100.96 568.522L1097 569.332C1095.68 569.635 1094.46 569.732 1093.55 568.825L1092.03 567.313C1090.59 566.165 1088.94 565.309 1087.17 564.796C1082.95 563.565 1079.38 560.749 1077.23 556.945L1073.78 550.897C1073.75 550.826 1073.69 550.762 1073.63 550.712C1073.57 550.663 1073.5 550.627 1073.42 550.608C1073.33 550.59 1073.26 550.589 1073.18 550.605C1073.1 550.621 1073.03 550.655 1072.96 550.702L1072.35 550.897C1071.16 551.346 1070.18 552.232 1069.61 553.373C1069.05 554.515 1068.94 555.827 1069.32 557.042L1071.95 565.304C1072.08 565.734 1072.04 566.196 1071.83 566.597C1071.64 566.998 1071.29 567.307 1070.86 567.464L1035.55 581.871C1032 583.178 1033.21 588.016 1036.47 587.206C1038.18 586.807 1057.07 579.139 1057.07 579.139L1053.74 580.856C1049.98 582.67 1051.7 587.703 1054.95 587.001C1058.21 586.299 1062.46 585.187 1062.46 585.187L1058.29 586.796C1057.6 587.141 1057.05 587.735 1056.78 588.458C1056.51 589.182 1056.52 589.981 1056.81 590.695C1057.12 591.41 1057.67 591.987 1058.38 592.308C1059.09 592.631 1059.89 592.676 1060.63 592.434C1063.06 591.829 1066.92 590.619 1066.92 590.619L1064.38 591.829C1061.12 592.844 1062.21 597.877 1065.3 597.229C1067.93 596.721 1092.67 590.684 1105.45 588.362L1200.25 578.091C1202.69 577.856 1205.05 577.111 1207.18 575.903C1209.3 574.697 1211.15 573.056 1212.59 571.09C1214.03 569.123 1215.03 566.875 1215.55 564.495C1216.05 562.115 1216.03 559.656 1215.51 557.28Z" fill="#FC9D9D"/>
<path d="M954.513 436.233L907.066 461.008C891.243 469.26 897.126 493.03 915.07 493.03L975.546 498.776L975.97 487.36V472.435L986.66 468.763" fill="#FC9D9D"/>
<path opacity="0.15" d="M1200.29 578.62L1105.48 588.902C1092.7 591.213 1067.96 597.25 1065.33 597.758C1064.96 597.81 1064.58 597.781 1064.22 597.673C1063.86 597.564 1063.52 597.379 1063.24 597.129C1062.97 596.881 1062.74 596.574 1062.59 596.232C1062.45 595.888 1062.37 595.518 1062.38 595.144C1062.38 595.144 1063.09 596.354 1065.02 595.749C1066.04 595.447 1081.25 589.906 1090.87 586.278C1096.07 584.363 1101.43 582.946 1106.9 582.044C1127.57 578.62 1181.43 569.559 1195.93 566.341C1196.93 566.127 1197.88 565.715 1198.72 565.131C1199.57 564.547 1200.29 563.802 1200.83 562.938C1201.39 562.075 1201.74 561.111 1201.92 560.104C1202.08 559.097 1202.05 558.067 1201.81 557.074L1193.47 521.24L1206.95 518.108L1215.57 557.485C1216.05 559.878 1216.02 562.344 1215.51 564.728C1214.99 567.113 1213.98 569.367 1212.55 571.349C1211.12 573.33 1209.29 574.999 1207.18 576.25C1205.07 577.501 1202.72 578.308 1200.29 578.62Z" fill="black"/>
<path opacity="0.15" d="M975.652 457.682L986.701 468.86L1014.49 462.812L1012.46 451.332C1012.34 450.641 1012.07 449.986 1011.67 449.41C1011.27 448.835 1010.74 448.353 1010.14 447.999C1009.53 447.643 1008.85 447.425 1008.15 447.357C1007.44 447.289 1006.74 447.374 1006.07 447.606L975.652 457.682Z" fill="black"/>
<path opacity="0.15" d="M986.701 468.86L975.652 457.682L956.686 463.925L936.513 461.009C936.209 460.901 935.904 461.203 935.795 461.505C935.798 461.66 935.849 461.811 935.94 461.936C936.031 462.062 936.16 462.157 936.307 462.207L971.378 474.725L984.428 469.325L986.701 468.86Z" fill="black"/>
<path opacity="0.4" d="M1090.74 683.834C1088.99 683.822 1087.31 684.475 1086.02 685.66C1084.74 686.844 1083.96 688.47 1083.85 690.206L1065.6 987.379H1054.73L1059.08 703.544C1059.18 698.258 1061.38 693.228 1065.2 689.54C1069.02 685.851 1074.14 683.801 1079.46 683.834H1090.74Z" fill="black"/>
<path opacity="0.2" d="M1065.7 999.065L1066.41 987.379H1054.75L1054.54 999.065H1065.7Z" fill="black"/>
<path opacity="0.15" d="M1145.61 999.064L1145 1020.21L1132.93 1020.61L1133.13 1006.31C1133.13 1005.64 1132.93 1004.99 1132.54 1004.45C1132.16 1003.91 1131.6 1003.5 1130.96 1003.29L1117.37 998.967H1145.56L1145.61 999.064Z" fill="black"/>
<path opacity="0.4" d="M1158.28 642.47L1148.85 999.064H1145.59L1145.91 989.96H1133.33L1137.8 642.502L1158.28 642.47Z" fill="black"/>
<path d="M1118.32 1046.8V1021.12C1118.33 1017.38 1119.83 1013.8 1122.5 1011.16C1125.15 1008.51 1128.76 1007.02 1132.53 1007.01H1133.13C1136.23 1007 1139.25 1008.06 1141.65 1010.01C1144.05 1011.96 1145.71 1014.67 1146.31 1017.69C1147.03 1021.38 1148.71 1024.82 1151.18 1027.66L1155.23 1032.39C1158.7 1036.41 1160.63 1041.51 1160.67 1046.8H1118.32Z" fill="#E63946"/>
<path d="M1142.87 1020.72C1142.81 1020.73 1142.76 1020.72 1142.7 1020.7C1142.65 1020.68 1142.6 1020.65 1142.56 1020.61C1140.37 1019.33 1137.85 1018.65 1135.31 1018.65C1132.75 1018.65 1130.25 1019.33 1128.06 1020.61C1128 1020.65 1127.95 1020.69 1127.88 1020.7C1127.82 1020.72 1127.75 1020.73 1127.67 1020.72C1127.61 1020.71 1127.54 1020.69 1127.49 1020.65C1127.44 1020.62 1127.38 1020.57 1127.35 1020.51C1127.31 1020.46 1127.28 1020.4 1127.26 1020.34C1127.24 1020.27 1127.24 1020.21 1127.25 1020.14C1127.26 1020.08 1127.28 1020.01 1127.32 1019.96C1127.35 1019.9 1127.39 1019.85 1127.45 1019.81C1129.82 1018.45 1132.51 1017.73 1135.25 1017.73C1138 1017.73 1140.69 1018.45 1143.06 1019.81C1143.37 1019.91 1143.37 1020.31 1143.27 1020.51C1143.16 1020.62 1143.02 1020.69 1142.87 1020.72Z" fill="white"/>
<path d="M1144.49 1024.34C1144.43 1024.34 1144.38 1024.34 1144.32 1024.32C1144.27 1024.3 1144.23 1024.28 1144.18 1024.24C1141.99 1022.96 1139.49 1022.28 1136.93 1022.28C1134.38 1022.28 1131.88 1022.96 1129.69 1024.24C1129.63 1024.29 1129.57 1024.32 1129.5 1024.34C1129.44 1024.37 1129.36 1024.37 1129.3 1024.37C1129.22 1024.36 1129.15 1024.34 1129.09 1024.3C1129.03 1024.27 1128.98 1024.22 1128.94 1024.17C1128.89 1024.11 1128.86 1024.04 1128.85 1023.98C1128.83 1023.91 1128.83 1023.84 1128.84 1023.77C1128.86 1023.7 1128.88 1023.63 1128.93 1023.57C1128.97 1023.51 1129.01 1023.47 1129.08 1023.43C1131.45 1022.07 1134.15 1021.35 1136.89 1021.35C1139.63 1021.35 1142.32 1022.07 1144.69 1023.43C1145 1023.54 1145 1023.94 1144.89 1024.14C1144.78 1024.35 1144.69 1024.34 1144.49 1024.34Z" fill="white"/>
<path d="M1146.41 1028.17C1146.36 1028.18 1146.3 1028.17 1146.25 1028.15C1146.2 1028.13 1146.15 1028.1 1146.11 1028.06C1143.91 1026.78 1141.41 1026.1 1138.85 1026.1C1136.31 1026.1 1133.81 1026.78 1131.61 1028.06C1131.56 1028.1 1131.5 1028.13 1131.44 1028.15C1131.37 1028.16 1131.31 1028.17 1131.24 1028.16C1131.18 1028.15 1131.11 1028.13 1131.05 1028.09C1130.99 1028.06 1130.95 1028.02 1130.91 1027.97C1130.86 1027.91 1130.84 1027.85 1130.82 1027.79C1130.81 1027.73 1130.8 1027.66 1130.81 1027.59C1130.82 1027.53 1130.84 1027.47 1130.87 1027.41C1130.91 1027.35 1130.95 1027.3 1131 1027.26C1133.37 1025.9 1136.07 1025.18 1138.81 1025.18C1141.55 1025.18 1144.25 1025.9 1146.62 1027.26C1146.92 1027.36 1146.92 1027.76 1146.82 1027.97C1146.77 1028.03 1146.71 1028.08 1146.64 1028.11C1146.57 1028.15 1146.49 1028.17 1146.41 1028.17Z" fill="white"/>
<path d="M1158.79 1052.14H1120.15C1119.67 1052.14 1119.2 1051.94 1118.86 1051.61C1118.52 1051.26 1118.32 1050.81 1118.32 1050.32V1046.9H1160.74V1050.32C1160.71 1050.82 1160.5 1051.28 1160.14 1051.62C1159.77 1051.96 1159.29 1052.15 1158.79 1052.14Z" fill="#3F4249"/>
<path d="M1113.35 987.379L1114.07 999.065H1149.56L1149.76 987.379H1113.35Z" fill="#E63946"/>
<path opacity="0.2" d="M1133.33 987.379V999.065H1149.56L1149.76 987.379H1133.33Z" fill="black"/>
<path d="M1100.88 568.76L1104.63 588.902L1111.03 588.189L1107.27 567.345L1100.88 568.76Z" fill="#001B34"/>
<path d="M1106.26 585.576C1107.52 585.576 1108.76 585.203 1109.82 584.505C1110.86 583.808 1111.69 582.816 1112.17 581.655C1112.66 580.495 1112.78 579.219 1112.54 577.987C1112.29 576.754 1111.68 575.624 1110.79 574.735C1109.89 573.847 1108.75 573.242 1107.51 572.997C1106.27 572.752 1104.98 572.878 1103.82 573.359C1102.65 573.839 1101.65 574.653 1100.94 575.697C1100.25 576.741 1099.87 577.969 1099.87 579.225C1099.87 580.06 1100.03 580.886 1100.35 581.658C1100.67 582.429 1101.14 583.13 1101.74 583.719C1102.34 584.309 1103.03 584.777 1103.82 585.095C1104.59 585.414 1105.42 585.577 1106.26 585.576Z" fill="#E63946"/>
<path d="M1106.26 584.571C1107.33 584.56 1108.36 584.237 1109.24 583.644C1110.11 583.05 1110.8 582.211 1111.2 581.234C1111.59 580.257 1111.69 579.183 1111.48 578.149C1111.26 577.116 1110.75 576.169 1109.99 575.427C1109.24 574.684 1108.28 574.18 1107.24 573.978C1106.2 573.777 1105.11 573.886 1104.13 574.292C1103.15 574.698 1102.31 575.383 1101.73 576.261C1101.14 577.139 1100.82 578.17 1100.82 579.225C1100.82 579.931 1100.97 580.631 1101.24 581.284C1101.51 581.936 1101.91 582.528 1102.42 583.025C1102.92 583.521 1103.52 583.915 1104.19 584.18C1104.85 584.445 1105.54 584.579 1106.26 584.571Z" fill="white"/>
<path d="M1109.81 579.733L1106.15 579.528L1103.5 577.616C1103.4 577.519 1103.29 577.314 1103.4 577.216C1103.51 577.119 1103.71 577.011 1103.8 577.119L1106.24 578.923L1109.69 579.128C1109.73 579.123 1109.78 579.127 1109.81 579.14C1109.85 579.154 1109.88 579.176 1109.92 579.205C1109.95 579.234 1109.97 579.27 1109.98 579.308C1109.99 579.347 1110 579.389 1109.99 579.43C1110.11 579.56 1110.03 579.733 1109.81 579.733Z" fill="#001B34"/>
<path d="M647.685 320.036H931.142C936.95 320.036 942.702 321.172 948.068 323.38C953.434 325.587 958.31 328.822 962.416 332.901C966.524 336.979 969.782 341.822 972.004 347.151C974.227 352.48 975.371 358.191 975.371 363.96V1007.38C975.371 1019.03 970.711 1030.2 962.416 1038.44C954.122 1046.68 942.873 1051.3 931.142 1051.3H640.954C634.868 1051.3 629.031 1048.91 624.728 1044.63C620.425 1040.35 618.007 1034.56 618.007 1028.52V349.52C618.007 341.703 621.134 334.207 626.7 328.679C632.266 323.152 639.815 320.047 647.685 320.047V320.036Z" fill="#3F4249"/>
<path opacity="0.3" d="M647.685 320.036H931.142C936.95 320.036 942.702 321.172 948.068 323.38C953.434 325.587 958.31 328.822 962.416 332.901C966.524 336.979 969.782 341.822 972.004 347.151C974.227 352.48 975.371 358.191 975.371 363.96V1007.38C975.371 1019.03 970.711 1030.2 962.416 1038.44C954.122 1046.68 942.873 1051.3 931.142 1051.3H646.369C638.847 1051.3 631.634 1048.33 626.315 1043.05C620.996 1037.77 618.007 1030.61 618.007 1023.14V349.52C618.007 341.703 621.134 334.207 626.7 328.679C632.266 323.152 639.815 320.047 647.685 320.047V320.036Z" fill="black"/>
<path d="M946.954 330.167H611.602V1033.26H946.954V330.167Z" fill="#E63946"/>
<path opacity="0.6" d="M946.954 330.167H611.602V1033.26H946.954V330.167Z" fill="white"/>
<path d="M940.548 332.942H615.778V415.022H940.548V332.942Z" fill="#E63946"/>
<path d="M940.516 980.92H615.745V1037.89H940.516V980.92Z" fill="#E63946"/>
<path d="M915.364 1030.24H640.933C627.111 1030.24 615.921 1019.64 615.921 1006.55V363.031C615.921 349.952 627.133 339.346 640.933 339.346H690.327C693.217 339.303 696.048 340.166 698.416 341.812C700.784 343.458 702.569 345.804 703.519 348.515L705.77 355.341C706.718 358.051 708.502 360.397 710.868 362.044C713.233 363.692 716.061 364.558 718.95 364.521H837.401C840.288 364.56 843.116 363.696 845.481 362.05C847.847 360.404 849.631 358.061 850.581 355.352L852.843 348.515C853.791 345.806 855.575 343.461 857.941 341.815C860.307 340.169 863.134 339.305 866.024 339.346H915.418C929.251 339.346 940.431 349.952 940.431 363.031V1006.55C940.376 1019.64 929.218 1030.24 915.364 1030.24ZM599.51 353.181V1017.31C599.51 1026.21 603.071 1034.75 609.409 1041.04C615.747 1047.34 624.344 1050.88 633.31 1050.88H923.041C927.48 1050.88 931.876 1050.02 935.977 1048.33C940.078 1046.65 943.805 1044.18 946.944 1041.05C950.083 1037.93 952.573 1034.24 954.27 1030.16C955.969 1026.09 956.842 1021.72 956.841 1017.32V353.192C956.841 344.289 953.279 335.752 946.94 329.457C940.602 323.162 932.005 319.625 923.041 319.625H633.277C624.321 319.634 615.733 323.173 609.402 329.464C603.071 335.756 599.512 344.286 599.51 353.181Z" fill="#3F4249"/>
<path d="M910.894 389.091H888.589C888.445 389.091 888.306 389.034 888.204 388.934C888.103 388.832 888.045 388.695 888.045 388.551C888.045 388.409 888.103 388.27 888.204 388.17C888.306 388.068 888.445 388.011 888.589 388.011H910.894C911.037 388.011 911.177 388.068 911.278 388.17C911.38 388.27 911.438 388.409 911.438 388.551C911.438 388.695 911.38 388.832 911.278 388.934C911.177 389.034 911.037 389.091 910.894 389.091Z" fill="white"/>
<path d="M910.894 396.37H888.59C888.448 396.37 888.312 396.314 888.212 396.216C888.112 396.117 888.057 395.982 888.057 395.841C888.057 395.7 888.112 395.565 888.212 395.463C888.311 395.363 888.447 395.305 888.59 395.301H910.894C911.038 395.301 911.176 395.358 911.278 395.46C911.38 395.56 911.438 395.699 911.438 395.841C911.438 395.985 911.38 396.122 911.278 396.224C911.176 396.324 911.038 396.381 910.894 396.381V396.37Z" fill="white"/>
<path d="M910.894 403.65H888.589C888.445 403.65 888.306 403.592 888.204 403.492C888.103 403.39 888.045 403.253 888.045 403.11C888.045 402.967 888.103 402.829 888.204 402.728C888.306 402.627 888.445 402.57 888.589 402.57H910.894C911.037 402.57 911.177 402.627 911.278 402.728C911.38 402.829 911.438 402.967 911.438 403.11C911.438 403.253 911.38 403.39 911.278 403.492C911.177 403.592 911.037 403.65 910.894 403.65Z" fill="white"/>
<path d="M653.372 385.268L644.933 392.569C644.802 392.684 644.698 392.825 644.627 392.984C644.555 393.142 644.52 393.313 644.52 393.487V405.896C644.518 406.003 644.538 406.109 644.579 406.208C644.62 406.306 644.679 406.396 644.756 406.472C644.832 406.547 644.922 406.607 645.022 406.648C645.121 406.688 645.228 406.707 645.335 406.706H650.381C650.49 406.707 650.597 406.688 650.697 406.648C650.797 406.608 650.888 406.548 650.965 406.473C651.042 406.397 651.103 406.308 651.145 406.208C651.187 406.11 651.208 406.003 651.208 405.896V399.416C651.211 399.202 651.298 398.998 651.45 398.847C651.603 398.695 651.808 398.609 652.023 398.606H656.373C656.591 398.606 656.8 398.691 656.954 398.843C657.108 398.994 657.198 399.2 657.2 399.416V405.896C657.199 406.003 657.218 406.11 657.259 406.209C657.3 406.309 657.36 406.399 657.435 406.476C657.511 406.552 657.601 406.613 657.701 406.654C657.801 406.695 657.908 406.717 658.015 406.717H663.062C663.281 406.717 663.491 406.63 663.647 406.476C663.801 406.323 663.888 406.114 663.888 405.896V393.487C663.89 393.312 663.853 393.139 663.779 392.98C663.706 392.823 663.599 392.681 663.464 392.569L655.036 385.268C654.808 385.063 654.512 384.949 654.204 384.949C653.897 384.949 653.6 385.063 653.372 385.268Z" stroke="white" stroke-width="1.64" stroke-miterlimit="10"/>
<path d="M678.819 999.745H658.527C658.387 999.708 658.264 999.627 658.176 999.514C658.089 999.4 658.042 999.261 658.042 999.119C658.042 998.975 658.089 998.837 658.176 998.723C658.264 998.61 658.387 998.529 658.527 998.492H678.819C678.958 998.529 679.081 998.61 679.169 998.723C679.258 998.837 679.305 998.975 679.305 999.119C679.305 999.261 679.258 999.4 679.169 999.514C679.081 999.627 678.958 999.708 678.819 999.745Z" fill="white" stroke="white" stroke-width="0.4" stroke-miterlimit="10"/>
<path d="M678.82 1006.55H658.528C658.381 1006.53 658.248 1006.45 658.157 1006.34C658.065 1006.22 658.023 1006.08 658.038 1005.93C658.023 1005.79 658.064 1005.64 658.156 1005.52C658.247 1005.41 658.381 1005.33 658.528 1005.31H678.82C678.96 1005.34 679.082 1005.42 679.171 1005.54C679.259 1005.65 679.305 1005.79 679.305 1005.93C679.305 1006.08 679.259 1006.22 679.171 1006.33C679.082 1006.44 678.96 1006.52 678.82 1006.56V1006.55Z" fill="white" stroke="white" stroke-width="0.4" stroke-miterlimit="10"/>
<path d="M678.822 1013.34H658.529C658.387 1013.31 658.261 1013.23 658.17 1013.12C658.08 1013.01 658.031 1012.87 658.031 1012.72C658.031 1012.58 658.08 1012.44 658.17 1012.32C658.261 1012.21 658.387 1012.13 658.529 1012.1H678.822C678.968 1012.12 679.102 1012.2 679.194 1012.31C679.284 1012.43 679.326 1012.58 679.311 1012.73C679.326 1012.87 679.284 1013.02 679.192 1013.13C679.101 1013.25 678.967 1013.32 678.822 1013.34Z" fill="white" stroke="white" stroke-width="0.4" stroke-miterlimit="10"/>
<path d="M887.283 997.671L898.223 1005.06L887.283 1014.18" stroke="white" stroke-width="1.61" stroke-miterlimit="10" stroke-linecap="round"/>
<path d="M786.006 1002.44V1015.48H768.508V1002.44" stroke="white" stroke-width="1.61" stroke-miterlimit="10" stroke-linecap="round"/>
<path d="M765.874 1004.18L777.249 996.364L788.624 1004.18" stroke="white" stroke-width="1.61" stroke-miterlimit="10" stroke-linecap="round"/>
<path d="M880.411 352.965L879.748 353.624L879.367 354.002C878.525 353.16 877.522 352.491 876.418 352.035C875.314 351.58 874.13 351.344 872.935 351.344C871.739 351.344 870.555 351.58 869.452 352.035C868.348 352.491 867.345 353.16 866.502 354.002L866.143 353.635L865.48 352.976L866.317 352.242C866.919 351.753 867.576 351.337 868.275 351C869.095 350.599 869.966 350.308 870.863 350.136C871.287 350.06 871.722 350.017 872.157 349.974C872.299 349.974 873.245 349.974 873.245 349.974L874.126 350.038C874.936 350.128 875.732 350.317 876.496 350.6C877.051 350.806 877.589 351.056 878.106 351.345C878.646 351.656 879.156 352.018 879.628 352.425C879.878 352.63 880.107 352.846 880.335 353.052L880.411 352.965Z" fill="white"/>
<path d="M868.6 356.076C868.241 355.73 867.893 355.395 867.513 354.996C868.939 353.584 870.871 352.791 872.885 352.791C874.899 352.791 876.83 353.584 878.257 354.996L877.17 356.076C876.026 354.94 874.475 354.303 872.858 354.303C871.241 354.303 869.69 354.94 868.546 356.076H868.6Z" fill="white"/>
<path d="M876.215 357.08L875.127 358.16C874.838 357.868 874.493 357.638 874.113 357.481C873.733 357.323 873.325 357.241 872.914 357.241C872.502 357.241 872.094 357.323 871.715 357.481C871.335 357.638 870.991 357.868 870.701 358.16L869.614 357.08C870.04 356.638 870.553 356.287 871.12 356.047C871.688 355.808 872.298 355.685 872.914 355.685C873.531 355.685 874.14 355.808 874.708 356.047C875.274 356.287 875.788 356.638 876.215 357.08Z" fill="white"/>
<path d="M873.887 359.11C873.886 359.299 873.83 359.484 873.724 359.641C873.618 359.797 873.466 359.919 873.291 359.991C873.115 360.062 872.922 360.079 872.735 360.04C872.549 360.002 872.378 359.91 872.245 359.775C872.113 359.64 872.023 359.468 871.989 359.282C871.954 359.096 871.977 358.905 872.052 358.731C872.128 358.558 872.254 358.412 872.414 358.309C872.575 358.207 872.762 358.156 872.952 358.16C873.076 358.161 873.199 358.187 873.313 358.236C873.427 358.284 873.531 358.354 873.618 358.443C873.705 358.531 873.773 358.635 873.819 358.75C873.866 358.864 873.888 358.987 873.887 359.11Z" fill="white"/>
<path d="M640.301 354.92C640.301 354.38 640.463 353.851 640.766 353.402C641.068 352.952 641.498 352.602 642 352.396C642.502 352.189 643.056 352.135 643.59 352.241C644.124 352.345 644.613 352.606 644.998 352.988C645.383 353.37 645.645 353.857 645.752 354.387C645.857 354.917 645.803 355.466 645.595 355.965C645.386 356.464 645.034 356.892 644.582 357.192C644.129 357.493 643.597 357.652 643.053 357.652C642.323 357.652 641.624 357.364 641.107 356.852C640.592 356.339 640.301 355.645 640.301 354.92Z" fill="white"/>
<path d="M648.925 354.92C648.925 354.38 649.086 353.851 649.388 353.402C649.69 352.952 650.121 352.602 650.623 352.396C651.126 352.189 651.679 352.135 652.213 352.241C652.746 352.345 653.237 352.606 653.622 352.988C654.007 353.37 654.269 353.857 654.374 354.387C654.481 354.917 654.426 355.466 654.218 355.965C654.01 356.464 653.658 356.892 653.205 357.192C652.753 357.493 652.22 357.652 651.676 357.652C650.946 357.652 650.246 357.364 649.731 356.852C649.215 356.339 648.925 355.645 648.925 354.92Z" fill="white"/>
<path d="M657.625 354.92C657.625 354.38 657.786 353.851 658.088 353.402C658.391 352.952 658.821 352.602 659.324 352.396C659.826 352.189 660.38 352.135 660.914 352.241C661.446 352.345 661.937 352.606 662.322 352.988C662.707 353.37 662.969 353.857 663.074 354.387C663.181 354.917 663.127 355.466 662.918 355.965C662.71 356.464 662.358 356.892 661.905 357.192C661.453 357.493 660.92 357.652 660.376 357.652C659.647 357.652 658.946 357.364 658.431 356.852C657.915 356.339 657.625 355.645 657.625 354.92Z" fill="white"/>
<path d="M666.325 354.92C666.325 354.38 666.486 353.851 666.788 353.402C667.091 352.952 667.521 352.602 668.024 352.396C668.526 352.189 669.08 352.135 669.614 352.241C670.147 352.345 670.637 352.606 671.022 352.988C671.407 353.37 671.669 353.857 671.775 354.387C671.881 354.917 671.827 355.466 671.618 355.965C671.41 356.464 671.058 356.892 670.606 357.192C670.153 357.493 669.62 357.652 669.077 357.652C668.347 357.652 667.647 357.364 667.131 356.852C666.616 356.339 666.325 355.645 666.325 354.92Z" fill="white"/>
<path d="M922.975 359.953H905.488V351.907H922.975V359.953ZM906.369 359.078H922.094V352.76H906.369V359.078Z" fill="white"/>
<path d="M918.223 353.268H906.935V358.581H918.223V353.268Z" fill="white"/>
<path d="M924.552 353.775H922.997V358.084H924.552V353.775Z" fill="white"/>
<path d="M836.855 392.094H719.459C717.507 392.094 715.925 393.665 715.925 395.604V396.068C715.925 398.007 717.507 399.578 719.459 399.578H836.855C838.807 399.578 840.389 398.007 840.389 396.068V395.604C840.389 393.665 838.807 392.094 836.855 392.094Z" fill="white"/>
<path d="M779.284 680.389C832.318 680.389 875.31 637.693 875.31 585.025C875.31 532.357 832.318 489.661 779.284 489.661C726.251 489.661 683.257 532.357 683.257 585.025C683.257 637.693 726.251 680.389 779.284 680.389Z" fill="white"/>
<path d="M857.085 640.558L807.277 625.59H807.168V625.654L804.015 624.283L799.86 625.19L773.619 625.881L762.026 623.581L758.764 622.501V622.587L717.439 634.316C716.351 634.608 715.329 634.845 714.263 635.072C709.772 636.144 705.498 637.971 701.626 640.472C710.521 652.665 722.198 662.593 735.701 669.441C749.204 676.289 764.147 679.864 779.309 679.871C794.471 679.879 809.418 676.319 822.927 669.484C836.436 662.649 848.124 652.732 857.03 640.547L857.085 640.558ZM807.168 625.697C807.168 625.697 807.168 625.838 807.168 625.935V625.697Z" fill="#E63946"/>
<path d="M758.763 579.171L759.067 620.654C759.057 621.67 759.378 622.663 759.981 623.484L760.394 624.186C762.781 627.723 765.889 630.723 769.517 632.993C773.145 635.262 777.212 636.75 781.456 637.362C785.699 637.972 790.024 637.691 794.151 636.539C798.278 635.385 802.116 633.384 805.416 630.666C806.115 630.083 806.65 629.332 806.969 628.485C807.289 627.637 807.384 626.721 807.243 625.827L799.631 575.877L758.763 579.171Z" fill="#FC9D9D"/>
<path d="M804.122 558.63C804.122 558.63 812.441 613.202 782.122 615.427C752.509 617.587 751.596 562.453 751.596 562.453L750.791 546.642L788.919 540L798.554 544.935L804.122 558.63Z" fill="#FC9D9D"/>
<path opacity="0.15" d="M804.84 610.88L802.665 595.879C799.924 605.599 794.248 613.602 784.308 615.211H784.406L782.231 615.513C774.325 616.118 767.734 612.489 762.764 604.713C762.656 604.603 762.513 604.534 762.36 604.518C762.206 604.502 762.052 604.539 761.924 604.624C761.794 604.708 761.7 604.834 761.654 604.98C761.609 605.127 761.617 605.285 761.677 605.426C766.94 613.677 773.944 617.501 782.339 616.896C784.097 616.779 785.832 616.442 787.505 615.891C793.718 616.51 799.931 614.714 804.84 610.88Z" fill="black"/>
<path d="M796.923 546.437C796.923 546.437 806.558 540.097 811.126 550.973C814.975 560.142 808.483 570.11 808.483 570.11L802.915 569.505C800.577 569.397 798.956 568.296 798.75 566.082L796.923 546.437Z" fill="black"/>
<path d="M803.827 539.794C804.632 550.162 795.714 552.884 792.06 553.186L762.143 555.703C760.971 555.813 759.886 556.366 759.112 557.248C758.339 558.132 757.937 559.276 757.989 560.444L758.5 569.905C758.55 570.536 758.35 571.161 757.944 571.648C757.539 572.135 756.958 572.447 756.325 572.518L754.498 572.724L752.508 575.24C740.752 572.421 735.88 539.287 757.478 532.645C758.631 532.278 759.699 531.688 760.62 530.909C761.542 530.131 762.3 529.179 762.85 528.109C766.004 521.629 778.88 519.955 785.361 527.202C785.991 527.947 786.787 528.535 787.685 528.922C788.584 529.308 789.56 529.48 790.538 529.426C798.346 529.221 803.414 534.06 803.827 539.794Z" fill="black"/>
<path d="M754.642 575.942C754.554 575.064 754.227 574.225 753.698 573.515C753.169 572.806 752.456 572.252 751.636 571.912C750.815 571.572 749.918 571.459 749.038 571.585C748.157 571.711 747.328 572.07 746.638 572.626L746.529 572.724C741.363 577.152 744.702 591.084 756.066 589.842L754.642 575.942Z" fill="#FC9D9D"/>
<path d="M811.126 568.598L811.028 568.49C810.262 568.051 809.393 567.823 808.509 567.831C807.626 567.839 806.76 568.083 806.003 568.537C805.248 568.99 804.627 569.636 804.208 570.409C803.789 571.181 803.586 572.052 803.622 572.929L804.231 586.224C815.682 585.813 816.802 572.216 811.126 568.598Z" fill="#FC9D9D"/>
<path d="M756.064 577.659C756.083 578.005 755.966 578.345 755.74 578.608C755.513 578.872 755.193 579.038 754.846 579.074C754.511 579.119 754.172 579.04 753.891 578.854C753.611 578.667 753.409 578.384 753.324 578.059L752.008 569.095L755.76 569.203L756.064 577.659Z" fill="black"/>
<path d="M805.949 574.03C805.976 574.378 805.863 574.723 805.635 574.988C805.406 575.253 805.081 575.417 804.731 575.445C804.399 575.493 804.06 575.416 803.782 575.231C803.502 575.046 803.302 574.764 803.219 574.441L801.893 565.477L805.644 565.574L805.949 574.03Z" fill="black"/>
<path d="M792.269 554.493C791.763 554.558 791.251 554.558 790.746 554.493C790.653 554.495 790.56 554.479 790.474 554.445C790.388 554.409 790.311 554.357 790.247 554.29C790.182 554.223 790.133 554.144 790.101 554.057C790.07 553.97 790.058 553.878 790.064 553.786C790.071 553.694 790.097 553.604 790.141 553.522C790.185 553.441 790.246 553.37 790.32 553.314C790.393 553.258 790.477 553.217 790.568 553.195C790.658 553.172 790.753 553.17 790.844 553.186C790.942 553.186 796.923 553.489 799.468 549.558C799.512 549.484 799.572 549.421 799.643 549.372C799.714 549.323 799.793 549.288 799.877 549.27C799.962 549.252 800.049 549.251 800.133 549.267C800.218 549.282 800.299 549.316 800.37 549.363C800.444 549.408 800.51 549.468 800.561 549.538C800.611 549.608 800.648 549.688 800.666 549.774C800.686 549.858 800.688 549.945 800.673 550.031C800.658 550.116 800.625 550.198 800.577 550.27C798.348 553.64 794.389 554.396 792.269 554.493Z" fill="#FC9D9D"/>
<path d="M769.757 583.696C770.277 583.694 770.785 583.539 771.215 583.25C771.647 582.962 771.983 582.554 772.18 582.075C772.378 581.598 772.428 581.073 772.326 580.567C772.222 580.06 771.971 579.596 771.602 579.231C771.235 578.867 770.765 578.618 770.255 578.519C769.745 578.418 769.216 578.471 768.736 578.669C768.256 578.868 767.845 579.203 767.557 579.632C767.268 580.061 767.114 580.567 767.114 581.083C767.114 581.427 767.183 581.768 767.315 582.085C767.448 582.404 767.643 582.692 767.889 582.935C768.134 583.178 768.426 583.37 768.747 583.501C769.066 583.632 769.41 583.697 769.757 583.696Z" fill="black"/>
<path d="M768.549 581.385C768.711 581.385 768.865 581.321 768.98 581.208C769.094 581.095 769.158 580.941 769.158 580.78C769.158 580.62 769.094 580.466 768.98 580.353C768.865 580.239 768.711 580.176 768.549 580.176C768.388 580.176 768.232 580.239 768.118 580.353C768.004 580.466 767.94 580.62 767.94 580.78C767.94 580.941 768.004 581.095 768.118 581.208C768.232 581.321 768.388 581.385 768.549 581.385Z" fill="white"/>
<path d="M790.028 582.195C790.551 582.197 791.064 582.045 791.5 581.758C791.936 581.472 792.276 581.062 792.477 580.583C792.68 580.103 792.733 579.575 792.633 579.065C792.532 578.556 792.28 578.087 791.912 577.719C791.542 577.351 791.071 577.1 790.559 576.998C790.046 576.896 789.514 576.946 789.03 577.145C788.547 577.344 788.134 577.68 787.842 578.112C787.552 578.544 787.396 579.051 787.396 579.571C787.396 580.265 787.674 580.93 788.166 581.423C788.66 581.914 789.329 582.192 790.028 582.195Z" fill="black"/>
<path d="M788.821 579.97C788.942 579.97 789.059 579.935 789.159 579.869C789.259 579.802 789.337 579.708 789.383 579.597C789.43 579.487 789.442 579.365 789.418 579.248C789.395 579.13 789.336 579.022 789.252 578.938C789.167 578.854 789.058 578.795 788.939 578.773C788.822 578.749 788.699 578.761 788.588 578.807C788.476 578.853 788.382 578.93 788.314 579.03C788.248 579.129 788.212 579.246 788.212 579.366C788.212 579.527 788.276 579.68 788.39 579.793C788.504 579.907 788.66 579.97 788.821 579.97Z" fill="white"/>
<path opacity="0.3" d="M781.207 593.47L783.382 593.265C783.585 593.252 783.773 593.16 783.906 593.009C784.04 592.858 784.108 592.662 784.095 592.461C784.082 592.26 783.989 592.073 783.837 591.94C783.686 591.807 783.487 591.74 783.284 591.753L781.109 591.958C780.895 591.971 780.681 591.943 780.478 591.874C780.274 591.805 780.087 591.697 779.926 591.557C779.765 591.415 779.634 591.245 779.539 591.053C779.444 590.862 779.389 590.654 779.375 590.441C779.362 590.228 779.39 590.016 779.46 589.814C779.529 589.612 779.638 589.426 779.779 589.266C779.922 589.105 780.094 588.975 780.287 588.881C780.48 588.788 780.689 588.731 780.903 588.718C781.003 588.712 781.101 588.686 781.191 588.643C781.28 588.599 781.361 588.537 781.427 588.462C781.493 588.388 781.545 588.302 781.576 588.206C781.609 588.113 781.622 588.013 781.615 587.914C781.609 587.814 781.583 587.717 781.539 587.629C781.494 587.539 781.434 587.459 781.357 587.393C781.282 587.327 781.195 587.278 781.101 587.245C781.005 587.213 780.905 587.2 780.805 587.206C780.396 587.228 779.995 587.332 779.626 587.512C779.259 587.692 778.932 587.946 778.666 588.256C778.401 588.567 778.201 588.928 778.081 589.318C777.961 589.707 777.922 590.117 777.967 590.522C777.963 590.934 778.047 591.341 778.212 591.719C778.378 592.096 778.621 592.435 778.927 592.712C779.232 592.991 779.593 593.202 779.986 593.332C780.379 593.463 780.795 593.509 781.207 593.47Z" fill="black"/>
<path d="M797.335 572.626L785.873 573.231L784.35 573.328L774.313 573.933H774.215L761.339 574.635C760.838 574.663 760.347 574.792 759.897 575.01C759.446 575.229 759.042 575.535 758.711 575.91C758.381 576.284 758.129 576.721 757.969 577.194C757.809 577.667 757.746 578.166 757.783 578.664L757.989 581.59C758.185 584.264 759.428 586.755 761.452 588.528C763.477 590.303 766.121 591.216 768.816 591.075C771.511 590.933 774.044 589.748 775.869 587.772C777.694 585.797 778.666 583.19 778.576 580.51L778.369 577.594C778.319 576.793 777.997 576.032 777.456 575.434L781.414 575.229C780.957 575.911 780.743 576.724 780.805 577.54L781.012 580.467C781.083 581.809 781.421 583.123 782.003 584.336C782.586 585.549 783.404 586.635 784.41 587.534C785.415 588.432 786.59 589.124 787.865 589.573C789.141 590.021 790.493 590.215 791.843 590.144C793.195 590.073 794.518 589.738 795.739 589.159C796.96 588.58 798.054 587.768 798.959 586.77C799.864 585.771 800.562 584.605 801.013 583.338C801.463 582.071 801.659 580.729 801.587 579.387L801.391 576.471C801.402 575.947 801.302 575.428 801.1 574.944C800.897 574.461 800.595 574.025 800.214 573.663C799.833 573.302 799.38 573.023 798.885 572.845C798.389 572.666 797.861 572.592 797.335 572.626ZM776.847 577.562L777.053 580.478C777.12 581.612 776.961 582.749 776.585 583.823C776.209 584.896 775.624 585.886 774.863 586.734C774.102 587.583 773.181 588.275 772.15 588.77C771.12 589.265 770.002 589.554 768.859 589.62C767.717 589.686 766.572 589.527 765.491 589.155C764.41 588.781 763.414 588.2 762.559 587.445C761.704 586.689 761.008 585.773 760.509 584.75C760.011 583.728 759.72 582.616 759.653 581.482L759.447 578.566C759.423 577.962 759.636 577.371 760.041 576.919C760.448 576.469 761.014 576.191 761.622 576.147L774.498 575.445H774.606C774.895 575.437 775.181 575.484 775.449 575.587C775.718 575.688 775.964 575.843 776.171 576.039C776.38 576.236 776.546 576.472 776.663 576.734C776.779 576.995 776.841 577.276 776.847 577.562ZM800.087 579.171C800.221 581.463 799.433 583.713 797.896 585.428C796.36 587.142 794.2 588.181 791.892 588.313C789.586 588.446 787.319 587.664 785.592 586.137C783.866 584.611 782.821 582.467 782.687 580.176L782.48 577.26C782.456 576.655 782.669 576.064 783.075 575.613C783.481 575.161 784.047 574.885 784.655 574.84L786.177 574.743L797.629 574.138C798.23 574.11 798.818 574.314 799.272 574.706C799.725 575.098 800.009 575.649 800.065 576.244L800.087 579.171Z" fill="black"/>
<path d="M774.716 597.596L787.603 596.689C787.678 596.687 787.754 596.703 787.823 596.734C787.893 596.765 787.953 596.812 788.001 596.87C788.049 596.928 788.084 596.996 788.101 597.07C788.119 597.143 788.12 597.22 788.104 597.293C787.703 598.729 786.868 600.007 785.712 600.956C784.555 601.904 783.133 602.476 781.638 602.594C780.143 602.712 778.648 602.371 777.355 601.616C776.062 600.861 775.034 599.729 774.412 598.373V598.265C774.373 598.204 774.35 598.134 774.346 598.061C774.341 597.989 774.354 597.917 774.385 597.85C774.414 597.784 774.46 597.727 774.518 597.682C774.576 597.638 774.644 597.608 774.716 597.596Z" fill="white"/>
<path opacity="0.3" d="M751.801 583.2C751.608 583.19 751.422 583.116 751.276 582.988C751.129 582.86 751.031 582.688 750.996 582.498L750.79 580.878C750.754 579.573 750.249 578.323 749.365 577.357C749.201 577.21 749.008 577.099 748.799 577.031C748.589 576.962 748.368 576.937 748.148 576.957C747.948 576.993 747.742 576.949 747.573 576.836C747.404 576.723 747.287 576.55 747.245 576.352C747.203 576.154 747.242 575.946 747.355 575.776C747.467 575.606 747.643 575.486 747.844 575.445C748.702 575.347 749.567 575.562 750.28 576.05C750.914 576.625 751.422 577.323 751.772 578.102C752.122 578.881 752.306 579.722 752.313 580.575L752.509 582.195C752.517 582.417 752.453 582.634 752.325 582.815C752.197 582.996 752.013 583.132 751.801 583.2Z" fill="black"/>
<path opacity="0.3" d="M807.58 579.074C807.779 579.052 807.962 578.956 808.093 578.806C808.224 578.656 808.294 578.463 808.287 578.264V576.655C808.173 576.02 808.195 575.368 808.352 574.743C808.51 574.118 808.799 573.533 809.201 573.026C809.344 572.84 809.529 572.69 809.74 572.585C809.951 572.481 810.183 572.424 810.419 572.421C810.612 572.411 810.798 572.338 810.944 572.209C811.091 572.082 811.188 571.909 811.223 571.719C811.215 571.525 811.14 571.339 811.011 571.192C810.883 571.045 810.709 570.946 810.516 570.909C810.096 570.919 809.681 571.014 809.298 571.186C808.916 571.358 808.571 571.606 808.287 571.914C807.276 572.929 806.862 574.538 806.971 576.752V578.361C806.765 578.772 807.069 579.074 807.58 579.074Z" fill="black"/>
<path d="M779.283 689.601C758.456 689.601 738.097 683.468 720.779 671.977C703.463 660.485 689.966 644.154 681.996 625.044C674.026 605.936 671.94 584.909 676.004 564.622C680.067 544.337 690.096 525.704 704.823 511.078C719.55 496.453 738.312 486.493 758.74 482.458C779.166 478.422 800.339 480.494 819.58 488.409C838.822 496.324 855.267 509.728 866.838 526.925C878.409 544.123 884.585 564.342 884.585 585.025C884.554 612.75 873.449 639.331 853.708 658.937C833.967 678.542 807.201 689.57 779.283 689.601ZM779.283 482.792C758.922 482.79 739.018 488.784 722.088 500.016C705.158 511.248 691.962 527.214 684.169 545.894C676.375 564.575 674.335 585.131 678.306 604.963C682.277 624.795 692.08 643.012 706.477 657.31C720.873 671.609 739.216 681.347 759.185 685.292C779.154 689.238 799.853 687.214 818.664 679.476C837.475 671.739 853.552 658.635 864.865 641.823C876.177 625.011 882.214 605.244 882.214 585.025C882.183 557.922 871.329 531.939 852.032 512.774C832.735 493.608 806.573 482.826 779.283 482.792ZM779.283 681.382C760.093 681.382 741.333 675.731 725.377 665.143C709.422 654.555 696.985 639.506 689.642 621.899C682.298 604.292 680.377 584.918 684.12 566.226C687.864 547.535 697.105 530.366 710.674 516.89C724.244 503.413 741.532 494.237 760.354 490.518C779.175 486.801 798.684 488.709 816.413 496.001C834.143 503.295 849.296 515.645 859.958 531.491C870.618 547.337 876.309 565.967 876.309 585.025C876.278 610.571 866.046 635.061 847.856 653.125C829.666 671.189 805.006 681.351 779.283 681.382ZM779.283 491.021C760.57 491.021 742.278 496.532 726.718 506.856C711.159 517.181 699.033 531.855 691.873 549.025C684.711 566.194 682.838 585.086 686.488 603.312C690.139 621.538 699.15 638.281 712.382 651.421C725.613 664.561 742.472 673.51 760.824 677.136C779.178 680.761 798.201 678.9 815.49 671.79C832.778 664.678 847.554 652.635 857.95 637.183C868.347 621.732 873.895 603.565 873.895 584.981C873.864 560.069 863.886 536.186 846.15 518.569C828.415 500.951 804.368 491.037 779.283 491V491.021Z" fill="#E63946"/>
<path d="M893.068 742.089H665.498C664.931 742.063 664.392 741.827 663.99 741.427C663.588 741.028 663.35 740.494 663.323 739.929V725.889C663.35 725.324 663.588 724.791 663.99 724.391C664.392 723.992 664.931 723.755 665.498 723.729H893.068C893.637 723.755 894.176 723.992 894.577 724.391C894.979 724.791 895.217 725.324 895.243 725.889V739.929C895.243 740.502 895.015 741.051 894.606 741.456C894.198 741.861 893.646 742.089 893.068 742.089Z" fill="white"/>
<path d="M893.068 780.969H665.498C664.931 780.943 664.392 780.707 663.99 780.307C663.588 779.908 663.35 779.374 663.323 778.809V764.769C663.35 764.204 663.588 763.671 663.99 763.271C664.392 762.872 664.931 762.635 665.498 762.609H893.068C893.637 762.635 894.176 762.872 894.577 763.271C894.979 763.671 895.217 764.204 895.243 764.769V778.809C895.243 779.382 895.015 779.931 894.606 780.336C894.198 780.741 893.646 780.969 893.068 780.969Z" fill="white"/>
<path d="M838.15 840.326H720.45C718.671 840.323 716.966 839.62 715.709 838.371C714.45 837.122 713.742 835.429 713.74 833.662V814.59C713.74 812.823 714.447 811.127 715.705 809.878C716.964 808.628 718.67 807.926 720.45 807.926H838.15C839.929 807.926 841.636 808.628 842.894 809.878C844.153 811.127 844.86 812.823 844.86 814.59V833.662C844.87 834.54 844.704 835.411 844.37 836.224C844.036 837.037 843.542 837.776 842.917 838.397C842.293 839.018 841.549 839.508 840.73 839.839C839.911 840.171 839.033 840.336 838.15 840.326Z" fill="#E63946"/>
<path d="M717.133 922.006C711.542 922.006 706.181 919.802 702.227 915.876C698.272 911.952 696.05 906.628 696.046 901.076C696.046 895.523 698.268 890.196 702.222 886.268C706.177 882.341 711.54 880.135 717.133 880.135C722.724 880.138 728.084 882.346 732.036 886.272C735.989 890.199 738.209 895.524 738.209 901.076C738.209 906.627 735.988 911.95 732.036 915.876C728.083 919.801 722.723 922.006 717.133 922.006Z" fill="white"/>
<path d="M713.915 913.723H719.048V900.968H722.626L723.017 896.648H719.048V894.218C719.048 893.214 719.254 892.814 720.233 892.814H723.017V888.44H719.461C715.644 888.44 713.915 890.114 713.915 893.311V896.713H711.25V901.033H713.915V913.723Z" fill="#E63946"/>
<path d="M781.884 922.006C776.294 922.006 770.934 919.801 766.981 915.876C763.029 911.95 760.808 906.627 760.808 901.076C760.808 895.524 763.028 890.199 766.981 886.272C770.933 882.346 776.293 880.138 781.884 880.135C787.476 880.135 792.839 882.341 796.795 886.268C800.749 890.196 802.971 895.523 802.971 901.076C802.967 906.628 800.744 911.952 796.79 915.876C792.836 919.802 787.475 922.006 781.884 922.006Z" fill="white"/>
<path d="M781.883 892.242C784.776 892.242 785.145 892.242 786.233 892.306C786.92 892.317 787.601 892.445 788.245 892.684C788.715 892.859 789.141 893.131 789.495 893.484C789.85 893.836 790.124 894.259 790.3 894.726C790.542 895.365 790.67 896.041 790.681 896.724C790.681 897.858 790.746 898.203 790.746 901.044C790.746 903.884 790.746 904.284 790.681 905.364C790.67 906.046 790.542 906.722 790.3 907.362C790.121 907.825 789.845 908.246 789.49 908.598C789.137 908.949 788.712 909.223 788.245 909.403C787.602 909.643 786.92 909.767 786.233 909.77C785.145 909.824 784.743 909.835 781.883 909.835C779.023 909.835 778.62 909.835 777.533 909.77C776.846 909.767 776.165 909.643 775.521 909.403C775.049 909.228 774.623 908.951 774.27 908.593C773.917 908.244 773.643 907.824 773.466 907.362C773.224 906.722 773.099 906.046 773.096 905.364C773.096 904.219 773.031 903.884 773.031 901.044C773.031 898.203 773.031 897.804 773.096 896.724C773.099 896.041 773.224 895.365 773.466 894.726C773.64 894.256 773.918 893.831 774.281 893.484C774.63 893.127 775.053 892.851 775.521 892.674C776.168 892.445 776.847 892.32 777.533 892.306C778.62 892.252 779.023 892.242 781.883 892.242ZM781.883 890.308C778.936 890.308 778.621 890.308 777.413 890.373C776.514 890.385 775.623 890.552 774.782 890.87C774.073 891.144 773.431 891.569 772.9 892.112C772.343 892.647 771.915 893.3 771.65 894.024C771.329 894.859 771.156 895.743 771.138 896.637C771.084 897.782 771.073 898.149 771.073 901.076C771.073 904.003 771.073 904.316 771.138 905.515C771.161 906.407 771.33 907.29 771.639 908.128C771.917 908.848 772.348 909.5 772.9 910.04C773.441 910.591 774.099 911.015 774.825 911.282C775.667 911.6 776.557 911.771 777.457 911.79C778.61 911.79 778.979 911.854 781.926 911.854C784.874 911.854 785.189 911.854 786.396 911.79C787.297 911.771 788.187 911.6 789.028 911.282C789.755 911.015 790.412 910.591 790.953 910.04C791.501 909.501 791.927 908.854 792.203 908.139C792.513 907.301 792.682 906.418 792.704 905.526C792.758 904.37 792.769 904.014 792.769 901.087C792.769 898.16 792.769 897.793 792.704 896.648C792.688 895.755 792.519 894.871 792.203 894.034C791.928 893.316 791.502 892.664 790.953 892.123C790.408 891.577 789.751 891.154 789.028 890.881C788.186 890.568 787.295 890.399 786.396 890.384C785.243 890.384 784.874 890.319 781.926 890.319" fill="#E63946"/>
<path d="M781.884 895.546C780.782 895.546 779.706 895.87 778.79 896.478C777.874 897.086 777.161 897.949 776.739 898.96C776.318 899.97 776.207 901.082 776.423 902.155C776.638 903.227 777.168 904.212 777.946 904.986C778.725 905.759 779.718 906.286 780.798 906.5C781.878 906.712 782.996 906.603 784.014 906.184C785.032 905.766 785.901 905.058 786.514 904.149C787.125 903.239 787.452 902.17 787.452 901.076C787.452 899.609 786.865 898.203 785.821 897.166C784.777 896.129 783.361 895.546 781.884 895.546ZM781.884 904.662C781.166 904.664 780.465 904.454 779.868 904.06C779.271 903.666 778.804 903.104 778.529 902.446C778.254 901.789 778.181 901.065 778.32 900.366C778.459 899.668 778.805 899.026 779.312 898.522C779.819 898.019 780.466 897.676 781.168 897.538C781.872 897.399 782.602 897.471 783.264 897.744C783.925 898.018 784.491 898.481 784.889 899.074C785.286 899.667 785.497 900.364 785.495 901.076C785.495 901.547 785.401 902.013 785.219 902.449C785.038 902.883 784.772 903.278 784.436 903.612C784.101 903.944 783.703 904.208 783.265 904.388C782.827 904.569 782.358 904.662 781.884 904.662Z" fill="#E63946"/>
<path d="M788.974 895.33C788.974 895.586 788.897 895.837 788.755 896.051C788.611 896.264 788.407 896.43 788.168 896.528C787.93 896.625 787.668 896.651 787.415 896.602C787.161 896.552 786.929 896.428 786.746 896.246C786.563 896.066 786.439 895.835 786.389 895.583C786.339 895.332 786.364 895.071 786.463 894.835C786.562 894.597 786.73 894.395 786.944 894.253C787.159 894.11 787.412 894.034 787.669 894.034C787.841 894.033 788.011 894.066 788.171 894.131C788.329 894.194 788.474 894.29 788.595 894.41C788.717 894.531 788.812 894.675 788.878 894.833C788.943 894.99 788.975 895.16 788.974 895.33Z" fill="#E63946"/>
<path d="M846.632 922.006C841.043 922.006 835.682 919.801 831.729 915.876C827.777 911.95 825.557 906.627 825.557 901.076C825.557 895.523 827.778 890.196 831.733 886.268C835.687 882.341 841.05 880.135 846.643 880.135C852.234 880.138 857.594 882.346 861.546 886.272C865.498 890.199 867.719 895.524 867.719 901.076C867.716 906.628 865.493 911.952 861.539 915.876C857.585 919.802 852.223 922.006 846.632 922.006Z" fill="white"/>
<path d="M834.061 908.96C836.328 910.401 838.952 911.194 841.642 911.254C844.334 911.314 846.989 910.638 849.32 909.301C851.65 907.963 853.565 906.015 854.856 903.669C856.146 901.323 856.763 898.67 856.638 896C857.651 895.275 858.523 894.376 859.215 893.343C858.273 893.762 857.272 894.035 856.246 894.153C857.328 893.519 858.137 892.512 858.519 891.324C857.51 891.918 856.407 892.338 855.256 892.566C854.479 891.742 853.449 891.196 852.327 891.014C851.205 890.83 850.054 891.019 849.051 891.553C848.05 892.085 847.251 892.932 846.783 893.96C846.314 894.989 846.2 896.143 846.459 897.242C844.404 897.133 842.395 896.596 840.562 895.666C838.73 894.735 837.116 893.433 835.823 891.842C835.165 892.969 834.964 894.304 835.261 895.574C835.557 896.843 836.331 897.954 837.421 898.678C836.603 898.653 835.801 898.435 835.083 898.041C835.068 899.236 835.474 900.399 836.231 901.328C836.986 902.256 838.047 902.894 839.227 903.128C838.464 903.331 837.665 903.36 836.889 903.214C837.219 904.234 837.863 905.126 838.729 905.764C839.594 906.404 840.639 906.758 841.717 906.778C840.648 907.624 839.422 908.253 838.109 908.627C836.795 909.001 835.419 909.114 834.061 908.96Z" fill="#E63946"/>
<path d="M403.031 969.926C394.331 846.32 384.772 838.166 384.369 837.864L384.978 836.784C385.391 836.989 395.429 843.102 404.325 969.883L403.031 969.926Z" fill="#3F4249"/>
<path d="M412.014 969.926L410.731 969.84C416.44 879.541 410.231 830.293 410.166 829.807L411.438 829.645C411.503 830.131 417.735 879.487 412.014 969.926Z" fill="#3F4249"/>
<path d="M419.834 972.615C412.918 916.304 430.546 873.406 430.709 872.974L431.895 873.471C431.721 873.892 414.212 916.498 421.096 972.464L419.834 972.615Z" fill="#3F4249"/>
<path d="M427.076 979.495C424.193 959.392 424.351 938.974 427.544 918.917L428.805 919.155C425.638 939.069 425.484 959.342 428.348 979.3L427.076 979.495Z" fill="#3F4249"/>
<path d="M430.948 873.99L436.537 873.536C440.509 873.198 444.361 872.02 447.837 870.08C449.532 869.091 451.291 868.211 453.1 867.445C460.017 864.691 467.727 865.188 475.166 864.82C487.352 864.204 499.292 861.171 510.281 855.9C510.924 855.608 511.46 855.125 511.814 854.517C512.956 852.444 510.825 850.597 508.987 849.474C499.569 843.706 489.977 837.864 479.287 835.002C468.597 832.14 456.45 832.626 447.358 838.857C436.657 846.169 432.753 861.192 430.948 873.968" fill="#E63946"/>
<g opacity="0.3">
<g opacity="0.3">
<path opacity="0.3" d="M511.9 853.88C511.572 853.762 511.255 853.614 510.954 853.437L508.3 852.066C506.006 850.867 502.7 849.096 498.513 847.098C493.642 844.725 488.569 842.784 483.353 841.298C476.977 839.482 470.301 838.946 463.713 839.721C457.116 840.449 450.886 843.107 445.813 847.357C441.849 851.003 438.674 855.413 436.482 860.317C434.961 863.625 433.607 867.005 432.426 870.447C432.012 871.603 431.686 872.543 431.436 873.245C431.333 873.575 431.201 873.897 431.044 874.206C431.085 873.863 431.165 873.526 431.284 873.201C431.512 872.478 431.795 871.538 432.154 870.35C433.233 866.862 434.518 863.439 436.003 860.101C438.156 855.071 441.341 850.543 445.356 846.806C450.515 842.433 456.875 839.694 463.615 838.944C470.33 838.153 477.138 838.722 483.625 840.618C488.878 842.142 493.975 844.148 498.85 846.612C503.015 848.664 506.289 850.511 508.551 851.796L511.139 853.297C511.448 853.456 511.739 853.644 512.009 853.859" fill="black"/>
</g>
</g>
<g opacity="0.3">
<g opacity="0.3">
<path opacity="0.3" d="M498.503 861.03C498.394 861.192 491.075 856.494 482.191 850.532C473.306 844.57 466.128 839.592 466.226 839.43C466.324 839.268 473.654 843.955 482.539 849.916C491.423 855.878 498.579 860.857 498.46 861.03" fill="black"/>
</g>
</g>
<g opacity="0.3">
<g opacity="0.3">
<path opacity="0.3" d="M490.706 839.041C488.99 839.627 487.192 839.947 485.377 839.991C483.572 840.24 481.739 840.218 479.939 839.926C481.709 839.601 483.502 839.417 485.301 839.376C487.103 839.125 488.92 839.013 490.738 839.041" fill="black"/>
</g>
</g>
<g opacity="0.3">
<g opacity="0.3">
<path opacity="0.3" d="M458.678 834.894C458.862 834.98 457.786 836.643 456.285 838.62C455.439 839.903 454.415 841.059 453.24 842.054C453.066 841.968 454.143 840.304 455.643 838.328C456.487 837.047 457.509 835.891 458.678 834.894Z" fill="black"/>
</g>
</g>
<g opacity="0.3">
<g opacity="0.3">
<path opacity="0.3" d="M465.237 865.306C464.001 864.79 462.821 864.153 461.713 863.406C459.603 862.131 456.743 860.274 453.698 858.07C450.653 855.867 447.956 853.75 446.02 852.271C444.931 851.501 443.915 850.633 442.986 849.679C444.165 850.299 445.285 851.021 446.336 851.839L454.133 857.466C457.178 859.626 459.973 861.58 462.007 862.963C463.157 863.648 464.249 864.429 465.269 865.296" fill="black"/>
</g>
</g>
<path d="M446.118 1050.44H390.754L380.455 975.002H456.428L446.118 1050.44Z" fill="#61656D"/>
<path d="M462.855 986.504H374.017L372.734 969.883H464.149L462.855 986.504Z" fill="#61656D"/>
<g opacity="0.2">
<g opacity="0.2">
<path opacity="0.2" d="M382.031 986.504H454.85L446.117 1050.44L437.374 1049.85L442.257 991.623L382.585 990.619L382.031 986.504Z" fill="black"/>
</g>
</g>
<g opacity="0.2">
<g opacity="0.2">
<path opacity="0.2" d="M443.845 970.002L441.257 986.504H462.855L464.149 969.883L443.845 970.002Z" fill="black"/>
</g>
</g>
<g opacity="0.2">
<g opacity="0.2">
<path opacity="0.2" d="M451.274 1005.49H385.404V1006.76H451.274V1005.49Z" fill="white"/>
</g>
</g>
<g opacity="0.2">
<g opacity="0.2">
<path opacity="0.2" d="M451.274 1010.61H385.404V1011.88H451.274V1010.61Z" fill="white"/>
</g>
</g>
<path d="M385.882 837.291C380.553 833.274 374.92 832.485 368.232 832.744C361.541 833.185 354.991 834.859 348.918 837.68C338.467 842.216 328.647 848.912 322.404 858.394C316.162 867.877 313.998 880.426 318.663 890.794C319.031 891.874 319.786 892.781 320.784 893.343C321.946 893.674 323.189 893.577 324.286 893.073C336.161 889.228 348.135 885.34 359.086 879.314C370.037 873.288 379.922 864.896 385.751 853.934C387.256 851.346 388.211 848.479 388.557 845.51C388.723 844.026 388.567 842.525 388.098 841.107C387.628 839.689 386.858 838.387 385.838 837.291" fill="#E63946"/>
<g opacity="0.3">
<g opacity="0.3">
<path opacity="0.3" d="M385.99 836.038C385.721 836.19 385.431 836.305 385.131 836.384L382.642 837.237L380.837 837.831C380.184 838.069 379.488 838.36 378.727 838.652C377.226 839.257 375.463 839.862 373.647 840.747L370.733 842.065C369.721 842.529 368.711 843.145 367.645 843.631C365.47 844.711 363.295 846.028 360.99 847.389C351.027 853.524 342.166 861.266 334.769 870.296C333.116 872.402 331.507 874.378 330.18 876.366C329.506 877.348 328.799 878.277 328.211 879.206L326.527 881.96C325.439 883.656 324.579 885.297 323.785 886.701C323.405 887.403 323.024 888.062 322.698 888.667C322.372 889.272 322.123 889.855 321.872 890.373L320.697 892.717C320.575 892.996 320.425 893.264 320.251 893.516C320.328 893.218 320.434 892.93 320.566 892.652C320.838 892.036 321.175 891.237 321.654 890.244L322.416 888.516C322.721 887.889 323.078 887.23 323.448 886.507C324.22 885.081 325.014 883.407 326.102 881.69L327.766 878.947C328.342 877.996 329.038 877.068 329.701 876.063C331.017 874.054 332.628 872.046 334.281 869.907C341.661 860.76 350.588 852.957 360.662 846.849C363.011 845.499 365.219 844.171 367.394 843.134C368.482 842.605 369.493 842.054 370.515 841.59L373.463 840.304C375.334 839.451 377.095 838.879 378.617 838.306C379.389 838.036 380.096 837.756 380.792 837.55L382.619 837.01L385.154 836.287C385.448 836.193 385.75 836.124 386.056 836.082" fill="black"/>
</g>
</g>
<g opacity="0.3">
<g opacity="0.3">
<path opacity="0.3" d="M344.35 858.427C344.404 858.621 338.608 860.479 331.387 862.574C324.166 864.669 318.272 866.213 318.217 866.019C318.163 865.825 323.959 863.967 331.18 861.872C338.401 859.777 344.295 858.232 344.35 858.427Z" fill="black"/>
</g>
</g>
<g opacity="0.3">
<g opacity="0.3">
<path opacity="0.3" d="M343.818 886.842C343.593 885.514 343.499 884.17 343.536 882.824C343.47 880.351 343.459 876.916 343.536 873.104C343.612 869.292 343.84 865.9 344.047 863.384C344.087 862.039 344.258 860.7 344.558 859.388C344.678 860.725 344.678 862.07 344.558 863.406C344.482 866.127 344.373 869.432 344.264 873.126C344.155 876.819 344.09 880.081 344.014 882.792C344.055 884.135 343.975 885.48 343.775 886.809" fill="black"/>
</g>
</g>
<g opacity="0.3">
<g opacity="0.3">
<path opacity="0.3" d="M368.35 874.4C368.154 874.4 367.502 867.445 366.903 858.837C366.305 850.23 365.979 843.253 366.186 843.231C366.392 843.21 367.045 850.186 367.643 858.794C368.241 867.402 368.524 874.4 368.35 874.4Z" fill="black"/>
</g>
</g>
<g opacity="0.3">
<g opacity="0.3">
<path opacity="0.3" d="M337.826 842.605C339.203 842.429 340.594 842.386 341.98 842.475C344.536 842.475 348.081 842.573 351.985 842.691C355.89 842.81 359.424 842.983 361.98 843.134C363.366 843.139 364.749 843.272 366.112 843.534C364.736 843.696 363.35 843.735 361.969 843.653C359.402 843.653 355.868 843.566 351.953 843.437C348.038 843.307 344.514 843.145 341.959 842.994C340.572 842.983 339.189 842.853 337.826 842.605Z" fill="black"/>
</g>
</g>
<path d="M375.17 810.399L368.351 822.754C368.199 823.046 367.981 823.37 367.655 823.392C367.329 823.413 367.024 823.078 366.828 822.787L348.656 795.096L352.843 792.741L375.17 810.399Z" fill="#E63946"/>
<g opacity="0.2">
<g opacity="0.2">
<path opacity="0.2" d="M375.17 810.399L368.351 822.754C368.199 823.046 367.981 823.37 367.655 823.392C367.329 823.413 367.024 823.078 366.828 822.787L348.656 795.096L352.843 792.741L375.17 810.399Z" fill="black"/>
</g>
</g>
<path d="M412.014 832.669L350.027 796.359C349.396 795.981 348.7 795.549 348.515 794.847C348.265 793.929 348.95 793.054 349.603 792.374C353.86 787.976 359.022 784.542 364.736 782.306C370.451 780.07 376.585 779.082 382.717 779.414C394.93 780.289 406.642 787.287 412.656 797.904C418.67 808.52 418.833 822.549 411.971 832.626" fill="#E63946"/>
<g opacity="0.3">
<g opacity="0.3">
<path opacity="0.3" d="M358.988 784.76C359.251 784.701 359.521 784.667 359.793 784.663C360.325 784.663 361.119 784.544 362.142 784.555C365.02 784.512 367.896 784.735 370.733 785.224C380.183 786.804 388.982 791.038 396.089 797.424C403.196 803.81 408.314 812.083 410.84 821.264C411.614 824.022 412.127 826.847 412.373 829.699C412.437 830.295 412.47 830.893 412.471 831.492C412.419 831.969 412.255 832.428 411.993 832.831C412.185 831.805 412.218 830.756 412.09 829.72C411.73 826.91 411.144 824.134 410.34 821.415C407.737 812.385 402.639 804.259 395.622 797.96C388.607 791.66 379.954 787.439 370.646 785.775C367.837 785.245 364.989 784.941 362.131 784.868C360.108 784.868 358.988 784.868 358.988 784.792" fill="black"/>
</g>
</g>
<g opacity="0.3">
<g opacity="0.3">
<path opacity="0.3" d="M403.631 807.602C402.644 808.193 401.594 808.667 400.499 809.017C398.52 809.784 395.768 810.777 392.68 811.749C389.591 812.721 386.764 813.499 384.708 813.996C383.61 814.342 382.475 814.556 381.326 814.633C382.375 814.165 383.467 813.803 384.589 813.553L392.473 811.101L400.325 808.52C401.379 808.109 402.472 807.802 403.587 807.602" fill="black"/>
</g>
</g>
<g opacity="0.3">
<g opacity="0.3">
<path opacity="0.3" d="M393.875 781.574C394.071 781.574 394.516 784.62 394.603 788.443C394.69 792.266 394.419 795.344 394.223 795.333C394.027 795.322 393.962 792.244 393.864 788.454C393.766 784.663 393.668 781.596 393.864 781.574" fill="black"/>
</g>
</g>
<g opacity="0.3">
<g opacity="0.3">
<path opacity="0.3" d="M349.517 795.668C350.967 795.012 352.475 794.485 354.019 794.091C356.835 793.227 360.75 792.136 365.122 791.089C369.494 790.041 373.485 789.242 376.389 788.745C377.944 788.398 379.526 788.185 381.119 788.108C379.602 788.592 378.055 788.974 376.487 789.253C373.616 789.89 369.657 790.765 365.296 791.812C360.935 792.86 357.009 793.864 354.16 794.599C352.638 795.062 351.087 795.423 349.517 795.679" fill="black"/>
</g>
</g>
<path d="M437.952 901.4C432.613 900.007 426.262 905.158 425.163 910.526C424.065 915.894 426.088 921.391 428.426 926.326C433.689 937.278 440.932 947.44 450.491 954.99C460.05 962.539 472.002 967.388 484.204 967.323C481.953 956.923 484.802 946.058 483.551 935.485C482.429 926.191 478.17 917.55 471.47 910.968C464.769 904.386 456.021 900.252 446.652 899.24C443.248 898.873 439.312 898.344 437.952 901.465" fill="#E63946"/>
<g opacity="0.3">
<g opacity="0.3">
<path opacity="0.3" d="M484.191 967.345C483.924 967.258 483.669 967.143 483.429 966.999C482.728 966.615 482.062 966.171 481.439 965.671C479.204 963.735 477.41 961.35 476.176 958.672C475.317 957.031 474.371 955.249 473.446 953.272C472.522 951.296 471.576 949.179 470.575 946.965C469.537 944.653 468.357 942.405 467.041 940.237C465.6 937.929 463.978 935.736 462.191 933.681C458.537 929.415 454.578 925.732 451.229 922.212C448.154 919.137 445.356 915.802 442.866 912.243C441.192 909.836 439.82 907.235 438.777 904.499C438.429 903.517 438.189 902.761 438.059 902.221C437.992 901.952 437.955 901.676 437.95 901.4C438.015 901.4 438.32 902.48 439.103 904.381C440.237 907.048 441.663 909.583 443.355 911.941C445.884 915.428 448.699 918.7 451.772 921.726C455.176 925.214 459.124 928.886 462.81 933.195C464.622 935.281 466.267 937.505 467.726 939.848C469.047 942.046 470.225 944.326 471.249 946.673L474.055 953.002C474.947 954.968 475.871 956.761 476.698 958.402C477.86 961.05 479.556 963.436 481.679 965.412C483.234 966.751 484.289 967.248 484.245 967.312" fill="black"/>
</g>
</g>
<g opacity="0.3">
<g opacity="0.3">
<path opacity="0.3" d="M456.611 958.705C456.634 957.502 456.798 956.306 457.101 955.141C457.514 952.981 458.188 949.957 459.123 946.695C460.059 943.434 461.037 940.529 461.831 938.444C462.2 937.316 462.688 936.23 463.289 935.204C463.075 936.386 462.755 937.547 462.332 938.671C461.668 940.831 460.766 943.704 459.841 946.955C458.917 950.205 458.156 953.154 457.612 955.303C457.386 956.483 457.052 957.64 456.611 958.759" fill="black"/>
</g>
</g>
<g opacity="0.3">
<g opacity="0.3">
<path opacity="0.3" d="M483.18 933.174C481.907 932.995 480.65 932.706 479.428 932.31C477.123 931.716 473.991 930.906 470.424 930.15C466.857 929.394 463.67 928.746 461.332 928.303C460.055 928.142 458.796 927.868 457.569 927.482C458.86 927.447 460.151 927.553 461.419 927.795C463.779 928.098 467.031 928.638 470.587 929.437C474.143 930.236 477.307 931.132 479.569 931.856C480.82 932.173 482.032 932.63 483.18 933.217" fill="black"/>
</g>
</g>
<g opacity="0.3">
<g opacity="0.3">
<path opacity="0.3" d="M436.864 940.593C436.915 939.199 437.107 937.813 437.44 936.457C437.908 933.93 438.647 930.452 439.615 926.661C440.583 922.87 441.67 919.458 442.508 917.028C442.888 915.688 443.402 914.389 444.041 913.15C443.805 914.519 443.459 915.865 443.008 917.179C442.301 919.652 441.333 923.054 440.333 926.845C439.332 930.636 438.517 934.07 437.919 936.565C437.662 937.934 437.299 939.281 436.831 940.593" fill="black"/>
</g>
</g>
<g opacity="0.3">
<g opacity="0.3">
<path opacity="0.3" d="M470.946 910.915C470.946 911.12 464.269 910.58 456.069 909.716C447.869 908.852 441.257 907.999 441.279 907.794C441.301 907.588 447.956 908.128 456.156 908.992C464.356 909.856 470.968 910.71 470.946 910.915Z" fill="black"/>
</g>
</g>
<path d="M411.601 849.031C411.144 844.214 406.239 840.574 401.357 840.52C396.474 840.466 391.928 843.371 388.948 847.205C385.968 851.039 384.315 855.716 382.978 860.381C379.715 871.743 377.888 883.688 379.302 895.427C380.716 907.167 385.501 918.723 393.983 927.017C395.364 928.367 397.148 929.717 399.04 929.318C400.058 929.005 400.978 928.44 401.715 927.676C410.022 920.125 416.604 910.896 421.024 900.61C425.443 890.324 427.596 879.219 427.337 868.039C427.206 863.578 426.619 858.923 424.129 855.208C421.638 851.493 415.831 847.54 411.601 849.031Z" fill="#E63946"/>
<g opacity="0.3">
<g opacity="0.3">
<path opacity="0.3" d="M396.626 928.637C396.568 928.367 396.538 928.093 396.539 927.817C396.539 927.19 396.474 926.413 396.431 925.441C396.333 923.389 396.322 920.408 396.431 916.725C396.539 913.042 396.746 908.668 397.192 903.765C397.638 898.862 398.377 893.613 399.367 888.084C400.356 882.554 401.618 877.284 402.89 872.618C404.163 867.952 405.511 863.719 406.751 860.241C407.991 856.764 409.067 853.977 409.883 852.076L410.829 849.916C410.923 849.655 411.047 849.404 411.199 849.171C411.161 849.447 411.084 849.715 410.97 849.97C410.753 850.554 410.481 851.288 410.155 852.206C409.415 854.128 408.415 856.936 407.251 860.425C406.088 863.913 404.815 868.114 403.554 872.802C402.292 877.489 401.118 882.716 400.095 888.224C399.073 893.732 398.377 899.024 397.866 903.852C397.355 908.679 397.083 913.042 396.942 916.714C396.8 920.386 396.735 923.356 396.746 925.354C396.746 926.319 396.746 927.107 396.746 927.72C396.767 927.998 396.744 928.279 396.681 928.551" fill="black"/>
</g>
</g>
<g opacity="0.3">
<g opacity="0.3">
<path opacity="0.3" d="M399.889 888.343C399.166 889.329 398.339 890.234 397.42 891.043C395.81 892.63 393.538 894.758 390.895 897.026C388.252 899.294 385.871 901.249 384.076 902.62C383.153 903.42 382.143 904.115 381.064 904.694C381.88 903.785 382.779 902.953 383.75 902.21L390.406 896.464L397.018 890.665C397.882 889.801 398.828 889.023 399.845 888.343" fill="black"/>
</g>
</g>
<g opacity="0.3">
<g opacity="0.3">
<path opacity="0.3" d="M419.518 904.035C418.551 902.896 417.671 901.687 416.886 900.417L410.764 891.54L404.511 882.759C403.588 881.582 402.752 880.341 402.009 879.044C403.086 880.088 404.065 881.227 404.935 882.446C406.653 884.606 408.948 887.662 411.373 891.086C413.798 894.51 415.875 897.75 417.332 900.104C418.174 901.336 418.901 902.641 419.507 904.003" fill="black"/>
</g>
</g>
<g opacity="0.3">
<g opacity="0.3">
<path opacity="0.3" d="M409.253 854.69C409.362 854.863 402.848 859.226 394.703 864.41C386.557 869.594 379.858 873.687 379.749 873.514C379.641 873.342 386.155 868.989 394.3 863.794C402.446 858.6 409.134 854.517 409.253 854.679" fill="black"/>
</g>
</g>
<g opacity="0.3">
<g opacity="0.3">
<path opacity="0.3" d="M427.62 874.4C427.478 874.541 423.063 870.491 417.767 865.35C412.471 860.209 408.284 855.932 408.425 855.781C408.567 855.63 412.982 859.691 418.278 864.831C423.574 869.972 427.761 874.249 427.62 874.4Z" fill="black"/>
</g>
</g>
<path d="M440.864 505.299H327.862V660.56H440.864V505.299Z" fill="white"/>
<path d="M425.781 519.663H342.957V646.185H425.781V519.663Z" fill="#DDDDDD"/>
<path d="M444.256 505.224H440.972V660.484H444.256V505.224Z" fill="#DADDDF"/>
<path d="M403.812 564.451H365.021V625.6H403.812V564.451Z" fill="#B1B5BA"/>
<path d="M384.422 556.794C389.494 556.794 394.36 554.8 397.956 551.249C401.552 547.697 403.587 542.877 403.617 537.84H365.326C365.326 540.329 365.819 542.795 366.78 545.095C367.739 547.395 369.146 549.485 370.92 551.246C372.692 553.006 374.798 554.401 377.115 555.354C379.432 556.305 381.914 556.795 384.422 556.794Z" fill="#E63946"/>
<path d="M535.292 331.16H428.619V484.704H535.292V331.16Z" fill="#E1E1E1"/>
<path d="M529.44 331.16H422.768V484.704H529.44V331.16Z" fill="white"/>
<path d="M516.466 347.328H436.024V467.704H516.466V347.328Z" fill="#DBDBDB"/>
<path d="M462.831 415.119C461.003 415.119 459.215 414.58 457.696 413.572C456.175 412.564 454.99 411.13 454.291 409.452C453.591 407.775 453.408 405.93 453.764 404.149C454.121 402.368 455.002 400.731 456.294 399.448C457.587 398.164 459.235 397.29 461.028 396.935C462.82 396.581 464.68 396.764 466.368 397.458C468.057 398.152 469.501 399.33 470.516 400.839C471.532 402.348 472.075 404.124 472.075 405.939C472.071 408.374 471.097 410.706 469.363 412.427C467.631 414.148 465.281 415.116 462.831 415.119Z" fill="#E63946"/>
<g opacity="0.2">
<g opacity="0.2">
<g opacity="0.2">
<g opacity="0.2">
<path opacity="0.2" d="M489.671 369.673H462.831V445.37H489.671V369.673Z" fill="black"/>
</g>
</g>
</g>
</g>
<path d="M1429.78 808.271H1206.14V996.71H1402.39L1429.78 808.271Z" fill="#DADDDF"/>
<path d="M1214.91 982.368H1404.48L1404.66 981.05H1216.33V836.082H1425.75L1425.95 834.656L1214.91 834.505V982.368Z" fill="#B2B6BB"/>
<path d="M1430.22 805.28H1199.13C1198.34 805.28 1197.57 805.595 1197 806.156C1196.44 806.717 1196.12 807.478 1196.12 808.272C1196.12 809.065 1196.44 809.826 1197 810.387C1197.57 810.948 1198.34 811.263 1199.13 811.263H1429.35L1430.22 805.28Z" fill="#DADDDF"/>
<path d="M1415.61 907.459H1214.96V908.863H1415.61V907.459Z" fill="#B2B6BB"/>
<path d="M1336.51 861.44C1337.43 861.44 1338.35 861.167 1339.12 860.654C1339.89 860.141 1340.49 859.412 1340.85 858.56C1341.21 857.707 1341.29 856.769 1341.12 855.864C1340.93 854.959 1340.49 854.127 1339.82 853.475C1339.17 852.823 1338.33 852.379 1337.42 852.198C1336.51 852.018 1335.57 852.111 1334.71 852.464C1333.85 852.817 1333.11 853.415 1332.6 854.182C1332.08 854.949 1331.81 855.851 1331.81 856.774C1331.81 858.012 1332.3 859.198 1333.18 860.074C1334.06 860.949 1335.26 861.44 1336.51 861.44Z" fill="#B2B6BB"/>
<g opacity="0.15">
<g opacity="0.15">
<path opacity="0.15" d="M1338.28 856.764C1338.27 855.792 1337.96 854.845 1337.39 854.057C1336.81 853.269 1336.01 852.678 1335.08 852.368C1335.56 852.188 1336.07 852.096 1336.59 852.098C1337.83 852.098 1339.03 852.589 1339.91 853.464C1340.79 854.339 1341.29 855.526 1341.29 856.764C1341.29 858.001 1340.79 859.187 1339.91 860.063C1339.03 860.938 1337.83 861.429 1336.59 861.429C1336.08 861.435 1335.56 861.347 1335.08 861.17C1336.01 860.844 1336.8 860.248 1337.37 859.461C1337.94 858.674 1338.26 857.733 1338.28 856.764Z" fill="black"/>
</g>
</g>
<path d="M1336.51 934.135C1337.43 934.135 1338.35 933.862 1339.12 933.349C1339.89 932.836 1340.49 932.108 1340.85 931.254C1341.21 930.402 1341.29 929.464 1341.12 928.559C1340.93 927.654 1340.49 926.822 1339.82 926.17C1339.17 925.517 1338.33 925.074 1337.42 924.893C1336.51 924.713 1335.57 924.806 1334.71 925.159C1333.85 925.512 1333.11 926.109 1332.6 926.877C1332.08 927.644 1331.81 928.547 1331.81 929.469C1331.81 930.706 1332.31 931.891 1333.19 932.765C1334.07 933.639 1335.26 934.132 1336.51 934.135Z" fill="#B2B6BB"/>
<g opacity="0.15">
<g opacity="0.15">
<path opacity="0.15" d="M1338.28 929.48C1338.28 928.506 1337.96 927.558 1337.39 926.767C1336.82 925.977 1336.01 925.385 1335.08 925.074C1335.56 924.897 1336.08 924.809 1336.59 924.814C1337.21 924.814 1337.82 924.935 1338.39 925.17C1338.97 925.404 1339.48 925.748 1339.91 926.181C1340.36 926.614 1340.69 927.129 1340.93 927.695C1341.17 928.261 1341.29 928.868 1341.29 929.48C1341.29 930.092 1341.17 930.699 1340.93 931.265C1340.69 931.831 1340.36 932.345 1339.91 932.779C1339.48 933.213 1338.97 933.556 1338.39 933.79C1337.82 934.025 1337.21 934.146 1336.59 934.146C1336.07 934.153 1335.56 934.061 1335.08 933.876C1336.02 933.572 1336.82 932.984 1337.4 932.194C1337.98 931.405 1338.28 930.454 1338.28 929.48Z" fill="black"/>
</g>
</g>
<path d="M1429.35 811.263H1206.14V814.168L1428.53 816.944L1429.35 811.263Z" fill="#B2B6BB"/>
<path d="M1212.89 996.796H1227.79L1214.04 1050.58C1213.84 1051.17 1213.45 1051.68 1212.92 1052.05C1212.41 1052.41 1211.79 1052.6 1211.16 1052.6C1210.71 1052.6 1210.25 1052.49 1209.84 1052.3C1209.43 1052.1 1209.06 1051.81 1208.78 1051.46C1208.49 1051.11 1208.28 1050.7 1208.17 1050.26C1208.06 1049.81 1208.06 1049.35 1208.15 1048.91L1212.89 996.796Z" fill="#DADDDF"/>
<path d="M1220.95 1002.52L1212.58 1000.79L1212.94 996.796H1227.83L1214.56 1048.71C1213.74 1051.65 1212.96 1052.6 1211.16 1052.6L1220.95 1002.52Z" fill="#B2B6BB"/>
<path d="M1270.47 996.796L1265.69 1048.91C1265.6 1049.35 1265.6 1049.81 1265.71 1050.26C1265.82 1050.7 1266.03 1051.11 1266.32 1051.46C1266.6 1051.81 1266.97 1052.1 1267.39 1052.3C1267.79 1052.49 1268.25 1052.6 1268.7 1052.6C1269.34 1052.61 1269.96 1052.42 1270.5 1052.06C1271.02 1051.69 1271.41 1051.17 1271.63 1050.58L1285.36 996.796H1270.47Z" fill="#DADDDF"/>
<path d="M1273.05 1024.52L1268 1023.29L1270.39 996.796H1285.36L1271.63 1050.58C1271.41 1051.17 1271.02 1051.69 1270.5 1052.06C1269.96 1052.42 1269.34 1052.61 1268.7 1052.6H1268.53L1273.05 1024.52Z" fill="#B2B6BB"/>
<path d="M1359 786.261H1287.66V804.783H1359C1361.41 804.701 1363.71 803.69 1365.39 801.962C1367.07 800.234 1368.01 797.925 1368.01 795.522C1368.01 793.119 1367.07 790.81 1365.39 789.083C1363.71 787.355 1361.41 786.343 1359 786.261Z" fill="#E63946"/>
<path opacity="0.2" d="M1359 786.261H1287.66V804.783H1359C1361.41 804.701 1363.71 803.69 1365.39 801.962C1367.07 800.234 1368.01 797.925 1368.01 795.522C1368.01 793.119 1367.07 790.81 1365.39 789.083C1363.71 787.355 1361.41 786.343 1359 786.261Z" fill="white"/>
<path d="M1293.61 804.783H1257.52V802.137H1268.7V789.004H1257.52V786.261H1293.61C1296.02 786.343 1298.31 787.355 1300 789.083C1301.67 790.81 1302.62 793.119 1302.62 795.522C1302.62 797.925 1301.67 800.234 1300 801.962C1298.31 803.69 1296.02 804.701 1293.61 804.783Z" fill="#E63946"/>
<path d="M1260.19 802.04H1293.5C1295.24 802.04 1296.91 801.353 1298.14 800.131C1299.37 798.909 1300.07 797.251 1300.07 795.522C1300.07 793.793 1299.37 792.135 1298.14 790.914C1296.91 789.691 1295.24 789.004 1293.5 789.004H1260.19V802.04Z" fill="white"/>
<path d="M1369.65 772.005H1310.12V786.261H1369.68C1370 786.262 1370.32 786.201 1370.62 786.079C1370.92 785.955 1371.19 785.776 1371.42 785.549C1371.64 785.323 1371.83 785.053 1371.95 784.756C1372.07 784.46 1372.13 784.141 1372.13 783.82V774.457C1372.13 773.809 1371.87 773.188 1371.42 772.729C1371.19 772.499 1370.92 772.317 1370.62 772.193C1370.32 772.069 1370 772.005 1369.68 772.005" fill="#E63946"/>
<path opacity="0.2" d="M1335.83 776.79H1356.33C1356.62 776.806 1356.87 776.928 1357.06 777.128C1357.25 777.328 1357.36 777.594 1357.36 777.87V781.012C1357.36 781.281 1357.25 781.54 1357.06 781.731C1356.87 781.921 1356.6 782.028 1356.33 782.028H1335.83C1335.56 782.029 1335.29 781.923 1335.08 781.735C1334.89 781.546 1334.77 781.288 1334.75 781.012V777.87C1334.75 777.583 1334.87 777.309 1335.06 777.106C1335.27 776.903 1335.55 776.79 1335.83 776.79Z" fill="black"/>
<path d="M1287.05 786.261H1319.43C1319.76 786.262 1320.08 786.201 1320.38 786.079C1320.67 785.955 1320.95 785.776 1321.17 785.549C1321.4 785.323 1321.59 785.053 1321.71 784.756C1321.83 784.46 1321.89 784.141 1321.89 783.82V774.457C1321.89 773.809 1321.63 773.188 1321.17 772.729C1320.95 772.499 1320.67 772.317 1320.38 772.193C1320.08 772.069 1319.76 772.005 1319.43 772.005H1287.05V786.261Z" fill="#E63946"/>
<path opacity="0.2" d="M1287.05 786.261H1319.43C1319.76 786.262 1320.08 786.201 1320.38 786.079C1320.67 785.955 1320.95 785.776 1321.17 785.549C1321.4 785.323 1321.59 785.053 1321.71 784.756C1321.83 784.46 1321.89 784.141 1321.89 783.82V774.457C1321.89 773.809 1321.63 773.188 1321.17 772.729C1320.95 772.499 1320.67 772.317 1320.38 772.193C1320.08 772.069 1319.76 772.005 1319.43 772.005H1287.05V786.261Z" fill="black"/>
<path d="M1287.05 784.123H1318.51C1318.84 784.121 1319.15 783.993 1319.38 783.766C1319.61 783.536 1319.74 783.226 1319.74 782.902V775.267C1319.74 774.943 1319.61 774.633 1319.38 774.403C1319.15 774.176 1318.84 774.049 1318.51 774.046H1287.05V784.123Z" fill="white"/>
<path d="M1268.7 772.005H1339.11V757.76H1268.7C1268.26 757.757 1267.82 757.842 1267.41 758.01C1266.99 758.178 1266.63 758.425 1266.31 758.738C1265.99 759.05 1265.74 759.421 1265.57 759.83C1265.41 760.239 1265.32 760.677 1265.32 761.119V768.754C1265.33 769.189 1265.42 769.616 1265.59 770.013C1265.78 770.41 1266.03 770.768 1266.34 771.066C1266.97 771.675 1267.82 772.013 1268.7 772.005Z" fill="#E63946"/>
<path opacity="0.3" d="M1268.7 772.005H1339.11V757.76H1268.7C1268.26 757.757 1267.82 757.842 1267.41 758.01C1266.99 758.178 1266.63 758.425 1266.31 758.738C1265.99 759.05 1265.74 759.421 1265.57 759.83C1265.41 760.239 1265.32 760.677 1265.32 761.119V768.754C1265.33 769.189 1265.42 769.616 1265.59 770.013C1265.78 770.41 1266.03 770.768 1266.34 771.066C1266.97 771.675 1267.82 772.013 1268.7 772.005Z" fill="white"/>
<path d="M1363.2 759.92H1330.79C1330.46 759.921 1330.15 760.048 1329.92 760.276C1329.8 760.389 1329.71 760.523 1329.65 760.672C1329.58 760.82 1329.56 760.979 1329.56 761.14V768.776C1329.56 768.937 1329.58 769.097 1329.65 769.245C1329.71 769.394 1329.8 769.528 1329.92 769.64C1330.15 769.868 1330.46 769.995 1330.79 769.996H1363.17L1363.2 759.92Z" fill="white"/>
<path d="M1329.89 757.76H1365.59V759.92H1330.79C1330.64 759.889 1330.47 759.889 1330.32 759.92C1330.18 759.971 1330.04 760.052 1329.93 760.158C1329.8 760.256 1329.7 760.387 1329.65 760.536C1329.59 760.68 1329.56 760.834 1329.56 760.989V768.722C1329.56 768.878 1329.59 769.031 1329.65 769.176C1329.71 769.32 1329.81 769.45 1329.93 769.554C1330.04 769.657 1330.18 769.738 1330.32 769.791C1330.47 769.824 1330.64 769.824 1330.79 769.791H1365.59V771.951H1329.92C1329.59 771.953 1329.28 771.892 1328.97 771.77C1328.68 771.647 1328.41 771.466 1328.18 771.238C1327.72 770.779 1327.46 770.158 1327.46 769.51V760.147C1327.46 759.826 1327.53 759.507 1327.64 759.212C1327.76 758.915 1327.95 758.645 1328.18 758.418C1328.41 758.191 1328.68 758.011 1328.97 757.889C1329.28 757.767 1329.59 757.705 1329.92 757.706" fill="#E63946"/>
<path opacity="0.2" d="M1329.89 757.76H1365.59V759.92H1330.79C1330.64 759.889 1330.47 759.889 1330.32 759.92C1330.18 759.971 1330.04 760.052 1329.93 760.158C1329.8 760.256 1329.7 760.387 1329.65 760.536C1329.59 760.68 1329.56 760.834 1329.56 760.989V768.722C1329.56 768.878 1329.59 769.031 1329.65 769.176C1329.71 769.32 1329.81 769.45 1329.93 769.554C1330.04 769.657 1330.18 769.738 1330.32 769.791C1330.47 769.824 1330.64 769.824 1330.79 769.791H1365.59V771.951H1329.92C1329.59 771.953 1329.28 771.892 1328.97 771.77C1328.68 771.647 1328.41 771.466 1328.18 771.238C1327.72 770.779 1327.46 770.158 1327.46 769.51V760.147C1327.46 759.826 1327.53 759.507 1327.64 759.212C1327.76 758.915 1327.95 758.645 1328.18 758.418C1328.41 758.191 1328.68 758.011 1328.97 757.889C1329.28 757.767 1329.59 757.705 1329.92 757.706" fill="black"/>
<g opacity="0.1">
<path opacity="0.1" d="M913.01 467.622L658.27 467C656.55 466.995 655.16 468.38 655.16 470.092L654.6 699.841C654.59 701.554 655.98 702.945 657.69 702.949L912.43 703.571C914.14 703.576 915.53 702.191 915.54 700.479L916.1 470.73C916.1 469.018 914.72 467.626 913.01 467.622Z" fill="black"/>
</g>
<path d="M907.4 467.628L652.67 467.006C650.95 467.001 649.56 468.386 649.56 470.098L649 699.847C648.99 701.559 650.38 702.951 652.09 702.955L906.83 703.577C908.54 703.581 909.93 702.197 909.94 700.485L910.5 470.736C910.5 469.024 909.12 467.632 907.4 467.628Z" fill="white"/>
<path d="M898.81 480.338H660.83V662.928H898.81V480.338Z" fill="#E63946"/>
<path opacity="0.7" d="M898.81 480.338H660.83V662.928H898.81V480.338Z" fill="white"/>
<path d="M662.09 662.918L744.74 543.168L795.98 618.058L830.71 578.008L898.82 662.858L662.09 662.918Z" fill="#E63946"/>
<path d="M811.42 526.878C811.42 536.048 804.49 543.488 795.93 543.488C787.37 543.488 780.43 536.058 780.43 526.888C780.43 517.718 787.36 510.288 795.92 510.288C804.48 510.288 811.42 517.708 811.42 526.878Z" fill="#E63946"/>
<path opacity="0.1" d="M802.57 511.898C804.43 513.513 805.91 515.511 806.92 517.756C807.93 520 808.44 522.437 808.42 524.898C808.42 534.068 801.49 541.508 792.93 541.508C790.62 541.504 788.34 540.948 786.28 539.888C788.96 542.211 792.38 543.496 795.93 543.508C804.49 543.508 811.42 536.068 811.42 526.898C811.47 523.826 810.67 520.799 809.11 518.152C807.55 515.506 805.28 513.342 802.57 511.898Z" fill="black"/>
<path opacity="0.1" d="M831.16 577.808L873.76 662.957L898.38 662.767L831.16 577.808Z" fill="black"/>
<path opacity="0.1" d="M744.34 544.268L779.82 639.499L795.69 618.958L744.34 544.268Z" fill="black"/>
</g>
<defs>
<clipPath id="clip0_506_1327">
<rect width="1598" height="1199" fill="white"/>
</clipPath>
</defs>
</svg>
