<svg width="1626" height="958" viewBox="0 0 1626 958" fill="none" xmlns="http://www.w3.org/2000/svg">
<g clip-path="url(#clip0_502_44)">
<path d="M1616.43 257.9H1611.31V130.671C1611.31 121.001 1609.21 111.426 1605.13 102.492C1601.04 93.558 1595.06 85.4404 1587.52 78.6026C1579.98 71.7649 1571.03 66.3409 1561.17 62.6403C1551.32 58.9397 1540.76 57.0351 1530.1 57.0351H1232.82C1222.16 57.0351 1211.6 58.9397 1201.75 62.6403C1191.89 66.3408 1182.94 71.7649 1175.4 78.6026C1167.86 85.4404 1161.88 93.558 1157.8 102.492C1153.71 111.426 1151.61 121.001 1151.61 130.671V828.656C1151.61 838.327 1153.71 847.902 1157.8 856.836C1161.88 865.77 1167.86 873.888 1175.4 880.725C1182.94 887.563 1191.89 892.987 1201.75 896.688C1211.6 900.388 1222.16 902.293 1232.82 902.293H1530.1C1540.76 902.293 1551.32 900.388 1561.17 896.688C1571.03 892.987 1579.98 887.563 1587.52 880.725C1595.06 873.887 1601.04 865.77 1605.13 856.836C1609.21 847.902 1611.31 838.327 1611.31 828.656V348.463H1616.43V257.9Z" fill="#3F3D56"/>
<path d="M1594.01 134.999V831.966C1594.02 846.551 1587.63 860.54 1576.26 870.855C1564.89 881.169 1549.46 886.966 1533.38 886.968H1234.67C1218.58 886.966 1203.16 881.169 1191.79 870.855C1180.41 860.54 1174.03 846.551 1174.03 831.966V134.999C1174.03 120.418 1180.42 106.434 1191.79 96.1226C1203.16 85.8117 1218.59 80.0184 1234.67 80.0169H1270.91C1269.12 83.9836 1268.44 88.2872 1268.93 92.5485C1269.41 96.8098 1271.04 100.898 1273.68 104.453C1276.31 108.008 1279.87 110.921 1284.04 112.935C1288.21 114.949 1292.86 116.002 1297.59 116.002H1467.89C1472.62 116.002 1477.27 114.949 1481.44 112.935C1485.61 110.921 1489.17 108.008 1491.8 104.453C1494.44 100.898 1496.07 96.8098 1496.55 92.5485C1497.04 88.2872 1496.36 83.9836 1494.57 80.0169H1533.38C1549.46 80.0184 1564.88 85.8117 1576.25 96.1226C1587.62 106.434 1594.01 120.418 1594.01 134.999Z" fill="#E63946"/>
<path d="M1428.51 539.568H1339.53V563.478H1428.51V539.568Z" fill="#3F3D56"/>
<path d="M1536.09 353.41H1231.95V363.657H1536.09V353.41Z" fill="#3F3D56"/>
<path d="M1536.09 385.86H1231.95V396.107H1536.09V385.86Z" fill="#3F3D56"/>
<path d="M1536.09 418.309H1231.95V428.556H1536.09V418.309Z" fill="#3F3D56"/>
<path d="M1536.09 450.759H1231.95V461.006H1536.09V450.759Z" fill="#3F3D56"/>
<path d="M1536.09 483.208H1231.95V493.455H1536.09V483.208Z" fill="#3F3D56"/>
<path d="M1394.65 217.328H1341.91V265.148H1394.65V217.328Z" fill="#F2F2F2"/>
<path d="M1362.1 229.286V287.354H1426.14V229.286H1362.1ZM1423.36 284.835H1364.87V231.805H1423.36V284.835Z" fill="#3F3D56"/>
<path opacity="0.1" d="M1594.01 757.537V831.966C1594.02 846.551 1587.63 860.54 1576.26 870.855C1564.89 881.169 1549.46 886.966 1533.38 886.968H1234.67C1218.58 886.966 1203.16 881.169 1191.79 870.855C1180.41 860.54 1174.03 846.551 1174.03 831.966V456.675L1425.69 636.95L1429.99 640.035L1476.81 673.559L1481.18 676.703L1594.01 757.537Z" fill="black"/>
<path d="M1358.18 864.381C1410.35 864.381 1452.64 826.033 1452.64 778.729C1452.64 731.424 1410.35 693.076 1358.18 693.076C1306.01 693.076 1263.72 731.424 1263.72 778.729C1263.72 826.033 1306.01 864.381 1358.18 864.381Z" fill="#F2F2F2"/>
<path d="M1386.02 850.83C1362.6 850.83 1339.7 844.531 1320.23 832.732C1300.75 820.932 1285.57 804.16 1276.61 784.537C1267.64 764.915 1265.3 743.323 1269.87 722.491C1274.44 701.66 1285.72 682.526 1302.28 667.507C1318.84 652.489 1339.94 642.261 1362.92 638.117C1385.89 633.974 1409.7 636.1 1431.35 644.228C1452.99 652.356 1471.48 666.12 1484.5 683.78C1497.51 701.44 1504.46 722.202 1504.46 743.442C1504.42 771.913 1491.93 799.209 1469.73 819.341C1447.53 839.473 1417.42 850.797 1386.02 850.83ZM1386.02 639.959C1363.45 639.959 1341.39 646.028 1322.62 657.399C1303.85 668.77 1289.22 684.932 1280.58 703.841C1271.95 722.75 1269.69 743.557 1274.09 763.63C1278.49 783.704 1289.36 802.143 1305.32 816.615C1321.28 831.088 1341.62 840.943 1363.76 844.936C1385.9 848.929 1408.84 846.88 1429.7 839.048C1450.55 831.215 1468.38 817.951 1480.92 800.934C1493.46 783.916 1500.15 763.909 1500.15 743.442C1500.12 716.006 1488.08 689.703 1466.69 670.302C1445.29 650.902 1416.28 639.99 1386.02 639.959Z" fill="#3F3D56"/>
</g>
<defs>
<clipPath id="clip0_502_44">
<rect width="1626" height="958" fill="white"/>
</clipPath>
</defs>
</svg>
