<svg width="1598" height="1199" viewBox="0 0 1598 1199" fill="none" xmlns="http://www.w3.org/2000/svg">
<g clip-path="url(#clip0_506_3130)">
<path d="M1318.3 1025.7L1403.11 575.781C1405.55 562.811 1403.34 549.401 1396.86 537.901L1227.02 236.701C1217.82 220.391 1201.09 209.761 1182.42 208.361L484.31 156.161C466.18 154.801 448.52 162.341 436.94 176.361L161.84 509.671C151.12 522.661 146.81 539.781 150.12 556.301L244 1025.7H1318.3Z" fill="#F2F2F2"/>
<path d="M668.65 710.311H859V761.811L668.7 762.611L668.65 710.311Z" fill="#ACB0B5"/>
<path d="M788.3 694.949H948.8C953 694.949 956.5 698.349 956.5 702.649C956.5 706.949 953.1 710.349 948.8 710.349H788.3" fill="#80848B"/>
<path d="M451.051 710.639H443.181V1025.57H451.051V710.639Z" fill="#ACB0B5"/>
<path d="M534.26 717.969H451.05V1025.3H534.26V717.969Z" fill="#61656D"/>
<path d="M534.26 710.639H451.05V1025.57H534.26V710.639Z" fill="#80848B"/>
<path d="M788.3 694.949H948.8C953 694.949 956.5 698.349 956.5 702.649C956.5 706.949 953.1 710.349 948.8 710.349H788.3" fill="#61656D"/>
<path d="M433.07 694.99H875.99C880.22 694.99 883.65 698.42 883.65 702.65C883.65 706.88 880.22 710.31 875.99 710.31H433.07C428.84 710.31 425.41 706.88 425.41 702.65C425.41 698.42 428.84 694.99 433.07 694.99Z" fill="#ACB0B5"/>
<path opacity="0.5" d="M950.03 710.309H668.65V712.919H950.03V710.309Z" fill="black"/>
<path opacity="0.5" d="M534.261 717.969H443.181V720.579H534.261V717.969Z" fill="black"/>
<path opacity="0.5" d="M481.401 827.039H443.181V834.699H482.521L481.401 827.039Z" fill="black"/>
<path opacity="0.5" d="M534.26 827.039H515.6L514.54 834.699H534.26V827.039Z" fill="black"/>
<path d="M494.04 505.069L491 548.529C490.73 552.029 488.19 554.949 484.76 555.769L479.75 556.969L490.82 564.369C501.87 571.899 515.75 573.659 528.17 569.469C530.44 568.709 532.65 567.739 534.79 566.579L547.43 559.729L541.94 557.929C538.83 556.949 536.65 554.079 536.42 550.919L532.91 498.959L494.04 505.069Z" fill="#F59696"/>
<path opacity="0.15" d="M526.79 542.499C526.79 542.499 532.86 541.139 535.67 539.439L536.13 546.619L526.79 542.499Z" fill="black"/>
<path d="M525.17 542.079L523.11 542.199C508.23 542.799 495.77 531.309 495.17 516.559L493.6 478.939C493.36 473.979 497.23 469.869 502.19 469.629L537.39 468.059C543.8 467.819 549.24 472.779 549.49 479.189L550.94 514.149C551.42 528.899 539.93 541.479 525.17 542.079Z" fill="#F59696"/>
<path d="M550.43 504.818C550.43 504.818 553.72 509.568 554.95 512.768C556.18 515.968 550.41 516.068 550.41 516.068L550.43 504.818Z" fill="#F59696"/>
<path d="M546.55 495.1C548.15 495.1 549.45 496.4 549.45 498C549.45 499.6 548.15 500.9 546.55 500.9C544.95 500.9 543.65 499.6 543.65 498C543.65 496.4 544.94 495.1 546.55 495.1Z" fill="#21252B"/>
<path d="M547.76 496.789C548.09 496.789 548.36 497.059 548.36 497.389C548.36 497.719 548.09 497.989 547.76 497.989C547.43 497.989 547.16 497.719 547.16 497.389C547.16 497.059 547.42 496.789 547.76 496.789Z" fill="white"/>
<g opacity="0.15">
<g opacity="0.15">
<path opacity="0.15" d="M494 518.129H498.11L493.76 526.839L494 518.129Z" fill="black"/>
</g>
</g>
<path d="M553.93 494.609C551.88 491.099 547.64 488.679 543.04 489.049C536.63 489.529 531.79 495.219 532.28 501.629C532.76 508.039 538.45 512.879 544.86 512.389C551.27 511.909 556.11 506.219 555.62 499.809C555.5 498.479 555.19 497.249 554.65 496.059C554.49 495.689 554.14 494.959 553.93 494.609ZM544.98 510.819C539.42 511.299 534.58 507.069 534.09 501.509C533.61 495.949 537.84 491.109 543.4 490.619C548.96 490.139 553.8 494.369 554.29 499.929C554.66 505.499 550.42 510.459 544.98 510.819Z" fill="white"/>
<g opacity="0.15">
<g opacity="0.15">
<path opacity="0.15" d="M541.69 518.398C541.69 518.398 544.3 522.568 549.97 523.848" stroke="black" stroke-width="6" stroke-miterlimit="10"/>
</g>
</g>
<path d="M451.15 717.959H443.28V1025.3H451.15V717.959Z" fill="#ACB0B5"/>
<path d="M534.36 717.959H451.15V1025.29H534.36V717.959Z" fill="#61656D"/>
<path d="M534.36 717.959H451.15V1025.29H534.36V717.959Z" fill="#80848B"/>
<g opacity="0.5">
<g opacity="0.5">
<path opacity="0.5" d="M534.36 717.959H443.28V720.569H534.36V717.959Z" fill="black"/>
</g>
</g>
<path d="M548.9 624.34L571.14 649.77L603.67 626.63L573.04 576.43C564.83 564.41 556.72 556.17 542.17 555.95L490.37 555.17H469.09C451 555.17 436.33 569.84 436.33 587.93V739.45H563.28L563.1 690.45C563.09 688.54 563.81 686.7 565.14 685.32C570.97 679.24 579.69 672.17 574.39 653.45" fill="#E63946"/>
<path d="M523.481 496.589C523.481 496.589 514.951 524.389 529.221 540.129C537.421 549.179 543.601 541.769 556.741 559.919C556.741 559.919 543.821 561.199 537.511 566.819C526.141 576.949 506.951 631.589 470.501 632.939C434.051 634.289 418.161 625.179 417.511 611.339C415.711 572.859 452.221 567.329 454.441 541.609C455.801 525.749 446.741 460.779 490.231 445.489C531.291 431.049 555.241 454.039 554.821 462.369C554.401 470.679 555.841 482.379 523.481 496.589Z" fill="black"/>
<path d="M725.321 1023.29L710.491 1013.06V951.28L710.431 951.16C710.131 858.82 708.611 802.07 704.571 767.47C700.741 734.7 666.901 761.79 657.431 757.34C651.751 754.67 647.981 744.04 636.621 743.48C616.621 742.5 610.041 727.93 610.041 727.93L600.641 791.7L652.371 794C650.951 847.48 672.821 887.25 682.861 943.44C677.351 946.95 673.271 953.53 673.271 963.42C697.631 971.52 694.981 1016.05 694.981 1016.05L725.321 1023.29Z" fill="#F59696"/>
<g opacity="0.2">
<g opacity="0.2">
<path opacity="0.2" d="M674.769 757.34C678.949 759.3 687.879 755.12 696.869 752.66C690.089 748.95 680.169 752.32 671.689 755.1C672.689 756.05 673.689 756.84 674.769 757.34Z" fill="black"/>
<path opacity="0.2" d="M652.371 794.009C650.951 847.489 672.811 887.259 682.851 943.449C677.341 946.959 673.261 953.539 673.261 963.429C697.621 971.529 694.971 1016.06 694.971 1016.06L725.311 1023.3L710.481 1013.07V974.599H710.491C705.611 967.869 699.061 950.069 697.881 943.449C687.841 887.259 665.901 847.659 667.311 794.189L617.111 792.639L626.831 740.429C615.591 733.239 608.571 727.939 608.571 727.939L600.641 791.709" fill="black"/>
</g>
</g>
<path d="M724.401 1025.57H699.201C695.691 1025.57 692.721 1022.99 692.221 1019.52C690.421 1007.09 685.161 978.719 673.271 964.879C673.271 964.879 669.661 950.489 682.861 944.889C682.861 944.889 696.071 953.619 691.811 979.669L699.141 1007.84C699.141 1007.84 717.001 1013.46 725.551 1023.03C726.421 1024.01 725.721 1025.57 724.401 1025.57Z" fill="#E63946"/>
<path d="M673.27 963.43L670.55 1025.57H673.09L679.89 963.43H673.27Z" fill="#E63946"/>
<path d="M662.22 1023.29L647.39 1013.06V951.28L647.33 951.16C647.03 858.82 645.51 802.07 641.47 767.47C637.64 734.7 603.8 761.79 594.33 757.34C588.65 754.67 584.88 744.04 573.52 743.48C553.52 742.5 522.79 728.85 522.79 728.85L511.04 797.93L589.27 799.73C587.85 853.21 609.72 887.25 619.76 943.44C614.25 946.95 610.17 953.53 610.17 963.42C634.53 971.52 631.88 1016.05 631.88 1016.05L662.22 1023.29Z" fill="#F59696"/>
<g opacity="0.2">
<g opacity="0.2">
<path opacity="0.2" d="M611.66 757.34C615.84 759.3 624.77 755.12 633.76 752.66C626.98 748.95 617.06 752.32 608.58 755.1C609.58 756.05 610.59 756.84 611.66 757.34Z" fill="black"/>
<path opacity="0.2" d="M647.39 974.589C642.51 967.859 635.96 950.059 634.78 943.439C624.74 887.249 605.19 853.199 606.6 799.729L528.37 797.929L538.15 740.419C526.91 733.229 522.79 728.859 522.79 728.859L511.04 797.939L589.27 799.739C587.85 853.219 609.72 887.259 619.76 943.449C614.25 946.959 610.17 953.539 610.17 963.429C634.53 971.529 631.88 1016.06 631.88 1016.06L662.22 1023.3L647.39 1013.07V974.589Z" fill="black"/>
</g>
</g>
<path d="M661.3 1025.57H636.1C632.59 1025.57 629.62 1022.99 629.12 1019.52C627.32 1007.09 622.06 978.719 610.17 964.879C610.17 964.879 606.56 950.489 619.76 944.889C619.76 944.889 632.97 953.619 628.71 979.669L636.04 1007.84C636.04 1007.84 653.9 1013.46 662.45 1023.03C663.32 1024.01 662.61 1025.57 661.3 1025.57Z" fill="#E63946"/>
<path d="M610.16 963.43L607.521 1025.57H610.05L616.781 963.43H610.16Z" fill="#E63946"/>
<path d="M617.4 931.7C605.74 881.25 586.46 844.12 588.69 792.33L481.88 791.46C466.2 791.33 453.51 778.69 453.31 763.02L452.76 720.18C452.76 720.18 543.13 719.2 563.13 720.18C574.49 720.74 588.64 749.92 594.32 752.59C603.79 757.04 637.63 729.95 641.46 762.72C645.28 795.44 646.84 847.97 647.26 931.69L617.4 931.7Z" fill="#3F4249"/>
<g opacity="0.4">
<path opacity="0.2" d="M630.86 931.66C620.34 879.56 601.37 850.94 602.72 799.72L524.49 797.92L535.38 733.9C527.93 731.13 522.78 728.85 522.78 728.85L511.03 797.93L589.26 799.73C587.9 850.95 606.89 879.59 617.41 931.7L630.86 931.66Z" fill="black"/>
</g>
<path d="M708.42 817.109L707.29 751.75C706.98 733.98 692.5 719.72 674.72 719.7L490.29 719.52L491.35 764.33C491.72 779.84 504.3 792.28 519.82 792.46L652.37 794.01C651.23 844.81 667.89 874.869 680.21 929.979H710.38C710.14 883.329 709.55 846.359 708.42 817.109Z" fill="#3F4249"/>
<path opacity="0.2" d="M696.48 930.149C686.02 878.309 666.17 844.979 667.31 794.179L500.52 792.309C479.78 791.929 463.16 775.009 463.16 754.269V719.699L453.31 719.689L452.04 752.769C452.04 773.509 460.52 792.309 485.57 792.309L652.36 794.179C651.22 844.979 669.74 878.139 680.21 929.979L710.37 930.149H696.48Z" fill="black"/>
<path d="M563.16 719.589C563.16 719.589 544.94 722.599 517.94 733.289C487.79 745.229 455.16 733.609 455.16 733.609V701.799L563.16 719.589Z" fill="#E63946"/>
<path d="M434.24 588.219C434.24 588.219 451.88 611.429 500.03 608.769L486.19 579.709L434.24 588.219Z" fill="black"/>
<path d="M343.46 1025.57L382.18 822.65C382.93 817.59 380.54 814.37 385.65 814.37H470.18C475.29 814.37 480.25 818.64 481 823.7L510.55 1025.29H521.41L493.53 822.61C492.25 814.01 480.98 807.01 472.28 807.01H383.55C374.85 807.01 366.74 814.01 365.45 822.61L325.5 1025.57H343.46Z" fill="#ACB0B5"/>
<g opacity="0.5">
<g opacity="0.5">
<path opacity="0.5" d="M371.681 811.629H391.221V814.359H385.661C380.721 814.359 382.781 817.369 382.251 822.129H365.561C366.301 818.049 368.561 814.349 371.681 811.629Z" fill="black"/>
</g>
</g>
<path d="M343.681 1024.12H337.061L376.461 820.419C377.821 813.369 384.781 807.629 391.961 807.629H482.791C490.041 807.629 496.791 813.459 497.851 820.639L527.991 1025.3H521.421L491.791 821.529C491.171 817.319 487.051 813.759 482.791 813.759H391.961C387.641 813.759 383.291 817.349 382.471 821.589L343.681 1024.12Z" fill="#ACB0B5"/>
<g opacity="0.5">
<g opacity="0.5">
<path opacity="0.5" d="M343.46 1025.57H336.76L376.45 820.419C377.81 813.369 384.77 807.629 391.95 807.629H482.78C490.03 807.629 496.78 813.459 497.84 820.639L527.98 1025.3H521.41L491.78 821.529C491.16 817.319 487.04 813.759 482.78 813.759H391.95C387.63 813.759 383.28 817.349 382.46 821.589L343.46 1025.57Z" fill="black"/>
</g>
</g>
<path d="M354.93 813.479C338.22 812.369 351.2 774.839 348.69 759.809L348.19 756.789L354.23 755.779L354.73 758.799C358.45 781.099 347.34 807.359 354.93 807.359C358.48 807.359 363.64 807.189 370.79 806.969C389.53 806.369 420.9 805.359 477.37 805.359H480.43V811.479H477.37C420.99 811.479 389.69 812.479 370.98 813.079C363.78 813.309 358.58 813.479 354.93 813.479Z" fill="#ACB0B5"/>
<path d="M484.02 811.47H360.8C351.02 811.47 351.17 803.27 353.77 788.79C356.57 773.2 355.19 762.52 354.56 758.75L360.6 757.74C364.23 779.57 353.1 805.35 360.8 805.35H484.02V811.47Z" fill="#80848B"/>
<path d="M633.85 818.109C633.85 818.109 620.2 827.039 601.29 827.039H438.51C402.28 827.039 363.42 824.409 357.64 809.709C351.86 795.009 606.42 800.329 606.42 800.329C606.42 800.329 626.49 803.929 628.59 805.509C630.7 807.079 633.85 818.109 633.85 818.109Z" fill="#80848B"/>
<path d="M357.661 755.09L336.051 597.31C335.641 594.56 322.061 593.43 322.601 590.99C324.551 582.24 332.891 568.35 354.771 568.35H465.041C477.751 568.35 489.671 578.64 491.531 591.2C491.531 591.2 515.021 746.42 514.141 749.84C513.271 753.25 510.111 760.34 504.341 760.34C498.561 760.34 358.621 761.39 358.621 761.39L357.661 755.09Z" fill="#ACB0B5"/>
<path d="M495.221 812.849H365.341C359.251 812.849 354.311 807.909 354.311 801.829C354.311 795.739 359.251 790.799 365.341 790.799H495.221C501.311 790.799 506.251 795.739 506.251 801.829C506.251 807.919 501.311 812.849 495.221 812.849Z" fill="#ACB0B5"/>
<path d="M642.26 829.509C637.66 829.509 633.81 826.119 633.16 821.509C632.97 820.639 630.4 811.009 609.17 811.009H496.67C491.78 811.009 487.5 807.319 487.19 802.429C486.84 797.079 491.08 792.629 496.36 792.629H609.18C643.06 792.629 651.26 812.939 651.46 820.049C651.6 825.019 647.76 829.199 642.8 829.489C642.61 829.509 642.43 829.509 642.26 829.509ZM633.07 820.289C633.07 820.749 633.1 821.159 633.16 821.489C633.14 821.319 633.12 821.159 633.11 820.989C633.08 820.749 633.07 820.519 633.07 820.289Z" fill="#AFB3B8"/>
<g opacity="0.15">
<g opacity="0.15">
<path opacity="0.15" d="M642.26 829.509C637.66 829.509 633.81 826.119 633.16 821.509C632.97 820.639 630.4 811.009 609.17 811.009H505.16C500.27 811.009 495.99 807.319 495.68 802.429C495.33 797.079 499.57 792.629 504.85 792.629H609.18C643.06 792.629 651.26 812.939 651.46 820.049C651.6 825.019 647.76 829.199 642.8 829.489C642.61 829.509 642.43 829.509 642.26 829.509ZM633.07 820.289C633.07 820.749 633.1 821.159 633.16 821.489C633.14 821.319 633.12 821.159 633.11 820.989C633.08 820.749 633.07 820.519 633.07 820.289Z" fill="#80848B"/>
</g>
</g>
<path d="M624.311 811.469H502.041C497.991 811.469 495.001 808.05 495.061 804C495.231 790.79 499.961 783.87 495.661 758.08L493.931 756.78L501.081 755.77L501.581 758.789C505.861 784.439 495.281 805.349 502.011 805.349H624.311V811.469Z" fill="#ACB0B5"/>
<path d="M627.9 812.47H506.41C491.31 812.47 505.28 785.95 500.03 758.87L506.21 757.74C509.93 780.07 500.86 806.35 508.44 806.35H627.9V812.47Z" fill="#80848B"/>
<path d="M655.79 1025.57L626.2 814.509C625.6 810.299 621.5 806.749 617.25 806.749H526.42C522.17 806.749 518.07 810.309 517.47 814.509L488.05 1024.12H481.48L511.4 813.649C512.42 806.469 519.15 800.619 526.41 800.619H617.24C624.49 800.619 631.23 806.459 632.25 813.649L662.39 1025.6L655.79 1025.57Z" fill="#ACB0B5"/>
<path d="M487.891 1025.29L516.641 815.64C517.391 810.58 515.001 805.5 520.111 805.5L604.641 807.36C609.751 807.36 614.711 811.63 615.461 816.69L644.991 1025.57H655.791L627.981 815.61C626.701 807.01 615.121 800.33 606.421 800.33L518.011 800.01C509.311 800.01 501.201 807.01 499.911 815.61L470.141 1025.29H487.891Z" fill="#ACB0B5"/>
<g opacity="0.5">
<g opacity="0.5">
<path opacity="0.5" d="M655.79 1025.57L626.2 814.509C625.6 810.299 621.5 806.749 617.25 806.749H526.42C522.17 806.749 518.07 810.309 517.47 814.509L487.89 1025.29H481.3L511.4 813.649C512.42 806.469 519.15 800.619 526.41 800.619H617.24C624.49 800.619 631.23 806.459 632.25 813.649L662.39 1025.6L655.79 1025.57Z" fill="black"/>
</g>
</g>
<path d="M350.58 755.089L328.96 597.309C328.55 594.559 319.17 593.429 319.71 590.989C321.66 582.239 338.74 574.449 348.67 574.449H458.94C471.65 574.449 483.57 584.729 485.43 597.309L506.7 759.919L500.4 761.399H351.54L350.58 755.089Z" fill="#80848B"/>
<path d="M348.681 574.449H458.951C467.481 574.449 475.641 579.079 480.661 585.929C480.241 585.819 479.791 585.539 479.261 584.949C476.111 581.449 473.311 588.799 473.311 591.599C473.311 593.809 374.111 603.239 330.391 606.919L328.971 597.309C328.561 594.559 319.181 593.429 319.721 590.989C321.661 582.239 338.751 574.449 348.681 574.449Z" fill="#80848B"/>
<path d="M338.67 761.4L317.05 603.61C315.19 591.04 324.06 580.76 336.77 580.76H452.29C465 580.76 476.92 591.04 478.78 603.61L500.4 761.4C500.4 761.4 466.09 770.15 411.48 770.15C356.88 770.15 338.67 761.4 338.67 761.4Z" fill="#ACB0B5"/>
<g opacity="0.5">
<g opacity="0.5">
<path opacity="0.5" d="M500.701 812.469H359.221L361.391 814.749H500.071L500.701 812.469Z" fill="black"/>
</g>
</g>
<g opacity="0.5">
<g opacity="0.5">
<path opacity="0.5" d="M481.5 827.029H443.28V834.689H482.62L481.5 827.029Z" fill="black"/>
</g>
</g>
<g opacity="0.5">
<g opacity="0.5">
<path opacity="0.5" d="M534.361 827.029H515.701L514.641 834.689H534.361V827.029Z" fill="black"/>
</g>
</g>
<path d="M525.971 512.259C525.971 512.259 514.411 512.729 512.391 501.309C510.381 489.779 524.591 488.209 526.161 499.789L526.931 512.369L525.971 512.259Z" fill="#F59696"/>
<path opacity="0.15" d="M547.25 622.18L574.38 653.44C574.38 653.44 575.98 658.51 576 664.07L547.25 622.18Z" fill="black"/>
<path d="M520.67 507.799C520.82 506.549 521.96 505.659 523.21 505.809C524.46 505.959 525.35 507.099 525.2 508.349C525.05 509.599 523.91 510.489 522.66 510.339C521.41 510.189 520.52 509.049 520.67 507.799Z" fill="#E63946"/>
<g opacity="0.15">
<g opacity="0.15">
<path opacity="0.15" d="M516.17 495.419C517.47 494.589 518.59 494.399 519.66 494.629C520.73 494.869 521.62 495.629 522.34 496.919C523.06 498.209 523.53 499.799 523.44 501.429L523.41 502.629C523.41 503.509 521.85 503.759 521.87 502.659L521.81 501.339C521.86 500.909 521.68 498.799 520.94 497.619C520.4 496.679 519.8 496.169 519.17 495.979C518.54 495.789 517.74 496.029 516.8 496.569C516.45 496.749 516.02 496.699 515.73 496.329C515.66 496.009 515.82 495.589 516.17 495.419Z" fill="black"/>
</g>
</g>
<g opacity="0.15">
<g opacity="0.15">
<path opacity="0.15" d="M523.71 510.129C522.29 510.069 521.22 508.949 521.28 507.539C521.33 507.109 521.5 506.579 521.76 506.279C521.17 506.649 520.75 507.359 520.66 508.119C520.61 509.429 521.59 510.419 522.9 510.469C523.33 510.519 523.9 510.369 524.26 510.089C524.05 510.059 523.83 510.029 523.71 510.129Z" fill="black"/>
</g>
</g>
<path d="M643.78 690.41H725.03C725.69 690.41 726.27 690.99 726.27 691.65V693.71C726.27 694.37 725.69 694.95 725.03 694.95H643.78C643.12 694.95 642.54 694.37 642.54 693.71V691.65C642.54 690.98 643.04 690.41 643.78 690.41Z" fill="#21252B"/>
<g opacity="0.6">
<g opacity="0.6">
<path opacity="0.6" d="M643.78 690.41H725.03C725.69 690.41 726.27 690.99 726.27 691.65V693.71C726.27 694.37 725.69 694.95 725.03 694.95H643.78C643.12 694.95 642.54 694.37 642.54 693.71V691.65C642.54 690.98 643.04 690.41 643.78 690.41Z" fill="black"/>
</g>
</g>
<path d="M700.801 690.41H842.451C843.111 690.41 843.691 690.99 843.691 691.65V693.71C843.691 694.37 843.111 694.95 842.451 694.95H700.801C700.141 694.95 699.561 694.37 699.561 693.71V691.65C699.651 690.98 700.141 690.41 700.801 690.41Z" fill="#21252B"/>
<g opacity="0.6">
<g opacity="0.6">
<path opacity="0.6" d="M842.56 691.23H698.36C698.11 691.23 697.95 691.07 697.95 690.82C697.95 690.57 698.11 690.41 698.36 690.41H842.56C842.81 690.41 842.97 690.57 842.97 690.82C842.97 691.07 842.73 691.23 842.56 691.23Z" fill="black"/>
</g>
</g>
<path d="M701.29 690.409H838.32C839.97 690.409 841.37 689.259 841.7 687.609L859.58 593.589C859.99 591.449 858.34 589.549 856.2 589.549H719.26C717.61 589.549 716.21 590.699 715.88 592.349L698 686.369C697.59 688.509 699.15 690.409 701.29 690.409Z" fill="#21252B"/>
<path d="M704.42 688.02H836.23C837.8 688.02 839.13 686.92 839.45 685.35L856.49 595.77C856.88 593.73 855.31 591.92 853.27 591.92H721.54C719.97 591.92 718.64 593.02 718.32 594.59L701.28 684.17C700.89 686.22 702.38 688.02 704.42 688.02Z" fill="#E63946"/>
<path d="M705.441 665.599C708.641 664.249 715.831 659.329 714.871 656.299C714.871 656.299 718.091 653.759 717.101 652.329L712.571 654.239C712.571 654.239 718.991 650.079 717.861 646.349C717.861 646.349 718.531 645.079 717.841 644.299C717.151 643.519 713.841 645.879 711.371 647.369L706.601 649.289C704.521 650.129 702.221 650.239 700.061 649.609C699.021 649.299 696.991 648.429 697.231 647.369C697.751 645.069 700.671 641.129 699.161 635.929C699.161 635.929 697.491 634.949 696.191 637.289C694.541 640.249 691.221 643.549 690.021 645.699C689.331 646.929 688.241 648.749 687.461 650.209C686.481 652.059 682.531 654.359 682.531 654.359L638.751 679.149L603.671 626.619L571.141 649.759L624.621 710.389C629.041 715.399 636.621 716.019 641.791 711.799L694.011 667.409C694.011 667.419 701.231 667.379 705.441 665.599Z" fill="#FB9C9C"/>
<g opacity="0.15">
<path opacity="0.15" d="M709.39 652.18C709.23 652.18 709.09 652.08 709.04 651.93C708.97 651.73 709.08 651.52 709.27 651.45C713.72 649.94 717.55 646.11 717.59 646.07C717.74 645.92 717.97 645.92 718.12 646.07C718.27 646.22 718.27 646.449 718.12 646.599C717.96 646.759 714.13 650.599 709.51 652.159C709.47 652.179 709.43 652.18 709.39 652.18Z" fill="black"/>
</g>
<g opacity="0.15">
<path opacity="0.15" d="M710.64 658.479C710.47 658.479 710.31 658.359 710.27 658.189C710.23 657.989 710.35 657.789 710.55 657.739C712.23 657.369 714.65 655.989 714.68 655.969C714.86 655.859 715.09 655.929 715.19 656.109C715.29 656.289 715.23 656.519 715.05 656.619C714.95 656.679 712.5 658.069 710.71 658.469C710.69 658.479 710.66 658.479 710.64 658.479Z" fill="black"/>
</g>
<path d="M714.3 381.6H662.8V488.2H714.3V381.6Z" fill="white"/>
<path d="M779.8 490.1H716.5V586.2H779.8V490.1Z" fill="white"/>
<path d="M714.3 261.7V173.4L662.8 169.5V261.7H714.3Z" fill="white"/>
<path d="M714.3 263.6H662.8V373.9H714.3V263.6Z" fill="white"/>
<path d="M714.3 490.1H662.8V586.2H714.3V490.1Z" fill="white"/>
<path d="M1098.8 261.7V202.1L1038.7 197.6V261.7H1098.8Z" fill="white"/>
<path d="M967.7 261.7H1031V197.1L967.7 192.4V261.7Z" fill="white"/>
<path d="M965.5 261.7V192.2L914 188.4V261.8H965.5V261.7Z" fill="white"/>
<path d="M1101 261.701H1156.7V206.501L1101 202.301V261.701Z" fill="white"/>
<path d="M716.5 261.7H779.8V178.3L716.5 173.6V261.7Z" fill="white"/>
<path d="M849.8 261.7H905.5V187.7L849.8 183.5V261.7Z" fill="white"/>
<path d="M847.7 261.7V183.4L787.6 178.9V261.7H847.7Z" fill="white"/>
<path d="M905.5 490.1H849.8V586.2H905.5V490.1Z" fill="white"/>
<path d="M1031 263.6H967.7V373.9H1031V263.6Z" fill="white"/>
<path d="M1098.8 490.1H1038.7V586.2H1098.8V490.1Z" fill="white"/>
<path d="M1031 381.6H967.7V488.2H1031V381.6Z" fill="white"/>
<path d="M1098.8 381.6H1038.7V488.2H1098.8V381.6Z" fill="white"/>
<path d="M1156.7 381.6H1101V488.2H1156.7V381.6Z" fill="white"/>
<path d="M1098.8 263.6H1038.7V373.9H1098.8V263.6Z" fill="white"/>
<path d="M1156.7 263.6H1101V373.9H1156.7V263.6Z" fill="white"/>
<path d="M1031 490.1H967.7V586.2H1031V490.1Z" fill="white"/>
<path d="M1156.7 490.1H1101V586.2H1156.7V490.1Z" fill="white"/>
<path d="M965.5 381.6H914V488.2H965.5V381.6Z" fill="white"/>
<path d="M847.7 381.6H787.6V488.2H847.7V381.6Z" fill="white"/>
<path d="M847.7 263.6H787.6V373.9H847.7V263.6Z" fill="white"/>
<path d="M847.7 490.1H787.6V586.2H847.7V490.1Z" fill="white"/>
<path d="M779.8 263.6H716.5V373.9H779.8V263.6Z" fill="white"/>
<path d="M965.5 490.1H914V586.2H965.5V490.1Z" fill="white"/>
<path d="M779.8 381.6H716.5V488.2H779.8V381.6Z" fill="white"/>
<path d="M905.5 381.6H849.8V488.2H905.5V381.6Z" fill="white"/>
<path d="M965.5 263.6H914V373.9H965.5V263.6Z" fill="white"/>
<path d="M905.5 263.6H849.8V373.9H905.5V263.6Z" fill="white"/>
<path d="M1226.4 749.301L1228.5 799.401H1236.2L1233.9 749.301H1226.4Z" fill="#ACB0B5"/>
<path d="M1220.7 749.301L1222.8 799.401H1230.5L1228.1 749.301H1220.7Z" fill="#80848B"/>
<path d="M1085.6 749.301L1087.7 799.401H1095.4L1093.1 749.301H1085.6Z" fill="#ACB0B5"/>
<path d="M1079.8 749.301L1081.9 799.401H1089.6L1087.3 749.301H1079.8Z" fill="#80848B"/>
<path d="M1240.6 749.801C1248.7 748.101 1254.6 741.201 1255.3 733.001L1267.5 583.901C1268.8 568.501 1256.6 555.301 1241.2 555.301H1130.2C1116.8 555.301 1104.2 566.101 1102.3 579.401L1083.8 745.801C1083.8 745.801 1120 755.001 1177.6 755.001C1208.9 755.001 1228.9 752.301 1240.6 749.801Z" fill="#ACB0B5"/>
<path d="M1121.7 1025.5L1083.2 824C1082.4 818.9 1084.8 815.7 1079.7 815.7H1021.7C1016.6 815.7 1011.6 820 1010.9 825L981.4 1025.6H970.5L998.3 824C999.6 815.4 1010.8 808.4 1019.5 808.4H1081.7C1090.4 808.4 1098.5 815.4 1099.8 824L1139.4 1025.5H1121.7Z" fill="#ACB0B5"/>
<path opacity="0.5" d="M1093.7 813H1074.2V815.7H1079.8C1084.7 815.7 1082.7 818.7 1083.2 823.5H1099.9C1099.1 819.4 1096.8 815.7 1093.7 813Z" fill="black"/>
<path d="M1121.7 1025.5H1128.3L1088.9 821.8C1087.5 814.8 1080.6 809 1073.4 809H1009.1C1001.9 809 995.1 814.8 994 822L963.9 1025.7H970.5L1000.1 822.9C1000.7 818.7 1004.8 815.1 1009.1 815.1H1073.4C1077.7 815.1 1082.1 818.7 1082.9 822.9L1121.7 1025.5Z" fill="#ACB0B5"/>
<g opacity="0.5">
<path opacity="0.5" d="M1121.7 1025.5H1128.3L1088.9 821.8C1087.5 814.8 1080.6 809 1073.4 809H1009.1C1001.9 809 995.1 814.8 994 822L963.9 1025.7H970.5L1000.1 822.9C1000.7 818.7 1004.8 815.1 1009.1 815.1H1073.4C1077.7 815.1 1082.1 818.7 1082.9 822.9L1121.7 1025.5Z" fill="black"/>
</g>
<path d="M1086.2 1025.5L1115.7 815.9C1116.3 811.7 1120.4 808.1 1124.7 808.1H1215.5C1219.7 808.1 1223.8 811.7 1224.4 815.9L1253.8 1025.5H1260.4L1230.5 815C1229.5 807.8 1222.7 802 1215.5 802H1124.7C1117.5 802 1110.7 807.8 1109.7 815L1079.8 1025.5H1086.2Z" fill="#ACB0B5"/>
<path d="M1254 1026.7L1225.3 817C1224.5 811.9 1226.9 806.9 1221.8 806.9L1137.3 808.8C1132.2 808.8 1127.2 813.1 1126.5 818.1L1097.1 1025.5H1086.3L1114 817C1115.3 808.4 1126.9 801.7 1135.6 801.7L1224 801.4C1232.7 801.4 1240.8 808.4 1242.1 817L1271.9 1026.7H1254Z" fill="#ACB0B5"/>
<g opacity="0.5">
<path opacity="0.5" d="M1086.2 1025.5L1115.7 815.9C1116.3 811.7 1120.4 808.1 1124.7 808.1H1215.5C1219.7 808.1 1223.8 811.7 1224.4 815.9L1254 1026.7H1260.6L1230.5 815C1229.5 807.8 1222.7 802 1215.5 802H1124.7C1117.5 802 1110.7 807.8 1109.7 815L1079.8 1025.5H1086.2Z" fill="black"/>
</g>
<path d="M991.4 821.5C991.4 821.5 1004 831.9 1022.9 831.9C1041.8 831.9 1123 831.9 1159.2 831.9H1230.2C1237.5 831.9 1243.4 826 1243.4 818.7L1243.3 807.7C1249.1 793 1017.7 805.2 1017.7 805.2C1017.7 805.2 997.6 808.8 995.5 810.4C993.5 811.9 991.4 821.5 991.4 821.5Z" fill="#80848B"/>
<path d="M1123.1 816.101H1235C1237.6 816.101 1240.2 814.801 1241.6 812.601C1246.4 805.101 1241.1 797.301 1234 797.301H1123.4C1118.4 797.301 1114 801.101 1113.7 806.101C1113.4 811.501 1117.7 816.101 1123.1 816.101Z" fill="#ACB0B5"/>
<path d="M1174.1 797.301H1015C1001.7 797.301 992.3 800.401 985.8 804.701C980.6 808.101 980.5 815.801 985.7 819.301C985.9 819.501 986.2 819.601 986.4 819.801C989.3 821.801 993.2 821.801 996.2 819.901C999.7 817.701 1005.4 815.701 1015 815.701H1173.8C1178.7 815.701 1183 812.001 1183.3 807.101C1183.6 801.701 1179.4 797.301 1174.1 797.301Z" fill="#AFB3B8"/>
<path d="M1233.7 758.499C1241.4 756.899 1247 750.399 1247.6 742.599L1262.1 586.099C1263.4 571.899 1252.3 559.699 1238 559.699H1124.7C1112 559.699 1100.1 569.999 1098.2 582.499L1084.9 754.699C1084.9 754.699 1119.2 763.499 1173.8 763.499C1203.6 763.499 1222.6 760.899 1233.7 758.499Z" fill="#80848B"/>
<path d="M1172.8 797.5H1015C1001.6 797.5 992.3 800.7 985.8 804.9C980.6 808.3 980.5 816 985.7 819.5C985.9 819.7 986.2 819.8 986.4 820C989.3 822 993.2 822 996.2 820.1C999.7 817.9 1005.4 815.9 1015 815.9H1172.4C1177.3 815.9 1181.6 812.2 1181.9 807.3C1182.3 801.9 1178.1 797.5 1172.8 797.5Z" fill="#ACB0B5"/>
<path d="M1228.7 758.5C1236.8 756.8 1242.7 749.9 1243.4 741.7L1255.7 588.1C1257.7 574.8 1248.3 564 1234.9 564H1113.1C1099.7 564 1087.1 574.8 1085.2 588.1L1071.8 754.5C1071.8 754.5 1108 763.7 1165.6 763.7C1197 763.8 1217 761 1228.7 758.5Z" fill="#ACB0B5"/>
<path opacity="0.5" d="M1243.4 815.799L1243.3 807.699L1242.8 809.899C1242 813.499 1238.8 816.099 1235.1 816.099L1009.9 815.799C1006.5 815.799 1003.1 816.599 1000.1 818.099H1243.3L1243.4 815.799Z" fill="black"/>
<path d="M869.5 955.801L858.8 986.101L876.5 1002.3L898.4 992.301L909.7 971.301L886.4 944.801L869.5 955.801Z" fill="#FB9C9C"/>
<path d="M868.5 958.6L908.6 974.3L1003.4 797.2H1133.4V729.4H978.3C966.3 729.4 955.6 736.6 951 747.7L868.5 958.6Z" fill="#E63946"/>
<path opacity="0.2" d="M868.5 958.6L908.6 974.3L1003.4 797.2H1133.4V729.4H978.3C966.3 729.4 955.6 736.6 951 747.7L868.5 958.6Z" fill="white"/>
<path opacity="0.2" d="M884.3 994.4H897.9L1004 797.2H1143.1V729.4H1021.3C1009.3 729.4 998.6 736.6 994 747.7L884.3 994.4Z" fill="black"/>
<path d="M970.9 955.799L960 986.699L977.9 1002.3L999 993.799L1011.1 971.199L987.8 944.699L970.9 955.799Z" fill="#FB9C9C"/>
<path d="M970.9 955.8L1011.1 971.3L1104.6 797.2H1185.5C1198.9 797.2 1209.7 786.3 1209.7 773V728L1079.5 729.5C1067.5 729.5 1056.8 736.7 1052.2 747.8L970.9 955.8Z" fill="#E63946"/>
<path opacity="0.2" d="M970.9 955.8L1011.1 971.3L1104.6 797.2H1185.5C1198.9 797.2 1209.7 786.3 1209.7 773V728L1079.5 729.5C1067.5 729.5 1056.8 736.7 1052.2 747.8L970.9 955.8Z" fill="white"/>
<path opacity="0.2" d="M1078.7 782.8C1085.5 769.6 1093 765.7 1107.9 765.7L1193.3 767L1192.8 728.1H1209.9V772.5C1209.9 786.1 1198.9 797.2 1185.2 797.2H1170.5H1104.9L994.6 1002.3L977 996.6L1078.7 782.8Z" fill="black"/>
<path d="M894.3 988.9C888.1 991.7 880.9 992.9 872.4 988.7C872.4 988.7 869 978.3 859.6 984.4C859.6 984.4 848.7 996.5 832.6 999.8C810.3 1004.3 809.3 1014.7 809.3 1014.7H901C901 1014.7 900.7 1000.6 899.2 991.6C898.8 989.4 896.4 988 894.3 988.9Z" fill="black"/>
<path d="M833.47 999.61C833.47 999.61 839.7 1001.4 844.4 1019.9L809.3 1014.7C809.3 1014.8 809.27 1004.31 833.47 999.61Z" fill="#3F4249"/>
<path d="M809.3 1025.1H901V1014.8H809.3V1025.1Z" fill="#3F4249"/>
<path d="M849.2 1001C849.3 1001.2 849.6 1001.4 849.8 1001.4C849.9 1001.4 850 1001.4 850.2 1001.3C850.5 1001.1 850.7 1000.7 850.5 1000.3C848.7 997.1 846.6 995.9 845.1 995.4C844.4 995.7 843.8 996.1 843.1 996.4C843.2 996.5 843.3 996.5 843.5 996.5C843.5 996.5 846.6 996.5 849.2 1001Z" fill="white"/>
<path d="M853.7 998.501C853.8 998.701 854.1 998.901 854.3 998.901C854.4 998.901 854.5 998.901 854.7 998.801C855 998.601 855.2 998.201 855 997.801C853.1 994.401 850.8 993.301 849.4 992.801C848.8 993.201 848.2 993.501 847.6 993.901C847.7 994.001 847.8 994.001 848 994.001C848.1 994.001 851.2 994.101 853.7 998.501Z" fill="white"/>
<path d="M858.4 995.7C858.5 995.9 858.8 996.1 859 996.1C859.1 996.1 859.2 996.1 859.4 996C859.8 995.8 859.9 995.4 859.7 995C857.6 991.3 855.1 990.2 853.7 989.9C853.2 990.3 852.7 990.6 852.2 991C852.3 991.1 852.5 991.2 852.7 991.2C852.7 991.2 855.8 991.2 858.4 995.7Z" fill="white"/>
<path d="M844.6 1014.7H809.3C809.3 1014.7 809.3 1014.5 809.4 1014.2C809.5 1013.9 809.5 1013.7 809.5 1013.7H844.5C844.8 1013.7 845 1013.9 845 1014.2C845 1014.5 844.9 1014.7 844.6 1014.7Z" fill="black"/>
<path d="M994.7 989.5C988.6 992.3 981.3 993.5 972.8 989.3C972.8 989.3 969.4 978.9 960 985C960 985 949.2 997.1 933 1000.4C910.6 1004.9 909.6 1015.3 909.6 1015.3H1001.3C1001.3 1015.3 1001 1001.2 999.5 992.3C999.2 990 996.8 988.5 994.7 989.5Z" fill="black"/>
<path d="M929.9 997.301C929.9 997.301 940.1 1002 944.8 1020.5L906.7 1018.9C906.7 1019 905.7 1002 929.9 997.301Z" fill="#3F4249"/>
<path d="M909.7 1025.7H1001.4V1015.4H909.7V1025.7Z" fill="#3F4249"/>
<path d="M949.6 1001C949.7 1001.2 950 1001.4 950.2 1001.4C950.3 1001.4 950.4 1001.4 950.6 1001.3C951 1001.1 951.1 1000.7 950.9 1000.3C949.1 997.1 947 995.9 945.5 995.4C944.8 995.7 944.2 996.1 943.5 996.4C943.6 996.5 943.7 996.5 943.9 996.5C943.9 996.5 947 996.5 949.6 1001Z" fill="white"/>
<path d="M954.1 998.501C954.2 998.701 954.5 998.901 954.7 998.901C954.8 998.901 954.9 998.901 955.1 998.801C955.5 998.601 955.6 998.201 955.4 997.801C953.5 994.401 951.2 993.301 949.8 992.801C949.2 993.201 948.6 993.501 948 993.901C948.1 994.001 948.2 994.001 948.4 994.001C948.5 994.001 951.6 994.101 954.1 998.501Z" fill="white"/>
<path d="M958.8 995.7C958.9 995.9 959.2 996.1 959.4 996.1C959.5 996.1 959.6 996.1 959.8 996C960.1 995.8 960.3 995.4 960.1 995C958 991.3 955.5 990.2 954.1 989.9C953.6 990.3 953.1 990.6 952.6 991C952.7 991.1 952.9 991.2 953.1 991.2C953.1 991.2 956.2 991.2 958.8 995.7Z" fill="white"/>
<path d="M945 1014.7H909.7C909.7 1014.7 909.7 1014.5 909.8 1014.2C909.9 1013.9 909.9 1013.7 909.9 1013.7H944.9C945.2 1013.7 945.4 1013.9 945.4 1014.2C945.4 1014.5 945.3 1014.7 945 1014.7Z" fill="black"/>
<path d="M1056.1 729.3L1071.1 602.9C1073 590 1074.8 578.9 1087.4 575.9L1123.1 567.1L1172 567.6L1217.1 578.4C1233.1 582.2 1243.6 597.7 1241.1 614L1235.8 648.6L1226.9 667.8C1226.5 668.9 1226.2 670 1225.9 671.1L1217.7 716.1C1216.3 724.1 1209.3 729.8 1201.2 729.8" fill="#21252B"/>
<path d="M940.7 570C944.7 570.4 946.6 576.6 948.5 581L966.3 566.4L967.2 561.2C958.9 547.9 938.2 543.4 936.2 543.2C931 542.7 928.6 542.2 928.1 542.9C927.7 543.6 926.4 548.2 934 549.2C943.5 550.4 937.2 558 917.9 550.7C913.1 548.9 904 551.2 907.3 554.8C911 558.7 918.4 568.1 940.7 570Z" fill="#F69797"/>
<path d="M1123.1 567.2L1103.3 571.7C1085.7 575.7 1069 582.8 1053.9 592.8L1011.1 621.1L967.2 561.1L948.5 581L995.3 658C1000.2 666.6 1011.4 669.5 1019.8 664.2L1074.1 630.3L1123.1 567.2Z" fill="#21252B"/>
<path d="M1067.7 729.3H1044.3C1040.7 729.3 1037.8 726.4 1037.8 722.8V684.4H1074.3V722.8C1074.2 726.4 1071.3 729.3 1067.7 729.3Z" fill="#21252B"/>
<path opacity="0.6" d="M1067.7 729.3H1044.3C1040.7 729.3 1037.8 726.4 1037.8 722.8V684.4H1074.3V722.8C1074.2 726.4 1071.3 729.3 1067.7 729.3Z" fill="black"/>
<g opacity="0.6">
<path opacity="0.6" d="M1079.9 716.199H1074.2V713.399H1079.9C1081.3 713.399 1082.5 712.199 1082.5 710.799V695.099C1082.5 693.599 1081.3 692.499 1079.9 692.499H1074.2V689.699H1079.9C1082.9 689.699 1085.2 692.199 1085.2 694.999V710.699C1085.3 713.699 1082.9 716.199 1079.9 716.199Z" fill="black"/>
</g>
<path opacity="0.6" d="M1079.9 716.199H1074.2V713.399H1079.9C1081.3 713.399 1082.5 712.199 1082.5 710.799V695.099C1082.5 693.599 1081.3 692.499 1079.9 692.499H1074.2V689.699H1079.9C1082.9 689.699 1085.2 692.199 1085.2 694.999V710.699C1085.3 713.699 1082.9 716.199 1079.9 716.199Z" fill="black"/>
<path opacity="0.2" d="M1076.8 692.399V689.599H1074.3V684.199H1066.3V721.999C1066.3 725.299 1063.7 727.899 1060.4 727.899H1040.2C1041.3 728.799 1042.7 729.399 1044.3 729.399H1067.7C1071.3 729.399 1074.2 726.499 1074.2 722.899V716.299H1076.7V713.499H1074.2V692.599L1076.8 692.399Z" fill="black"/>
<path d="M1050.2 683C1049.9 683 1049.7 682.8 1049.7 682.5C1049.7 679.1 1046.9 676.2 1043.4 676.2H1040.3C1037.6 676.2 1035.4 674 1035.4 671.3C1035.4 668.6 1037.6 666.4 1040.3 666.4H1057.7C1059.9 666.4 1061.7 664.6 1061.7 662.4C1061.7 660.2 1059.9 658.4 1057.7 658.4H1053.5C1050.7 658.4 1048.5 656.1 1048.5 653.4C1048.5 653.1 1048.7 652.9 1048.9 652.9C1049.1 652.9 1049.4 653.1 1049.4 653.4C1049.4 655.7 1051.2 657.5 1053.5 657.5H1057.7C1060.4 657.5 1062.6 659.7 1062.6 662.4C1062.6 665.1 1060.4 667.3 1057.7 667.3H1040.3C1038.1 667.3 1036.3 669.1 1036.3 671.3C1036.3 673.5 1038.1 675.3 1040.3 675.3H1043.4C1047.4 675.3 1050.6 678.6 1050.6 682.5C1050.6 682.8 1050.4 683 1050.2 683Z" fill="white"/>
<path d="M1059.7 683.599C1059.4 683.599 1059.3 683.399 1059.3 683.099V681.999C1059.3 681.199 1058.7 680.599 1057.8 680.599C1056.4 680.599 1055.4 679.499 1055.4 678.199V676.299C1055.4 674.899 1056.5 673.899 1057.8 673.899H1060.7C1064.6 673.899 1067.9 670.699 1067.9 666.699V663.199C1067.9 662.899 1068.1 662.699 1068.3 662.699C1068.5 662.699 1068.8 662.899 1068.8 663.199V666.599C1068.8 670.999 1065.2 674.699 1060.7 674.699H1057.8C1057 674.699 1056.4 675.299 1056.4 676.099V677.999C1056.4 678.799 1057 679.499 1057.8 679.499C1059.2 679.499 1060.2 680.599 1060.2 681.899V682.999C1060.1 683.399 1059.9 683.599 1059.7 683.599Z" fill="white"/>
<path opacity="0.2" d="M1071.1 643.801L1070.3 684.401H1061.4L1067.5 634.301C1069.1 627.501 1071.1 642.801 1071.1 643.801Z" fill="black"/>
<path d="M1123.2 566.899C1123.9 559.699 1134.9 554.799 1147.8 555.999C1160.7 557.199 1173.2 563.099 1172.6 570.399C1171.9 577.599 1158.4 583.399 1145.4 582.199C1132.4 580.999 1122.5 574.199 1123.2 566.899Z" fill="#F19292"/>
<path d="M1172.1 567.701C1172.1 567.701 1173 571.401 1170.1 573.201C1166.8 575.101 1154.2 583.501 1136.5 578.201C1136.5 578.201 1130.9 576.701 1125.5 572.801C1124.3 571.901 1123.4 570.601 1123.2 569.101C1123.2 568.901 1123.2 568.801 1123.2 568.601V567.301C1123.2 567.301 1123.2 567.301 1118.2 568.501C1118.2 570.001 1118.7 572.901 1121.2 575.501C1122.7 576.901 1144.1 593.501 1171.5 578.201C1171.5 578.201 1177.5 575.801 1176.8 568.901C1172.1 567.701 1172.1 567.701 1172.1 567.701Z" fill="#21252B"/>
<path opacity="0.2" d="M1172.1 567.701C1172.1 567.701 1173 571.401 1170.1 573.201C1166.8 575.101 1154.2 583.501 1136.5 578.201C1136.5 578.201 1130.9 576.701 1125.5 572.801C1124.3 571.901 1123.4 570.601 1123.2 569.101C1123.2 568.901 1123.2 568.801 1123.2 568.601V567.301C1123.2 567.301 1123.2 567.301 1118.2 568.501C1118.2 570.001 1118.7 572.901 1121.2 575.501C1122.7 576.901 1144.1 593.501 1171.5 578.201C1171.5 578.201 1177.5 575.801 1176.8 568.901C1172.1 567.701 1172.1 567.701 1172.1 567.701Z" fill="black"/>
<path opacity="0.15" d="M1183.3 689.101L1187.8 688.701C1189.2 688.601 1189.9 687.201 1189.3 686.001L1184.5 676.301L1183.3 689.101Z" fill="black"/>
<path d="M1094.8 700.5L1183.3 689.2L1188.4 639.9L1237 642.4L1227.1 705.4C1225.2 717.3 1215 726 1203.1 726H1103.7L1094.8 700.5Z" fill="#21252B"/>
<path opacity="0.6" d="M1103.6 699.4L1094.8 700.5L1103.5 725.8H1114.4L1103.6 699.4Z" fill="black"/>
<path opacity="0.15" d="M1102.1 721.201L1103.6 725.601H1203C1215 725.601 1225.2 716.901 1227 705.001L1241.2 613.901C1243.7 597.601 1233.2 582.101 1217.2 578.301L1208.8 576.301C1221.7 582.001 1229.5 595.701 1227.3 610.001L1214.2 693.901C1212.3 705.801 1202.1 714.501 1190.2 714.501L1102.1 721.201Z" fill="black"/>
<path d="M1067.2 697.2C1063.8 698.6 1059 703.4 1060.5 707.3C1062 711.2 1066.8 711.6 1068.3 714.1C1069.7 716.3 1072.4 719.2 1075.1 721.3C1075.9 721.9 1081.7 726.3 1083.3 727.5C1084.9 728.7 1105.4 726.5 1105.4 726.5L1096.2 700.5C1096.2 700.5 1070.6 695.8 1067.2 697.2Z" fill="#F69797"/>
<path d="M1176.5 473.4C1189.2 474.6 1192.2 489.2 1190.6 506.4C1189 523.6 1184.3 533.3 1171.6 532.2C1158.9 531 1149.5 520 1151.1 502.8C1152.7 485.6 1163.8 472.3 1176.5 473.4Z" fill="#3F4249"/>
<path d="M1130.9 507.901C1130.9 507.901 1174.5 485.801 1173.3 517.601L1173.2 525.801L1172.3 567.501C1172.2 568.701 1122.9 568.701 1123.2 567.201L1130.5 539.001C1130.2 536.801 1130.1 534.401 1130.3 531.601C1131 519.201 1130.9 507.901 1130.9 507.901Z" fill="#F19292"/>
<path d="M1128.3 509.5C1136 509.5 1142.3 503.2 1142.3 495.5C1142.3 487.8 1136 481.5 1128.3 481.5C1120.6 481.5 1114.3 487.8 1114.3 495.5C1114.3 503.2 1120.6 509.5 1128.3 509.5Z" fill="#3F4249"/>
<path d="M1128.3 485.1C1128.3 485.1 1108 545.3 1139.2 552.3C1166.2 558.4 1173.1 516.1 1173.1 516.1L1174.3 488.4L1128.3 485.1Z" fill="#F19292"/>
<path d="M1169 508.4C1168 523.3 1161.3 531.2 1161.3 531.2C1127.9 523.5 1122.1 529.3 1122.1 529.3C1122.1 529.3 1122.6 546.3 1136.2 551.3C1149.8 556.2 1171.6 549.5 1173.3 530.5C1173.7 525.8 1168.3 499.6 1168.3 499.6L1169 508.4Z" fill="#3F4249"/>
<g opacity="0.3">
<path opacity="0.3" d="M1137.9 540.501C1138 540.601 1137.9 540.601 1137.9 540.501C1140.5 540.901 1141.7 541.101 1141.7 541.101C1142.2 541.101 1142.5 540.901 1142.7 540.401C1142.8 539.901 1142.5 539.501 1142 539.401C1142 539.401 1140.8 539.201 1138.3 538.801C1137.8 538.801 1137.4 539.001 1137.3 539.401C1137.2 540.101 1137.5 540.501 1137.9 540.501Z" fill="black"/>
</g>
<path d="M1136.9 536.8C1143.7 538.4 1147.2 535 1148.4 533.3C1148.6 532.9 1148.6 531.4 1148.2 531.1C1147.8 530.9 1133.2 533.2 1133 533.6C1132.9 534 1133 535.5 1133.4 535.7C1134.7 536.2 1135.9 536.6 1136.9 536.8Z" fill="white"/>
<path d="M1167.3 479.201C1168.2 469.401 1158.9 460.501 1146.5 459.401C1134.1 458.301 1123.4 465.301 1122.5 475.101C1121.6 484.901 1130.9 493.801 1143.3 494.901C1155.7 496.101 1166.4 489.001 1167.3 479.201Z" fill="#3F4249"/>
<path d="M1174.5 473.5C1182.3 474.2 1187.8 482.7 1186.9 492.5C1186 502.3 1178.8 511.7 1171.1 511C1163.3 510.3 1158 499.7 1158.9 489.9C1159.8 480.1 1166.8 472.8 1174.5 473.5Z" fill="#3F4249"/>
<path opacity="0.15" d="M1172.9 527.8C1172.9 527.8 1170.3 527.8 1168.9 526.5L1172.7 533.8L1172.9 527.8Z" fill="black"/>
<path d="M1170.6 510.9C1170.6 510.9 1175.5 505.7 1181.3 508.9C1187.9 512.6 1185.1 528 1173.3 527.9C1167.2 527.9 1168.7 524.4 1170.2 519.8C1170.8 514 1170.6 510.9 1170.6 510.9Z" fill="#F19292"/>
<path opacity="0.3" d="M1181.2 513C1180.1 512.1 1179 511.7 1177.9 511.8C1176.9 511.9 1175.9 512.5 1175.1 513.7C1174.3 514.9 1173.8 516.2 1173.6 517.9L1173.4 519.2C1173.4 519.6 1173.6 519.9 1174 520C1174.4 520 1174.7 519.8 1174.8 519.4L1175 518.1C1175 517.7 1175.4 515.7 1176.2 514.6C1176.8 513.8 1177.4 513.4 1178.1 513.2C1178.7 513.2 1179.5 513.4 1180.3 514C1180.6 514.2 1181.1 514.2 1181.3 513.9C1181.6 513.7 1181.5 513.3 1181.2 513Z" fill="black"/>
<path d="M1127.6 490.001C1128.7 491.001 1131.3 492.501 1131.3 492.501C1131.6 492.601 1132 492.601 1132.2 492.301C1132.4 491.901 1132.3 491.601 1132 491.401C1132 491.401 1128.5 488.901 1128.2 488.601C1127.6 488.001 1126.6 487.101 1125.6 485.701C1125.4 485.401 1125 485.301 1124.7 485.501C1124.4 485.701 1124.3 486.101 1124.5 486.401C1125.4 488.001 1127.2 489.701 1127.6 490.001Z" fill="#F19292"/>
<path opacity="0.15" d="M1126.1 555.801L1129 546.301C1132.1 549.801 1137.4 552.901 1146.2 552.801C1146.2 552.801 1152.1 552.901 1158.7 550.101C1159.2 549.901 1159.5 549.901 1159.7 550.101C1159.9 550.401 1159.8 550.701 1159.5 550.901C1158.2 551.801 1153.3 553.801 1145.8 554.201C1134.9 559.801 1126.1 555.801 1126.1 555.801Z" fill="black"/>
<path d="M1148.3 518.4C1149.7 518.4 1150.8 517.3 1150.8 515.9C1150.8 514.5 1149.7 513.4 1148.3 513.4C1146.9 513.4 1145.8 514.5 1145.8 515.9C1145.8 517.3 1146.9 518.4 1148.3 518.4Z" fill="#21252B"/>
<path d="M1147.3 515.5C1147.6 515.5 1147.8 515.3 1147.8 515C1147.8 514.7 1147.6 514.5 1147.3 514.5C1147 514.5 1146.8 514.7 1146.8 515C1146.8 515.2 1147 515.5 1147.3 515.5Z" fill="white"/>
<path d="M1128.3 516.699C1129.7 516.699 1130.8 515.599 1130.8 514.199C1130.8 512.799 1129.7 511.699 1128.3 511.699C1126.9 511.699 1125.8 512.799 1125.8 514.199C1125.7 515.599 1126.9 516.699 1128.3 516.699Z" fill="#21252B"/>
<path d="M1127.2 513.801C1127.5 513.801 1127.7 513.601 1127.7 513.301C1127.7 513.001 1127.5 512.801 1127.2 512.801C1126.9 512.801 1126.7 513.001 1126.7 513.301C1126.7 513.601 1127 513.801 1127.2 513.801Z" fill="white"/>
<path d="M1117.7 510.199L1117.4 512.999C1116.9 518.499 1121 523.299 1126.4 523.799C1131.8 524.299 1136.7 520.299 1137.2 514.799L1137.5 511.999C1137.6 511.199 1137.4 510.399 1137 509.699L1140.8 510.099C1140.2 510.699 1139.9 511.399 1139.8 512.199L1139.5 514.999C1139 520.499 1143.1 525.299 1148.5 525.799C1153.9 526.299 1158.8 522.199 1159.3 516.799L1159.6 513.999C1159.8 511.999 1158.3 510.199 1156.3 509.999L1144 508.999H1143.9L1134.3 508.099L1132.8 507.999L1121.8 506.999C1119.7 506.699 1117.9 508.199 1117.7 510.199ZM1143.6 510.499L1156.1 511.599C1157.3 511.699 1158.2 512.799 1158.1 513.999L1157.8 516.799C1157.4 521.499 1153.2 524.899 1148.5 524.399C1143.8 523.999 1140.4 519.799 1140.9 515.099L1141.2 512.299C1141.4 511.199 1142.5 510.399 1143.6 510.499ZM1119 510.499C1119.1 509.299 1120.2 508.399 1121.4 508.499L1132.4 509.499L1133.9 509.599C1135.1 509.699 1136 510.799 1135.9 511.999L1135.6 514.799C1135.2 519.399 1131 522.799 1126.3 522.399C1121.6 521.999 1118.2 517.799 1118.7 513.099L1119 510.499Z" fill="#21252B"/>
<path d="M859 710.35V1025.3H866.9V710.35H859Z" fill="#ACB0B5"/>
<path d="M950 718H866.8V1025.3H950V718Z" fill="#61656D"/>
<path d="M950 712.91H866.8V1025.3H950V712.91Z" fill="#80848B"/>
<g opacity="0.5">
<path opacity="0.5" d="M772.9 733.911C773.8 738.111 770.2 741.911 765.9 741.011C763.7 740.511 762 738.811 761.5 736.711C760.5 732.411 764.3 728.611 768.6 729.611C770.7 730.011 772.4 731.811 772.9 733.911Z" fill="black"/>
</g>
<path opacity="0.5" d="M950 710.311H668.7V712.911H950V710.311Z" fill="black"/>
<path d="M1384.9 1026.8H215C214.7 1026.8 214.4 1026.6 214.4 1026.2C214.4 1025.8 214.6 1025.6 215 1025.6H1385C1385.3 1025.6 1385.6 1025.8 1385.6 1026.2C1385.6 1026.6 1385.2 1026.8 1384.9 1026.8Z" fill="#B0B4B9"/>
<path d="M1217.4 888.3C1217.2 888.3 1217.1 888.3 1216.9 888.2C1215.6 887.9 1214.7 886.6 1214.9 885.3L1218.2 868.8C1218.4 867.7 1219.4 866.9 1220.5 866.8L1244.2 865.4C1245 865.4 1245.8 865.7 1246.3 866.3L1259.5 882.5C1260.4 883.6 1260.2 885.1 1259.2 886C1258.1 886.9 1256.6 886.7 1255.7 885.7L1243.3 870.5L1222.8 871.7L1219.9 886.3C1219.6 887.5 1218.5 888.3 1217.4 888.3Z" fill="#3F4249"/>
<path d="M1174.1 907.9C1174.1 907.9 1146.8 926.6 1141.9 970.3C1136.9 1014 1171.9 1025.7 1171.9 1025.7L1177.1 1010.7C1177.1 1010.7 1147.6 1011.3 1150.2 972.8C1152.8 934.3 1181.2 920.9 1181.2 920.9L1174.1 907.9Z" fill="#3F4249"/>
<path d="M1230.9 1026L1289.6 1025.6C1297.2 1025.6 1302.9 1018.6 1301.5 1011.2L1295.7 980.499C1282.5 901.699 1187 888.299 1177.4 885.799C1163.5 882.199 1171.9 1025.6 1171.9 1025.6L1230.9 1026Z" fill="#3F4249"/>
<path d="M1177.3 885.799C1177 885.699 1176.7 885.799 1176.5 885.799V885.699C1176.5 885.699 1248.9 879.899 1283.8 883.999C1283.8 883.999 1307.5 913.499 1306.8 964.999C1306.7 973.599 1299.6 980.499 1291 980.499L1223.3 980.099C1215.5 980.099 1208.9 974.299 1207.8 966.599C1203.8 936.899 1189.1 888.899 1177.3 885.799Z" fill="#61656D"/>
<path d="M1283.8 884.1L1288.2 872.7L1282.6 869.4L1283.8 884.1Z" fill="#3F4249"/>
<path d="M1239.7 935.901C1239.7 938.001 1248.7 950.201 1251.4 950.201C1254 950.201 1262.5 937.801 1262.1 935.901C1261.7 934.001 1253.5 921.801 1249.7 921.801C1246.1 921.801 1239.7 933.801 1239.7 935.901Z" fill="#3F4249"/>
<path d="M1251.2 942.4C1252.4 942.3 1253.2 939.4 1253.1 935.9C1252.9 932.3 1251.8 929.5 1250.6 929.6C1249.4 929.7 1248.6 932.6 1248.7 936.1C1248.9 939.6 1250 942.5 1251.2 942.4Z" fill="#61656D"/>
<path d="M561.2 243.299C561.2 216.299 540.8 193.999 514.5 191.099V190.699H508.7C479.7 190.699 456.2 214.199 456.2 243.199C456.2 272.199 479.7 295.699 508.7 295.699H514.5V295.399C540.8 292.499 561.2 270.299 561.2 243.299Z" fill="#B0B4B9"/>
<path d="M514.4 295.801C543.4 295.801 566.9 272.301 566.9 243.301C566.9 214.301 543.4 190.801 514.4 190.801C485.4 190.801 461.9 214.301 461.9 243.301C461.9 272.301 485.4 295.801 514.4 295.801Z" fill="#84888F"/>
<path d="M514.4 290C540.2 290 561.1 269.1 561.1 243.3C561.1 217.5 540.2 196.6 514.4 196.6C488.6 196.6 467.7 217.5 467.7 243.3C467.7 269.1 488.6 290 514.4 290Z" fill="white"/>
<path d="M514.4 290C540.2 290 561.1 269.1 561.1 243.3C561.1 217.5 540.2 196.6 514.4 196.6C488.6 196.6 467.7 217.5 467.7 243.3C467.7 269.1 488.6 290 514.4 290Z" fill="#84888F"/>
<path opacity="0.9" d="M514.4 290C540.2 290 561.1 269.1 561.1 243.3C561.1 217.5 540.2 196.6 514.4 196.6C488.6 196.6 467.7 217.5 467.7 243.3C467.7 269.1 488.6 290 514.4 290Z" fill="white"/>
<path d="M514.4 196.6C513.6 196.6 512.8 196.6 511.9 196.7C536.5 198 556.1 218.4 556.1 243.3C556.1 268.2 536.5 288.6 511.9 289.9C512.7 289.9 513.5 290 514.4 290C540.2 290 561.1 269.1 561.1 243.3C561.2 217.4 540.3 196.6 514.4 196.6Z" fill="#B0B4B9"/>
<path d="M514.9 246.901L499.4 216.001C498.8 214.801 499.3 213.301 500.4 212.801C501.5 212.301 503.1 212.701 503.6 213.801L516.9 240.301L534.6 231.601C535.8 231.001 537.3 231.501 537.8 232.801C538.4 234.001 537.9 235.501 536.6 236.001L514.9 246.901Z" fill="#E63946"/>
<path opacity="0.5" d="M554.4 267.3C558.7 260.2 561.1 252 561.1 243.2C561.1 217.3 540.2 196.5 514.4 196.5C513.1 196.5 511.9 196.6 510.6 196.6L554.4 267.3Z" fill="white"/>
<path opacity="0.5" d="M503.5 197.801C501.2 198.401 499 199.101 496.9 199.901L545.3 278.301C547.1 276.701 548.9 274.801 550.5 272.801L503.5 197.801Z" fill="white"/>
<path d="M1232.9 599.8C1232.7 599.8 1232.5 599.7 1232.3 599.6L1227.1 594.7C1226.8 594.4 1226.7 593.8 1227.1 593.5C1227.4 593.2 1228 593.1 1228.3 593.5L1233.5 598.4C1233.8 598.7 1233.9 599.3 1233.5 599.6C1233.4 599.7 1233.2 599.8 1232.9 599.8Z" fill="white"/>
<path d="M1227.9 600.001C1227.7 600.001 1227.5 599.901 1227.3 599.801C1227 599.501 1226.9 598.9 1227.3 598.6L1232.2 593.401C1232.5 593.101 1233.1 593.001 1233.4 593.401C1233.7 593.801 1233.8 594.3 1233.4 594.6L1228.5 599.801C1228.4 599.901 1228.1 600.001 1227.9 600.001Z" fill="white"/>
<path d="M1172.2 622.4C1172 622.4 1171.8 622.3 1171.6 622.2L1166.4 617.3C1166.1 617 1166 616.4 1166.4 616.1C1166.7 615.8 1167.3 615.7 1167.6 616.1L1172.8 621C1173.1 621.3 1173.2 621.9 1172.8 622.2C1172.7 622.3 1172.4 622.4 1172.2 622.4Z" fill="white"/>
<path d="M1167.2 622.501C1167 622.501 1166.8 622.401 1166.6 622.301C1166.3 622.001 1166.2 621.4 1166.6 621.1L1171.5 615.901C1171.8 615.601 1172.4 615.501 1172.7 615.901C1173 616.301 1173.1 616.8 1172.7 617.1L1167.8 622.301C1167.6 622.401 1167.4 622.501 1167.2 622.501Z" fill="white"/>
<path d="M994 617.3C993.8 617.3 993.6 617.2 993.4 617.1L988.2 612.2C987.9 611.9 987.8 611.3 988.2 611C988.5 610.7 989.1 610.6 989.4 611L994.6 615.9C994.9 616.2 995 616.8 994.6 617.1C994.5 617.2 994.2 617.3 994 617.3Z" fill="white"/>
<path d="M989 617.399C988.8 617.399 988.6 617.299 988.4 617.199C988.1 616.899 988 616.299 988.4 615.999L993.3 610.799C993.6 610.499 994.2 610.399 994.5 610.799C994.8 611.099 994.9 611.699 994.5 611.999L989.6 617.199C989.4 617.299 989.2 617.399 989 617.399Z" fill="white"/>
<path d="M1120.4 599.9C1117 599.9 1114.2 597.1 1114.2 593.7C1114.2 590.3 1117 587.5 1120.4 587.5C1123.9 587.5 1126.6 590.3 1126.6 593.7C1126.6 597.1 1123.9 599.9 1120.4 599.9ZM1120.4 589.1C1117.9 589.1 1115.8 591.1 1115.8 593.7C1115.8 596.3 1117.8 598.3 1120.4 598.3C1122.9 598.3 1125 596.3 1125 593.7C1125 591.1 1123 589.1 1120.4 589.1Z" fill="white"/>
<path d="M1137 686.5C1136.5 686.5 1136.2 686.1 1136.2 685.6C1136.2 683.1 1134.2 681 1131.6 681C1129.1 681 1127 683 1127 685.6C1127 686.1 1126.6 686.5 1126.2 686.5C1125.8 686.5 1125.4 686.1 1125.4 685.6C1125.4 682.2 1128.2 679.4 1131.6 679.4C1135 679.4 1137.8 682.2 1137.8 685.6C1137.8 686.1 1137.4 686.5 1137 686.5Z" fill="white"/>
<path d="M1060.3 606.5C1059.8 606.5 1059.4 606.1 1059.4 605.7C1059.4 603.2 1057.4 601.1 1054.9 601.1C1052.4 601.1 1050.4 603.1 1050.4 605.7C1050.4 606.2 1050 606.5 1049.6 606.5C1049.1 606.5 1048.7 606.1 1048.7 605.7C1048.7 602.2 1051.5 599.5 1054.9 599.5C1058.3 599.5 1061.1 602.3 1061.1 605.7C1061.2 606.2 1060.8 606.5 1060.3 606.5Z" fill="white"/>
<path d="M1104.3 642.799C1103.8 642.799 1103.5 642.399 1103.5 641.999C1103.5 639.899 1105.1 639.099 1106.2 638.399C1107.2 637.899 1107.7 637.599 1107.7 636.999C1107.7 636.499 1108.1 636.199 1108.5 636.199C1108.9 636.199 1109.3 636.599 1109.3 636.999C1109.3 638.599 1108 639.299 1107 639.899C1105.8 640.499 1105.2 640.899 1105.2 641.999C1105.2 642.499 1104.8 642.799 1104.3 642.799Z" fill="white"/>
<path d="M1104.3 633C1103.8 633 1103.5 632.6 1103.5 632.2C1103.5 630.1 1105.1 629.3 1106.2 628.6C1107.2 628.1 1107.7 627.8 1107.7 627.2C1107.7 626.7 1108.1 626.4 1108.5 626.4C1108.9 626.4 1109.3 626.8 1109.3 627.2C1109.3 628.8 1108 629.5 1107 630.1C1105.8 630.7 1105.2 631.1 1105.2 632.2C1105.2 632.6 1104.8 633 1104.3 633Z" fill="white"/>
<path d="M1108.5 637.901C1108 637.901 1107.7 637.501 1107.7 637.101C1107.7 636.601 1107.3 636.301 1106.3 635.701C1105.1 635.101 1103.6 634.201 1103.6 632.101C1103.6 631.601 1104 631.301 1104.5 631.301C1105 631.301 1105.3 631.701 1105.3 632.101C1105.3 633.101 1106 633.601 1107.1 634.201C1108.1 634.801 1109.4 635.501 1109.4 637.101C1109.3 637.501 1108.9 637.901 1108.5 637.901Z" fill="white"/>
<path d="M1108.5 628C1108 628 1107.7 627.6 1107.7 627.2C1107.7 626.7 1107.3 626.4 1106.3 625.8C1105.1 625.2 1103.6 624.3 1103.6 622.2C1103.6 621.7 1104 621.4 1104.5 621.4C1105 621.4 1105.3 621.8 1105.3 622.2C1105.3 623.2 1106 623.7 1107.1 624.3C1108.1 624.9 1109.4 625.6 1109.4 627.2C1109.3 627.7 1108.9 628 1108.5 628Z" fill="white"/>
<path d="M1213.3 671.7H1201.1C1200.6 671.7 1200.3 671.3 1200.3 670.9C1200.3 670.4 1200.7 670.1 1201.1 670.1H1213.3C1213.8 670.1 1214.1 670.5 1214.1 670.9C1214.2 671.3 1213.8 671.7 1213.3 671.7Z" fill="white"/>
<path d="M1174.9 587.399H1162.7C1162.2 587.399 1161.9 586.999 1161.9 586.599C1161.9 586.099 1162.3 585.699 1162.7 585.699H1174.9C1175.4 585.699 1175.8 586.099 1175.8 586.599C1175.8 586.999 1175.4 587.399 1174.9 587.399Z" fill="white"/>
<path d="M1219.6 631.299C1219.4 631.299 1219.2 631.199 1219 631.099C1218.7 630.799 1218.7 630.199 1219 629.899L1227.6 621.299C1227.9 620.999 1228.5 620.999 1228.8 621.299C1229.1 621.599 1229.1 622.199 1228.8 622.499L1220.2 631.099C1220 631.199 1219.8 631.299 1219.6 631.299Z" fill="white"/>
<path d="M1128.2 603.7C1125.1 603.7 1122.6 601.2 1122.6 598.1C1122.6 595 1125.1 592.5 1128.2 592.5C1131.3 592.5 1133.8 595 1133.8 598.1C1133.8 601.2 1131.3 603.7 1128.2 603.7ZM1128.2 592.9C1125.3 592.9 1123 595.3 1123 598.1C1123 600.9 1125.4 603.3 1128.2 603.3C1131.1 603.3 1133.4 601 1133.4 598.1C1133.4 595.2 1131.1 592.9 1128.2 592.9Z" fill="white"/>
<path d="M1143.4 681.901H1143.1C1143.1 679.001 1140.7 676.701 1137.9 676.701C1135 676.701 1132.7 679.001 1132.7 681.901H1132.4C1132.4 678.801 1134.9 676.301 1138 676.301C1140.9 676.301 1143.4 678.801 1143.4 681.901Z" fill="white"/>
<path d="M1068.2 610.2H1067.9C1067.9 607.3 1065.6 605 1062.7 605C1059.8 605 1057.5 607.3 1057.5 610.2H1057.2C1057.2 607.1 1059.7 604.6 1062.8 604.6C1065.7 604.7 1068.2 607.2 1068.2 610.2Z" fill="white"/>
<path d="M1192.4 701C1191.9 701 1191.6 700.6 1191.6 700.2C1191.6 697.7 1189.6 695.6 1187.1 695.6C1184.6 695.6 1182.6 697.6 1182.6 700.2C1182.6 700.7 1182.2 701 1181.8 701C1181.4 701 1181 700.6 1181 700.2C1181 696.7 1183.8 694 1187.2 694C1190.6 694 1193.4 696.8 1193.4 700.2C1193.3 700.6 1192.9 701 1192.4 701Z" fill="white"/>
<path d="M1200.3 704.7H1200C1200 701.8 1197.7 699.5 1194.8 699.5C1191.9 699.5 1189.6 701.8 1189.6 704.7H1189.3C1189.3 701.6 1191.8 699.1 1194.9 699.1C1197.8 699.1 1200.3 701.6 1200.3 704.7Z" fill="white"/>
<path d="M1112.2 646.5H1111.9C1111.9 644.8 1113.1 644.1 1114.3 643.5C1115.3 643 1116.1 642.5 1116.1 641.5H1116.4C1116.4 642.7 1115.4 643.3 1114.4 643.8C1113.3 644.5 1112.2 645 1112.2 646.5Z" fill="white"/>
<path d="M1112.2 636.699H1111.9C1111.9 634.999 1113.1 634.299 1114.3 633.699C1115.3 633.199 1116.1 632.699 1116.1 631.699H1116.4C1116.4 632.899 1115.4 633.499 1114.4 633.999C1113.3 634.599 1112.2 635.199 1112.2 636.699Z" fill="white"/>
<path d="M1116.4 641.6H1116.1C1116.1 640.6 1115.3 640.2 1114.3 639.6C1113.2 639 1111.9 638.3 1111.9 636.6H1112.2C1112.2 638.1 1113.3 638.7 1114.4 639.3C1115.4 639.8 1116.4 640.4 1116.4 641.6Z" fill="white"/>
<path d="M1116.4 631.699H1116.1C1116.1 630.699 1115.3 630.299 1114.3 629.699C1113.2 629.099 1111.9 628.399 1111.9 626.699H1112.2C1112.2 628.199 1113.3 628.799 1114.4 629.399C1115.4 629.999 1116.4 630.499 1116.4 631.699Z" fill="white"/>
<path d="M964.8 596.3C964.3 596.3 963.9 595.9 963.9 595.5C963.9 593.4 965.5 592.6 966.6 591.9C967.6 591.4 968.1 591.1 968.1 590.5C968.1 590 968.5 589.6 968.9 589.6C969.4 589.6 969.8 590 969.8 590.5C969.8 592.1 968.5 592.8 967.5 593.4C966.3 594 965.7 594.4 965.7 595.5C965.7 595.9 965.3 596.3 964.8 596.3Z" fill="white"/>
<path d="M964.8 586.401C964.3 586.401 963.9 586.001 963.9 585.601C963.9 583.501 965.5 582.701 966.6 582.001C967.6 581.501 968.1 581.201 968.1 580.601C968.1 580.101 968.5 579.801 968.9 579.801C969.4 579.801 969.8 580.201 969.8 580.601C969.8 582.201 968.5 582.901 967.5 583.501C966.3 584.101 965.7 584.501 965.7 585.601C965.7 586.001 965.3 586.401 964.8 586.401Z" fill="white"/>
<path d="M969 591.399C968.5 591.399 968.2 590.999 968.2 590.599C968.2 590.099 967.8 589.799 966.7 589.199C965.5 588.599 964 587.699 964 585.599C964 585.099 964.4 584.699 964.9 584.699C965.4 584.699 965.7 585.099 965.7 585.599C965.7 586.599 966.4 587.099 967.5 587.699C968.5 588.299 969.8 588.999 969.8 590.599C969.8 590.999 969.5 591.399 969 591.399Z" fill="white"/>
<path d="M969 581.501C968.5 581.501 968.2 581.101 968.2 580.701C968.2 580.201 967.8 579.901 966.7 579.301C965.5 578.701 964 577.801 964 575.701C964 575.201 964.4 574.801 964.9 574.801C965.4 574.801 965.7 575.201 965.7 575.701C965.7 576.701 966.4 577.201 967.5 577.801C968.5 578.401 969.8 579.101 969.8 580.701C969.8 581.101 969.5 581.501 969 581.501Z" fill="white"/>
<path d="M972.7 600H972.4C972.4 598.3 973.6 597.6 974.8 597C975.8 596.5 976.6 596 976.6 595H976.9C976.9 596.2 975.9 596.8 974.9 597.3C973.8 597.9 972.7 598.5 972.7 600Z" fill="white"/>
<path d="M972.7 590.1H972.4C972.4 588.4 973.6 587.7 974.8 587.1C975.8 586.6 976.6 586.1 976.6 585.1H976.9C976.9 586.3 975.9 586.9 974.9 587.4C973.8 588 972.7 588.6 972.7 590.1Z" fill="white"/>
<path d="M976.9 595H976.6C976.6 594 975.8 593.5 974.8 593C973.7 592.4 972.4 591.7 972.4 590H972.7C972.7 591.5 973.8 592.1 974.9 592.7C975.9 593.3 976.9 593.8 976.9 595Z" fill="white"/>
<path d="M976.9 585.199H976.6C976.6 584.199 975.8 583.699 974.8 583.199C973.7 582.599 972.4 581.899 972.4 580.199H972.7C972.7 581.699 973.8 582.299 974.9 582.899C975.9 583.399 976.9 583.999 976.9 585.199Z" fill="white"/>
<path d="M1220.2 677.5H1208V677.8H1220.2V677.5Z" fill="white"/>
<path d="M1182.7 590.9H1170.5V591.2H1182.7V590.9Z" fill="white"/>
<path d="M1035.1 629.6H1022.9C1022.4 629.6 1022.1 629.2 1022.1 628.7C1022.1 628.2 1022.5 627.9 1022.9 627.9H1035.1C1035.6 627.9 1035.9 628.3 1035.9 628.7C1036 629.2 1035.6 629.6 1035.1 629.6Z" fill="white"/>
<path d="M1042.9 633.1H1030.7V633.4H1042.9V633.1Z" fill="white"/>
<path d="M1235.8 626.301L1227.2 634.901L1227.4 635.101L1236 626.501L1235.8 626.301Z" fill="white"/>
<path d="M1151.6 655.699C1151.4 655.699 1151.2 655.699 1150.9 655.599C1150.1 655.399 1149.5 654.999 1149 654.299C1148.6 653.599 1148.4 652.799 1148.6 652.099C1148.8 651.299 1149.2 650.699 1149.9 650.199C1150.6 649.799 1151.4 649.599 1152.1 649.799C1152.9 649.999 1153.5 650.399 1154 651.099C1154.4 651.799 1154.6 652.599 1154.4 653.299C1154.2 654.099 1153.8 654.699 1153.1 655.199C1152.7 655.499 1152.1 655.699 1151.6 655.699ZM1151.6 651.399C1151.4 651.399 1151.1 651.499 1150.9 651.599C1150.6 651.799 1150.4 652.099 1150.3 652.399C1150.2 652.699 1150.3 653.099 1150.5 653.399C1150.7 653.699 1151 653.899 1151.3 653.999C1151.6 654.099 1152 653.999 1152.3 653.799C1152.6 653.599 1152.8 653.299 1152.9 652.999C1153 652.699 1152.9 652.299 1152.7 651.999C1152.5 651.699 1152.2 651.499 1151.9 651.399C1151.8 651.399 1151.7 651.399 1151.6 651.399Z" fill="white"/>
<path d="M1137 707.301C1136.8 707.301 1136.6 707.301 1136.3 707.201C1135.5 707.001 1134.9 706.601 1134.4 705.901C1134 705.201 1133.8 704.401 1134 703.701C1134.2 702.901 1134.6 702.301 1135.3 701.801C1136 701.401 1136.8 701.201 1137.5 701.401C1138.2 701.601 1138.9 702.001 1139.4 702.701C1139.8 703.401 1140 704.201 1139.8 704.901C1139.6 705.701 1139.2 706.301 1138.5 706.801C1138.1 707.201 1137.6 707.301 1137 707.301ZM1137 703.101C1136.8 703.101 1136.5 703.201 1136.3 703.301C1136 703.501 1135.8 703.801 1135.7 704.101C1135.6 704.401 1135.7 704.801 1135.9 705.101C1136.1 705.401 1136.4 705.601 1136.7 705.701C1137 705.801 1137.4 705.701 1137.7 705.501C1138 705.301 1138.2 705.001 1138.3 704.701C1138.4 704.401 1138.3 704.001 1138.1 703.701C1137.9 703.401 1137.6 703.201 1137.3 703.101C1137.2 703.101 1137.1 703.101 1137 703.101Z" fill="white"/>
<path d="M1103.5 667.801C1103.3 667.801 1103.1 667.801 1102.8 667.701C1102 667.501 1101.4 667.101 1100.9 666.401C1100 665.001 1100.4 663.201 1101.8 662.301C1102.5 661.901 1103.3 661.701 1104 661.901C1104.7 662.101 1105.4 662.501 1105.9 663.201C1106.3 663.901 1106.5 664.701 1106.3 665.401C1106.1 666.201 1105.7 666.801 1105 667.301C1104.6 667.701 1104 667.801 1103.5 667.801ZM1103.5 663.601C1103.3 663.601 1103 663.701 1102.8 663.801C1102.2 664.201 1102 665.001 1102.4 665.601C1102.6 665.901 1102.9 666.101 1103.2 666.201C1103.5 666.301 1103.9 666.201 1104.2 666.001C1104.5 665.801 1104.7 665.501 1104.8 665.201C1104.9 664.901 1104.8 664.501 1104.6 664.201C1104.4 663.901 1104.1 663.701 1103.8 663.601C1103.7 663.601 1103.6 663.601 1103.5 663.601Z" fill="white"/>
<path d="M1091.8 599.801C1091.6 599.801 1091.3 599.801 1091.1 599.701C1090.3 599.501 1089.7 599.101 1089.2 598.401C1088.8 597.701 1088.6 596.901 1088.8 596.201C1089 595.401 1089.4 594.801 1090.1 594.301C1090.8 593.901 1091.6 593.701 1092.3 593.901C1093.1 594.101 1093.7 594.501 1094.2 595.201C1094.6 595.901 1094.8 596.701 1094.6 597.401C1094.4 598.201 1094 598.801 1093.3 599.301C1092.9 599.701 1092.3 599.801 1091.8 599.801ZM1091.8 595.501C1091.6 595.501 1091.3 595.601 1091.1 595.701C1090.8 595.901 1090.6 596.201 1090.5 596.501C1090.4 596.801 1090.5 597.201 1090.7 597.501C1090.9 597.801 1091.2 598.001 1091.5 598.101C1091.8 598.201 1092.2 598.101 1092.5 597.901C1092.8 597.701 1093 597.401 1093.1 597.101C1093.2 596.801 1093.1 596.401 1092.9 596.101C1092.7 595.801 1092.4 595.601 1092.1 595.501C1092 595.601 1091.9 595.501 1091.8 595.501Z" fill="white"/>
<path d="M1005.7 649.5C1005.5 649.5 1005.3 649.5 1005 649.4C1004.2 649.2 1003.6 648.8 1003.1 648.1C1002.7 647.4 1002.5 646.6 1002.7 645.9C1002.9 645.1 1003.3 644.5 1004 644C1004.7 643.6 1005.5 643.4 1006.2 643.6C1007 643.8 1007.6 644.2 1008.1 644.9C1008.5 645.6 1008.7 646.4 1008.5 647.1C1008.3 647.9 1007.9 648.5 1007.2 649C1006.8 649.4 1006.3 649.5 1005.7 649.5ZM1005.7 645.3C1005.5 645.3 1005.2 645.4 1005 645.5C1004.7 645.7 1004.5 646 1004.4 646.3C1004.3 646.6 1004.4 647 1004.6 647.3C1004.8 647.6 1005.1 647.8 1005.4 647.9C1005.7 648 1006.1 647.9 1006.4 647.7C1006.7 647.5 1006.9 647.2 1007 646.9C1007.1 646.6 1007 646.2 1006.8 645.9C1006.6 645.6 1006.3 645.4 1006 645.3C1005.9 645.3 1005.8 645.3 1005.7 645.3Z" fill="white"/>
<path d="M1197.3 599.801C1196.3 599.801 1195.3 599.301 1194.8 598.401C1194.4 597.701 1194.2 596.901 1194.4 596.201C1194.6 595.401 1195 594.801 1195.7 594.301C1196.4 593.901 1197.2 593.701 1197.9 593.901C1198.7 594.101 1199.3 594.501 1199.8 595.201C1200.2 595.901 1200.4 596.701 1200.2 597.401C1200 598.201 1199.6 598.801 1198.9 599.301C1198.4 599.701 1197.8 599.801 1197.3 599.801ZM1197.3 595.501C1197.1 595.501 1196.8 595.601 1196.6 595.701C1196.3 595.901 1196.1 596.201 1196 596.501C1195.9 596.801 1196 597.201 1196.2 597.501C1196.6 598.101 1197.4 598.301 1198 597.901C1198.3 597.701 1198.5 597.401 1198.6 597.101C1198.7 596.801 1198.6 596.401 1198.4 596.101C1198.2 595.801 1197.9 595.601 1197.6 595.501C1197.5 595.601 1197.4 595.501 1197.3 595.501Z" fill="white"/>
<path opacity="0.2" d="M1190.1 618.201C1190.2 617.301 1188.9 617.001 1188.7 617.901L1167.2 688.601L1103.4 697.901C1103 698.001 1102.8 698.401 1102.9 698.701C1103 699.001 1103.3 699.201 1103.5 699.201H1103.6L1166.8 690.001L1183.2 687.601L1183.3 686.201L1190.1 618.201Z" fill="black"/>
<path d="M1160.8 255.1H953.5C943.1 255.1 934.6 263.6 934.6 274V421.4C934.6 431.8 943.1 440.3 953.5 440.3H1139.5C1140.2 440.3 1140.8 440.3 1141.5 440.4C1152.5 441 1162.6 446.6 1169.4 455.2L1175.2 462.5H1179.8V274C1179.7 263.5 1171.3 255.1 1160.8 255.1Z" fill="#E63946"/>
<path opacity="0.5" d="M1160.6 255.1H953.3C942.9 255.1 934.4 263.6 934.4 274V421.4C934.4 431.8 942.9 440.3 953.3 440.3H1139.3C1140 440.3 1140.6 440.3 1141.3 440.4C1152.2 441 1162.2 446.5 1169.1 455L1175.2 462.5H1179.8L1179.6 274C1179.5 263.5 1171 255.1 1160.6 255.1Z" fill="white"/>
<path d="M1156.2 255.1H948.9C938.5 255.1 930 263.6 930 274V421.4C930 431.8 938.5 440.3 948.9 440.3H1134.9C1144.3 440.3 1153.5 443.7 1160.6 449.9L1175.1 462.5V421.4V274C1175.1 263.5 1166.6 255.1 1156.2 255.1Z" fill="#E63946"/>
<path opacity="0.7" d="M1156.2 255.1H948.9C938.5 255.1 930 263.6 930 274V421.4C930 431.8 938.5 440.3 948.9 440.3H1134.9C1144.3 440.3 1153.5 443.7 1160.6 449.9L1175.1 462.5V421.4V274C1175.1 263.5 1166.6 255.1 1156.2 255.1Z" fill="white"/>
<path d="M1154.09 422H958.807C957.203 422 956 417.341 956 411.809V287.191C956 281.513 957.303 277 958.807 277H1154.19C1155.8 277 1157 281.659 1157 287.191V411.809C1157 417.487 1155.7 422 1154.09 422Z" fill="#E63946"/>
<path opacity="0.5" d="M1154.09 422H958.807C957.203 422 956 417.341 956 411.809V287.191C956 281.513 957.303 277 958.807 277H1154.19C1155.8 277 1157 281.659 1157 287.191V411.809C1157 417.487 1155.7 422 1154.09 422Z" fill="white"/>
<path d="M953 413.519V279.481C953 274.786 955.491 271 958.58 271H1147.42C1150.51 271 1153 274.786 1153 279.481V413.519C1153 418.214 1150.51 422 1147.42 422H958.58C955.491 421.849 953 418.062 953 413.519Z" fill="white"/>
<path d="M999.6 360.8H983.2C980.9 360.8 979 358.9 979 356.6V340.2C979 337.9 980.9 336 983.2 336H999.6C1001.9 336 1003.8 337.9 1003.8 340.2V356.6C1003.8 359 1001.9 360.8 999.6 360.8Z" fill="#E63946"/>
<path opacity="0.4" d="M999.6 360.8H983.2C980.9 360.8 979 358.9 979 356.6V340.2C979 337.9 980.9 336 983.2 336H999.6C1001.9 336 1003.8 337.9 1003.8 340.2V356.6C1003.8 359 1001.9 360.8 999.6 360.8Z" fill="white"/>
<path d="M993.4 355.099L985.5 347.199C985.1 346.799 985.1 346.099 985.5 345.699L987.6 343.599C988 343.199 988.7 343.199 989.1 343.599L994.2 348.699L1006.4 336.499C1006.8 336.099 1007.5 336.099 1007.9 336.499L1010 338.599C1010.4 338.999 1010.4 339.699 1010 340.099L995 355.099C994.5 355.499 993.8 355.499 993.4 355.099Z" fill="#E63946"/>
<path d="M1128.2 344.1H1019.8C1018.6 344.1 1017.7 343.2 1017.7 342V341.2C1017.7 340 1018.6 339.1 1019.8 339.1H1128.2C1129.4 339.1 1130.3 340 1130.3 341.2V342C1130.3 343.2 1129.4 344.1 1128.2 344.1Z" fill="#ACB0B5"/>
<path opacity="0.5" d="M1054.2 357.8H1019.8C1018.6 357.8 1017.7 356.9 1017.7 355.7C1017.7 354.5 1018.6 353.6 1019.8 353.6H1054.2C1055.4 353.6 1056.3 354.5 1056.3 355.7C1056.3 356.9 1055.3 357.8 1054.2 357.8Z" fill="#ACB0B5"/>
<path d="M999.6 312.8H983.2C980.9 312.8 979 310.9 979 308.6V292.2C979 289.9 980.9 288 983.2 288H999.6C1001.9 288 1003.8 289.9 1003.8 292.2V308.6C1003.8 311 1001.9 312.8 999.6 312.8Z" fill="#E63946"/>
<path opacity="0.4" d="M999.6 312.8H983.2C980.9 312.8 979 310.9 979 308.6V292.2C979 289.9 980.9 288 983.2 288H999.6C1001.9 288 1003.8 289.9 1003.8 292.2V308.6C1003.8 311 1001.9 312.8 999.6 312.8Z" fill="white"/>
<path d="M993.4 307.099L985.5 299.199C985.1 298.799 985.1 298.099 985.5 297.699L987.6 295.599C988 295.199 988.7 295.199 989.1 295.599L994.2 300.699L1006.4 288.499C1006.8 288.099 1007.5 288.099 1007.9 288.499L1010 290.599C1010.4 290.999 1010.4 291.699 1010 292.099L995 307.099C994.5 307.499 993.8 307.499 993.4 307.099Z" fill="#E63946"/>
<path d="M1128.2 296.1H1019.8C1018.6 296.1 1017.7 295.2 1017.7 294V293.2C1017.7 292 1018.6 291.1 1019.8 291.1H1128.2C1129.4 291.1 1130.3 292 1130.3 293.2V294C1130.3 295.2 1129.4 296.1 1128.2 296.1Z" fill="#ACB0B5"/>
<path opacity="0.5" d="M1054.2 309.8H1019.8C1018.6 309.8 1017.7 308.9 1017.7 307.7C1017.7 306.5 1018.6 305.6 1019.8 305.6H1054.2C1055.4 305.6 1056.3 306.5 1056.3 307.7C1056.3 308.9 1055.3 309.8 1054.2 309.8Z" fill="#ACB0B5"/>
<path d="M1000 408.7H983.6C981.3 408.7 979.4 406.8 979.4 404.5V388.1C979.4 385.8 981.3 383.9 983.6 383.9H1000C1002.3 383.9 1004.2 385.8 1004.2 388.1V404.5C1004.2 406.9 1002.3 408.7 1000 408.7Z" fill="#E63946"/>
<path opacity="0.4" d="M1000 408.7H983.6C981.3 408.7 979.4 406.8 979.4 404.5V388.1C979.4 385.8 981.3 383.9 983.6 383.9H1000C1002.3 383.9 1004.2 385.8 1004.2 388.1V404.5C1004.2 406.9 1002.3 408.7 1000 408.7Z" fill="white"/>
<path d="M993.801 403L985.901 395.1C985.501 394.7 985.501 394 985.901 393.6L988.001 391.5C988.401 391.1 989.101 391.1 989.501 391.5L994.601 396.6L1006.8 384.4C1007.2 384 1007.9 384 1008.3 384.4L1010.4 386.5C1010.8 386.9 1010.8 387.6 1010.4 388L995.401 403C994.901 403.4 994.201 403.4 993.801 403Z" fill="#E63946"/>
<path d="M1128.6 392H1020.2C1019 392 1018.1 391.1 1018.1 389.9V389.1C1018.1 387.9 1019 387 1020.2 387H1128.6C1129.8 387 1130.7 387.9 1130.7 389.1V389.9C1130.7 391.1 1129.8 392 1128.6 392Z" fill="#ACB0B5"/>
<path opacity="0.5" d="M1054.6 405.7H1020.2C1019 405.7 1018.1 404.8 1018.1 403.6C1018.1 402.4 1019 401.5 1020.2 401.5H1054.6C1055.8 401.5 1056.7 402.4 1056.7 403.6C1056.7 404.8 1055.7 405.7 1054.6 405.7Z" fill="#ACB0B5"/>
<path d="M591.6 299.699H770.2C781.9 299.699 791.3 309.099 791.3 320.799V415.999C791.3 427.699 781.9 437.099 770.2 437.099H615.4C614.6 437.099 613.9 437.099 613.1 437.199C600.9 437.799 589.6 444.099 582 453.799L575.6 461.899H565.8L570.5 416.099V320.899C570.5 309.199 580 299.699 591.6 299.699Z" fill="#E63946"/>
<path opacity="0.5" d="M591.7 299.699H770.3C782 299.699 791.4 309.099 791.4 320.799V415.999C791.4 427.699 782 437.099 770.3 437.099H615.5C614.7 437.099 614 437.099 613.2 437.199C601 437.799 589.9 443.999 582.2 453.499L575.6 461.899H565.8L570.6 416.099V320.899C570.6 309.199 580 299.699 591.7 299.699Z" fill="white"/>
<path d="M586.9 299.699H765.5C777.2 299.699 786.6 309.099 786.6 320.799V415.999C786.6 427.699 777.2 437.099 765.5 437.099H610.7C600.2 437.099 590 440.899 582 447.799L565.8 461.799V415.999V320.799C565.8 309.199 575.2 299.699 586.9 299.699Z" fill="#E63946"/>
<path opacity="0.7" d="M586.9 299.699H765.5C777.2 299.699 786.6 309.099 786.6 320.799V415.999C786.6 427.699 777.2 437.099 765.5 437.099H610.7C600.2 437.099 590 440.899 582 447.799L565.8 461.799V415.999V320.799C565.8 309.199 575.2 299.699 586.9 299.699Z" fill="white"/>
<path d="M763.599 418.8H597.899C595.999 418.8 594.399 417.2 594.399 415.4V323.4C594.399 321.5 595.999 320 597.899 320H763.499C765.399 320 766.999 321.6 766.999 323.4V415.4C766.999 417.3 765.499 418.8 763.599 418.8Z" fill="#E63946"/>
<path opacity="0.5" d="M763.599 418.8H597.899C595.999 418.8 594.399 417.2 594.399 415.4V323.4C594.399 321.5 595.999 320 597.899 320H763.499C765.399 320 766.999 321.6 766.999 323.4V415.4C766.999 417.3 765.499 418.8 763.599 418.8Z" fill="white"/>
<path d="M589.899 416.1V322.7C589.899 321.2 592.899 320 596.699 320H755.799C759.499 320 762.599 321.2 762.599 322.7V416.1C762.599 417.6 759.599 418.8 755.799 418.8H596.699C592.899 418.8 589.899 417.6 589.899 416.1Z" fill="white"/>
<path d="M635.5 395.599H633.4C634.6 400.799 641.8 406.499 649.9 406.499C658 406.499 663.6 401.999 665 396.599C665.1 396.099 665.2 395.299 665.2 394.699" fill="#E63946"/>
<path d="M635.801 369.9L635.301 394.9C635.301 395.5 635.401 396.1 635.801 396.6L636.001 397C641.801 406.2 654.601 407.3 661.801 399.1C662.601 398.2 663.701 395.9 663.501 394.8L660.301 368.5L635.801 369.9Z" fill="#F99A9A"/>
<path d="M663.201 358.299C663.201 358.299 667.201 391.299 649.101 392.099C631.401 392.899 631.801 359.699 631.801 359.699L631.601 350.199L654.501 346.799L660.201 349.899L663.201 358.299Z" fill="#F99A9A"/>
<path opacity="0.15" d="M662.701 389.7L661.601 380.6C659.801 386.4 656.301 391.1 650.301 391.9H650.401C650.001 391.9 649.501 392 649.101 392C644.401 392.2 640.501 389.9 637.601 385.2C637.501 385 637.201 384.9 637.101 385.1C637.001 385.3 636.801 385.5 637.001 385.6C640.001 390.7 644.101 393.1 649.201 392.9C650.301 392.9 651.301 392.7 652.301 392.4C655.501 392.9 659.201 392.2 662.701 389.7Z" fill="black"/>
<path d="M659.101 350.8C659.101 350.8 665.001 347.1 667.501 353.8C669.601 359.4 665.601 365.3 665.601 365.3L662.301 364.8C660.901 364.7 660.001 364 659.901 362.7L659.101 350.8Z" fill="#21252B"/>
<path d="M663.3 346.9C663.6 353.2 658.2 354.6 656 354.8L638.1 355.8C636.6 355.9 635.5 357.1 635.5 358.6L635.6 364.3C635.6 365.1 635.1 365.7 634.3 365.8L633.2 365.9L631.9 367.4C624.9 365.5 622.6 345.5 635.6 341.9C636.9 341.5 638.2 340.5 638.9 339.3C640.9 335.5 648.6 334.7 652.4 339.1C653.2 340.1 654.2 340.5 655.5 340.5C660.2 340.5 663.2 343.5 663.3 346.9Z" fill="#21252B"/>
<path d="M633.301 367.899C633.101 365.599 630.401 364.299 628.601 365.799L628.501 365.899C625.301 368.499 627.101 376.899 633.901 376.399L633.301 367.899Z" fill="#F99A9A"/>
<path d="M667.201 364.399C665.201 363.099 662.601 364.599 662.601 366.899L662.701 374.899C669.701 374.799 670.501 366.699 667.201 364.399Z" fill="#F99A9A"/>
<path d="M634.2 368.899C634.2 369.299 633.9 369.699 633.4 369.699C633 369.699 632.6 369.399 632.5 369.099L631.9 363.699L634.1 363.799L634.2 368.899Z" fill="#21252B"/>
<path d="M664 367.6C664 368 663.7 368.4 663.2 368.4C662.8 368.4 662.4 368.1 662.3 367.8L661.7 362.4L663.9 362.5L664 367.6Z" fill="#21252B"/>
<path d="M656.2 355.6C655.7 355.6 655.4 355.6 655.3 355.6C655.1 355.6 654.9 355.4 654.9 355.2C654.9 355 655.1 354.8 655.3 354.8C655.4 354.8 658.9 355.1 660.5 352.8C660.6 352.6 660.9 352.6 661 352.7C661.1 352.8 661.2 353.1 661.1 353.2C659.8 355.2 657.5 355.6 656.2 355.6Z" fill="#F99A9A"/>
<path d="M643.854 371.244C643.879 370.361 643.183 369.625 642.3 369.6C641.416 369.575 640.68 370.271 640.655 371.155C640.63 372.038 641.326 372.774 642.21 372.799C643.093 372.824 643.829 372.128 643.854 371.244Z" fill="#21252B"/>
<path d="M641.923 370.982C641.929 370.761 641.755 370.577 641.535 370.571C641.314 370.565 641.13 370.739 641.124 370.96C641.117 371.18 641.291 371.364 641.512 371.371C641.733 371.377 641.917 371.203 641.923 370.982Z" fill="white"/>
<path d="M656.049 370.725C656.074 369.842 655.378 369.105 654.495 369.081C653.612 369.056 652.875 369.752 652.851 370.635C652.826 371.518 653.522 372.255 654.405 372.279C655.288 372.304 656.024 371.608 656.049 370.725Z" fill="#21252B"/>
<path d="M654.074 370.527C654.08 370.306 653.906 370.122 653.685 370.116C653.464 370.11 653.28 370.284 653.274 370.504C653.268 370.725 653.442 370.909 653.663 370.916C653.883 370.922 654.067 370.748 654.074 370.527Z" fill="white"/>
<g opacity="0.3">
<path opacity="0.3" d="M648.901 378.899L650.201 378.799C650.401 378.799 650.601 378.599 650.601 378.299C650.601 378.099 650.401 377.899 650.101 377.899L648.801 377.999C648.301 377.999 647.801 377.599 647.801 377.099C647.801 376.599 648.201 376.099 648.701 376.099C648.901 376.099 649.101 375.899 649.101 375.599C649.101 375.399 648.901 375.199 648.601 375.199C647.601 375.199 646.801 376.099 646.801 377.199C647.001 378.099 647.901 378.899 648.901 378.899Z" fill="black"/>
</g>
<path d="M658.901 366.6L652.001 366.8H651.101L645.101 367H645.001L637.301 367.2C636.001 367.2 635.101 368.3 635.101 369.6L635.201 371.4C635.301 374.8 638.101 377.5 641.501 377.4C644.901 377.3 647.601 374.5 647.501 371.1L647.401 369.3C647.401 368.8 647.201 368.3 646.901 368L649.301 367.9C649.001 368.3 648.901 368.7 648.901 369.3L649.001 371.1C649.101 374.5 651.901 377.2 655.301 377.1C658.701 377 661.401 374.2 661.301 370.8L661.201 369C661.201 367.5 660.201 366.6 658.901 366.6ZM646.601 369.2L646.701 371C646.801 373.9 644.501 376.3 641.601 376.4C638.701 376.5 636.301 374.2 636.201 371.3L636.101 369.5C636.101 368.8 636.701 368.1 637.401 368.1L645.101 367.9H645.201C646.001 367.9 646.601 368.4 646.601 369.2ZM660.401 370.6C660.501 373.5 658.201 375.9 655.301 376C652.401 376.1 650.001 373.8 649.901 370.9L649.801 369.1C649.801 368.4 650.401 367.7 651.101 367.7H652.001L658.901 367.5C659.601 367.5 660.301 368.1 660.301 368.8L660.401 370.6Z" fill="#21252B"/>
<g opacity="0.3">
<path opacity="0.3" d="M631.5 372.2C631.3 372.2 631.1 372 631 371.8L630.9 370.8C630.8 369.8 630.5 369 630.1 368.7C629.7 368.4 629.4 368.4 629.4 368.4C629.2 368.5 628.9 368.3 628.9 368C628.8 367.8 629 367.5 629.3 367.5C629.4 367.5 630 367.4 630.7 367.9C631.4 368.4 631.7 369.4 631.8 370.7L631.9 371.7C632 371.9 631.8 372.1 631.5 372.2Z" fill="black"/>
</g>
<g opacity="0.3">
<path opacity="0.3" d="M664.901 370.599C665.101 370.599 665.301 370.399 665.301 370.099V369.099C665.301 368.099 665.501 367.299 665.901 366.899C666.201 366.499 666.601 366.599 666.601 366.599C666.801 366.599 667.001 366.399 667.101 366.199C667.101 365.999 666.901 365.799 666.701 365.699C666.601 365.699 665.901 365.699 665.401 366.299C664.801 366.899 664.501 367.899 664.501 369.199V370.199C664.401 370.399 664.601 370.599 664.901 370.599Z" fill="black"/>
</g>
<g opacity="0.3">
<path opacity="0.3" d="M651.7 384C650.3 384.5 649.7 384.8 649.7 384.8C649.4 384.9 649.2 384.8 649.1 384.5C649 384.2 649.1 384 649.4 383.9C649.4 383.9 650 383.6 651.4 383.1C651.7 383 651.9 383.1 652 383.3C652.1 383.6 652 383.9 651.7 384Z" fill="black"/>
</g>
<g opacity="0.3">
<path opacity="0.3" d="M651.9 381.7C648.3 383.4 646 381.8 645.1 381C644.9 380.8 644.9 380.6 645.1 380.3C645.3 380.1 645.5 380.1 645.8 380.3C646.6 381.1 649.2 382.7 653.2 379.9C653.4 379.8 653.7 379.8 653.8 380C653.9 380.2 653.9 380.5 653.7 380.6C653.1 381.2 652.5 381.5 651.9 381.7Z" fill="black"/>
</g>
<path d="M731.73 382.349H718.84V381.059C718.84 378.869 719.09 377.089 719.59 375.719C720.09 374.349 720.83 373.099 721.81 371.969C722.79 370.839 725 368.849 728.44 365.999C730.27 364.509 731.19 363.139 731.19 361.899C731.19 360.659 730.82 359.689 730.09 358.999C729.35 358.309 728.24 357.969 726.75 357.969C725.14 357.969 723.82 358.499 722.76 359.559C721.71 360.619 721.04 362.479 720.74 365.119L707.58 363.489C708.03 358.649 709.79 354.759 712.85 351.809C715.91 348.859 720.61 347.379 726.94 347.379C731.87 347.379 735.85 348.409 738.88 350.469C742.99 353.249 745.05 356.959 745.05 361.589C745.05 363.509 744.52 365.369 743.46 367.149C742.4 368.929 740.23 371.119 736.95 373.699C734.67 375.509 733.22 376.959 732.63 378.059C732.04 379.159 731.73 380.589 731.73 382.349ZM718.4 385.779H732.2V397.959H718.4V385.779Z" fill="#E63946"/>
<g opacity="0.15">
<path opacity="0.15" d="M549.5 523.789C545.57 522.959 543.25 520.799 543.13 520.689C542.83 520.399 542.82 519.929 543.1 519.629C543.39 519.329 543.86 519.319 544.16 519.599C544.19 519.629 546.34 521.619 549.95 522.349C549.95 522.349 549.83 522.789 549.73 523.089C549.64 523.389 549.5 523.789 549.5 523.789Z" fill="black"/>
</g>
<path d="M791.52 667.07H747.51C746.66 667.07 745.97 666.38 745.97 665.53C745.97 664.68 746.66 663.99 747.51 663.99H791.52C792.37 663.99 793.06 664.68 793.06 665.53C793.06 666.38 792.37 667.07 791.52 667.07Z" fill="#E63946"/>
<path d="M765.91 678.84H746.09C745.24 678.84 744.55 678.15 744.55 677.3C744.55 676.45 745.24 675.76 746.09 675.76H765.91C766.76 675.76 767.45 676.45 767.45 677.3C767.45 678.15 766.76 678.84 765.91 678.84Z" fill="#E63946"/>
<path d="M791.52 667.07H747.51C746.66 667.07 745.97 666.38 745.97 665.53C745.97 664.68 746.66 663.99 747.51 663.99H791.52C792.37 663.99 793.06 664.68 793.06 665.53C793.06 666.38 792.37 667.07 791.52 667.07Z" fill="white"/>
<path d="M765.91 678.84H746.09C745.24 678.84 744.55 678.15 744.55 677.3C744.55 676.45 745.24 675.76 746.09 675.76H765.91C766.76 675.76 767.45 676.45 767.45 677.3C767.45 678.15 766.76 678.84 765.91 678.84Z" fill="white"/>
<path d="M804.41 667.07H799.12C798.27 667.07 797.58 666.38 797.58 665.53C797.58 664.68 798.27 663.99 799.12 663.99H804.41C805.26 663.99 805.95 664.68 805.95 665.53C805.95 666.38 805.26 667.07 804.41 667.07Z" fill="#E63946"/>
<path d="M737.83 668.699H733.84C733.11 668.699 732.57 668.039 732.71 667.319L733.51 663.289C733.62 662.749 734.09 662.359 734.64 662.359H738.63C739.36 662.359 739.9 663.019 739.76 663.739L738.96 667.769C738.85 668.309 738.38 668.699 737.83 668.699Z" fill="#E63946"/>
<path d="M737.83 668.699H733.84C733.11 668.699 732.57 668.039 732.71 667.319L733.51 663.289C733.62 662.749 734.09 662.359 734.64 662.359H738.63C739.36 662.359 739.9 663.019 739.76 663.739L738.96 667.769C738.85 668.309 738.38 668.699 737.83 668.699Z" fill="white"/>
<path d="M735.73 680.1H731.74C731.01 680.1 730.47 679.44 730.61 678.72L731.41 674.69C731.52 674.15 731.99 673.76 732.54 673.76H736.53C737.26 673.76 737.8 674.42 737.66 675.14L736.86 679.17C736.75 679.71 736.28 680.1 735.73 680.1Z" fill="#3F4249"/>
<path d="M795.932 641.711H751.922C751.072 641.711 750.382 641.021 750.382 640.171C750.382 639.321 751.072 638.631 751.922 638.631H795.932C796.782 638.631 797.472 639.321 797.472 640.171C797.472 641.021 796.782 641.711 795.932 641.711Z" fill="white"/>
<path d="M770.322 653.481H750.502C749.652 653.481 748.962 652.791 748.962 651.941C748.962 651.091 749.652 650.401 750.502 650.401H770.322C771.172 650.401 771.862 651.091 771.862 651.941C771.862 652.791 771.172 653.481 770.322 653.481Z" fill="white"/>
<path d="M808.822 641.711H803.532C802.682 641.711 801.992 641.021 801.992 640.171C801.992 639.321 802.682 638.631 803.532 638.631H808.822C809.672 638.631 810.362 639.321 810.362 640.171C810.362 641.021 809.672 641.711 808.822 641.711Z" fill="#E63946"/>
<path d="M742.242 643.34H738.252C737.522 643.34 736.982 642.68 737.122 641.96L737.922 637.93C738.032 637.39 738.502 637 739.052 637H743.042C743.772 637 744.312 637.66 744.172 638.38L743.372 642.41C743.262 642.95 742.792 643.34 742.242 643.34Z" fill="#E63946"/>
<path d="M742.242 643.34H738.252C737.522 643.34 736.982 642.68 737.122 641.96L737.922 637.93C738.032 637.39 738.502 637 739.052 637H743.042C743.772 637 744.312 637.66 744.172 638.38L743.372 642.41C743.262 642.95 742.792 643.34 742.242 643.34Z" fill="white"/>
<path d="M740.142 654.741H736.152C735.422 654.741 734.882 654.081 735.022 653.361L735.822 649.331C735.932 648.791 736.402 648.401 736.952 648.401H740.942C741.672 648.401 742.212 649.061 742.072 649.781L741.272 653.811C741.162 654.351 740.692 654.741 740.142 654.741Z" fill="#3F4249"/>
<path d="M800.932 615.711H756.922C756.072 615.711 755.382 615.021 755.382 614.171C755.382 613.321 756.072 612.631 756.922 612.631H800.932C801.782 612.631 802.472 613.321 802.472 614.171C802.472 615.021 801.782 615.711 800.932 615.711Z" fill="white"/>
<path d="M775.322 627.481H755.502C754.652 627.481 753.962 626.791 753.962 625.941C753.962 625.091 754.652 624.401 755.502 624.401H775.322C776.172 624.401 776.862 625.091 776.862 625.941C776.862 626.791 776.172 627.481 775.322 627.481Z" fill="white"/>
<path d="M813.822 615.711H808.532C807.682 615.711 806.992 615.021 806.992 614.171C806.992 613.321 807.682 612.631 808.532 612.631H813.822C814.672 612.631 815.362 613.321 815.362 614.171C815.362 615.021 814.672 615.711 813.822 615.711Z" fill="#E63946"/>
<path d="M747.242 617.34H743.252C742.522 617.34 741.982 616.68 742.122 615.96L742.922 611.93C743.032 611.39 743.502 611 744.052 611H748.042C748.772 611 749.312 611.66 749.172 612.38L748.372 616.41C748.262 616.95 747.792 617.34 747.242 617.34Z" fill="#E63946"/>
<path d="M747.242 617.34H743.252C742.522 617.34 741.982 616.68 742.122 615.96L742.922 611.93C743.032 611.39 743.502 611 744.052 611H748.042C748.772 611 749.312 611.66 749.172 612.38L748.372 616.41C748.262 616.95 747.792 617.34 747.242 617.34Z" fill="white"/>
<path d="M745.142 628.741H741.152C740.422 628.741 739.882 628.081 740.022 627.361L740.822 623.331C740.932 622.791 741.402 622.401 741.952 622.401H745.942C746.672 622.401 747.212 623.061 747.072 623.781L746.272 627.811C746.162 628.351 745.692 628.741 745.142 628.741Z" fill="#3F4249"/>
<path d="M779.589 630.719C779.659 630.719 779.729 630.649 779.729 630.579C779.729 630.509 779.659 630.439 779.589 630.439C779.519 630.439 779.449 630.509 779.449 630.579C779.459 630.649 779.519 630.719 779.589 630.719Z" fill="white"/>
<g opacity="0.3">
<path opacity="0.3" d="M775.14 636.221C775.14 636.291 775.14 636.291 775.14 636.221C775.77 636.431 776.05 636.571 776.05 636.571C776.19 636.571 776.26 636.571 776.33 636.431C776.33 636.291 776.33 636.221 776.19 636.151C776.19 636.151 775.91 636.011 775.28 635.801C775.14 635.801 775.07 635.801 775 635.941C775 636.091 775 636.221 775.14 636.221Z" fill="black"/>
</g>
<g opacity="0.3">
<path opacity="0.3" d="M775.07 635.25C776.67 636.02 777.65 635.32 778.07 634.97C778.14 634.9 778.14 634.76 778.07 634.69C778 634.62 777.86 634.62 777.79 634.69C777.44 635.04 776.33 635.74 774.52 634.55C774.45 634.48 774.31 634.55 774.24 634.62C774.17 634.69 774.24 634.831 774.31 634.901C774.51 634.971 774.79 635.18 775.07 635.25Z" fill="black"/>
</g>
<g opacity="0.1">
<path opacity="0.1" d="M700.781 322.549L600.356 322.304C599.678 322.302 599.13 322.848 599.13 323.523L598.909 414.096C598.905 414.772 599.453 415.32 600.127 415.322L700.553 415.567C701.227 415.569 701.775 415.023 701.779 414.348L702 323.775C702 323.1 701.456 322.551 700.781 322.549Z" fill="black"/>
</g>
<path d="M698.779 322.247L598.446 322C597.768 321.998 597.221 322.548 597.221 323.229L597 414.518C596.996 415.198 597.544 415.751 598.217 415.753L698.554 416C699.228 416.002 699.775 415.452 699.779 414.771L700 323.482C700 322.802 699.456 322.249 698.779 322.247Z" fill="#3F4249"/>
<path d="M695 327H601V400H695V327Z" fill="#E63946"/>
<path opacity="0.7" d="M695 327H601V400H695V327Z" fill="white"/>
<path d="M602 400L634.469 352L654.599 382.019L668.243 365.965L695 399.976L602 400Z" fill="#E63946"/>
<path d="M661 346.496C661 350.087 658.317 353 655.002 353C651.687 353 649 350.091 649 346.5C649 342.909 651.683 340 654.998 340C658.313 340 661 342.905 661 346.496Z" fill="#E63946"/>
<path opacity="0.1" d="M657.479 340C658.219 340.664 658.808 341.486 659.209 342.409C659.611 343.332 659.814 344.334 659.806 345.346C659.806 349.118 657.05 352.177 653.645 352.177C652.726 352.176 651.819 351.947 651 351.511C652.066 352.467 653.426 352.995 654.838 353C658.243 353 660.999 349.94 660.999 346.169C661.019 344.906 660.701 343.661 660.08 342.572C659.46 341.484 658.557 340.594 657.479 340Z" fill="black"/>
<path opacity="0.1" d="M668 366L685.111 400L695 399.924L668 366Z" fill="black"/>
<path opacity="0.1" d="M635 353L648.128 391L654 382.804L635 353Z" fill="black"/>
</g>
<defs>
<clipPath id="clip0_506_3130">
<rect width="1598" height="1199" fill="white"/>
</clipPath>
</defs>
</svg>
