<svg width="1598" height="1199" viewBox="0 0 1598 1199" fill="none" xmlns="http://www.w3.org/2000/svg">
<g clip-path="url(#clip0_506_245)">
<path d="M222.252 1073.21L175.311 497.585C174.101 482.913 178.163 468.292 186.766 456.349L421.033 132.04C427.295 123.375 435.697 116.484 445.419 112.04C455.139 107.597 465.847 105.754 476.494 106.691L1278.4 177.422C1291.08 178.539 1303.12 183.556 1312.85 191.785C1322.57 200.013 1329.52 211.051 1332.72 223.384L1442.89 647.58C1445.6 658.01 1445.53 668.967 1442.69 679.363L1334.89 1074.61L222.252 1073.21Z" fill="#F4F4F4"/>
<path d="M486.76 296.823H346.935V389.215H486.76V296.823Z" fill="#E63946"/>
<path d="M486.76 296.823H346.935V389.215H486.76V296.823Z" fill="#E0E0E0"/>
<path d="M481.827 300.599H351.8V385.089H481.827V300.599Z" fill="#FAFAFA"/>
<path d="M462.702 317.775H370.837V367.893H462.702V317.775Z" fill="#E0E0E0"/>
<path d="M255.944 949.954L255.565 1048.74L379.07 1049.2L379.448 950.428L255.944 949.954Z" fill="#DADDDF"/>
<path d="M260.184 956.176L259.853 1042.52L374.678 1042.96L375.01 956.617L260.184 956.176Z" fill="#B2B6BB"/>
<g opacity="0.3">
<path opacity="0.3" d="M255.944 949.954L255.565 1048.74L379.07 1049.2L379.448 950.428L255.944 949.954Z" fill="black"/>
</g>
<path d="M259.835 1042.49L300.144 988.975L324.863 1022.65L341.782 1004.76L374.661 1042.93L259.835 1042.49Z" fill="#B2B6BB"/>
<path d="M335.58 982.541C335.572 984.329 335.035 986.076 334.034 987.558C333.034 989.041 331.617 990.194 329.961 990.871C328.306 991.547 326.487 991.718 324.736 991.36C322.984 991.003 321.377 990.133 320.118 988.862C318.861 987.591 318.008 985.975 317.667 984.219C317.328 982.463 317.517 980.645 318.21 978.996C318.902 977.347 320.068 975.94 321.561 974.955C323.053 973.969 324.803 973.448 326.591 973.458C327.78 973.458 328.956 973.693 330.052 974.151C331.149 974.608 332.143 975.279 332.979 976.123C333.815 976.968 334.475 977.969 334.922 979.071C335.368 980.173 335.592 981.352 335.58 982.541Z" fill="#B2B6BB"/>
<path d="M237.806 939.683L237.428 1038.46L360.932 1038.93L361.311 940.158L237.806 939.683Z" fill="#DADDDF"/>
<path d="M242.037 945.915L241.705 1032.26L356.531 1032.7L356.862 946.356L242.037 945.915Z" fill="#B2B6BB"/>
<path opacity="0.2" d="M237.984 939.923L237.607 1038.19L360.582 1038.66L360.959 940.396L237.984 939.923Z" fill="black"/>
<path d="M241.698 1032.23L282.007 978.704L306.726 1012.39L323.645 994.49L356.524 1032.67L241.698 1032.23Z" fill="#B2B6BB"/>
<path d="M317.424 972.269C317.416 974.059 316.877 975.804 315.877 977.287C314.877 978.771 313.46 979.923 311.805 980.6C310.149 981.277 308.33 981.447 306.578 981.09C304.826 980.732 303.219 979.863 301.962 978.592C300.704 977.32 299.851 975.704 299.511 973.948C299.171 972.192 299.359 970.375 300.052 968.725C300.746 967.076 301.911 965.67 303.403 964.683C304.895 963.698 306.646 963.177 308.435 963.187C310.829 963.203 313.12 964.168 314.805 965.87C316.49 967.573 317.432 969.874 317.424 972.269Z" fill="#B2B6BB"/>
<path d="M221.655 931.197L221.276 1029.97L344.78 1030.45L345.159 931.672L221.655 931.197Z" fill="#DADDDF"/>
<path d="M225.885 937.429L225.554 1023.78L340.379 1024.22L340.711 937.87L225.885 937.429Z" fill="#B2B6BB"/>
<path opacity="0.1" d="M221.295 930.797L220.912 1030.37L344.966 1030.85L345.349 931.273L221.295 930.797Z" fill="black"/>
<path d="M225.548 1023.75L265.857 970.221L290.576 1003.9L307.495 986.018L340.374 1024.19L225.548 1023.75Z" fill="#B2B6BB"/>
<path d="M301.272 963.786C301.266 965.578 300.729 967.327 299.729 968.814C298.728 970.3 297.309 971.455 295.652 972.134C293.994 972.813 292.172 972.985 290.417 972.627C288.663 972.269 287.054 971.399 285.793 970.125C284.533 968.852 283.679 967.233 283.339 965.475C283 963.715 283.189 961.895 283.884 960.243C284.579 958.593 285.748 957.185 287.243 956.199C288.739 955.212 290.492 954.692 292.283 954.704C294.678 954.72 296.969 955.685 298.653 957.388C300.338 959.089 301.28 961.391 301.272 963.786Z" fill="#B2B6BB"/>
<path d="M203.556 941.859L203.178 1040.63L326.682 1041.11L327.061 942.333L203.556 941.859Z" fill="#DADDDF"/>
<path d="M207.798 948.09L207.467 1034.44L322.293 1034.88L322.624 948.532L207.798 948.09Z" fill="#B2B6BB"/>
<path d="M207.461 1034.4L247.771 980.882L272.49 1014.55L289.409 996.669L322.288 1034.84L207.461 1034.4Z" fill="#F4F4F4"/>
<path d="M283.185 974.447C283.177 976.236 282.639 977.982 281.639 979.465C280.639 980.948 279.222 982.101 277.566 982.777C275.911 983.455 274.092 983.625 272.34 983.267C270.588 982.91 268.981 982.041 267.723 980.769C266.466 979.498 265.613 977.882 265.272 976.126C264.932 974.369 265.121 972.552 265.814 970.903C266.506 969.254 267.673 967.848 269.165 966.862C270.657 965.877 272.408 965.355 274.196 965.365C275.384 965.365 276.561 965.601 277.657 966.058C278.753 966.516 279.748 967.186 280.584 968.031C281.42 968.875 282.08 969.877 282.526 970.978C282.973 972.08 283.197 973.259 283.185 974.447Z" fill="#F4F4F4"/>
<path d="M398.453 978.036L327.153 978.223L327.402 1073.6L398.703 1073.41L398.453 978.036Z" fill="#E63946"/>
<path opacity="0.2" d="M398.453 978.036L327.153 978.223L327.402 1073.6L398.703 1073.41L398.453 978.036Z" fill="black"/>
<path d="M190.591 978.584L190.841 1073.96L333.453 1073.59L333.203 978.184L190.591 978.584ZM277.123 1000.94L246.801 1001.02C245.061 1001.02 243.391 1000.33 242.161 999.093C240.93 997.862 240.239 996.192 240.239 994.451C240.239 992.71 240.93 991.039 242.161 989.808C243.391 988.577 245.061 987.886 246.801 987.886L277.123 987.806C278.864 987.806 280.533 988.497 281.763 989.728C282.994 990.959 283.685 992.63 283.685 994.371C283.685 996.111 282.994 997.782 281.763 999.013C280.533 1000.25 278.864 1000.94 277.123 1000.94Z" fill="#E63946"/>
<path d="M1340.1 677.135V684.079H1438.56L1439.71 679.863C1442.54 669.468 1442.61 658.51 1439.91 648.079L1436.45 634.771V677.135H1340.1Z" fill="#DADDDF"/>
<path d="M1222.28 684.069H1329.86V677.215L1320.81 677.285L1320.91 677.135H1233.55L1233.45 677.285L1233.5 615.237V603.527H1229.09V600.049H1233.5V589.958V525.771H1229.09V522.294H1233.5V492.319V448.006H1229.09V444.529H1233.5V350.598H1272.54H1277.18H1312.61H1317.25H1320.12H1352.66H1357.31H1362.64L1360.04 340.536H1222.28V684.069Z" fill="#DADDDF"/>
<path d="M1312.61 362.887V350.598H1277.18V420.839L1312.61 362.887Z" fill="#F4F4F4"/>
<path d="M1320.12 350.598H1317.25V355.284L1320.12 350.598Z" fill="#F4F4F4"/>
<path d="M1272.54 428.443V350.598H1233.5V444.529H1262.7L1272.54 428.443Z" fill="#F4F4F4"/>
<path d="M1352.66 392.633L1321.32 444.529H1336.2L1352.66 417.162V392.633Z" fill="#F4F4F4"/>
<path d="M1287.32 525.771H1272.26L1233.5 589.958V600.05H1242.63L1287.32 525.771Z" fill="#F4F4F4"/>
<path d="M1340.1 600.05H1367.53L1409.44 530.767L1408.14 525.771H1340.1V600.05Z" fill="#F4F4F4"/>
<path d="M1365.43 603.527H1340.1V645.392L1365.43 603.527Z" fill="#F4F4F4"/>
<path d="M1340.1 505.908V522.294H1407.24L1387.94 448.006H1376.14L1340.1 505.908Z" fill="#F4F4F4"/>
<path d="M1427.43 600.049L1414.71 551.061L1385.72 600.049H1427.43Z" fill="#F4F4F4"/>
<path d="M1289.42 522.294L1329.86 455.08V448.006H1319.22L1274.35 522.294H1289.42Z" fill="#F4F4F4"/>
<path d="M1281.52 600.05H1329.86V525.771H1327.75L1281.52 600.05Z" fill="#F4F4F4"/>
<path d="M1329.86 603.527H1279.35L1233.55 677.135H1320.91L1329.86 662.348V603.527Z" fill="#F4F4F4"/>
<path d="M1233.5 603.527V615.237L1240.55 603.527H1233.5Z" fill="#F4F4F4"/>
<path d="M1233.5 448.006V492.319L1260.58 448.006H1233.5Z" fill="#F4F4F4"/>
<path d="M1340.1 677.135H1436.45V634.771L1428.33 603.527H1383.66L1340.1 677.135Z" fill="#F4F4F4"/>
<path d="M1357.31 409.439L1371.71 385.499L1367.28 368.423L1357.31 384.939V409.439Z" fill="#F4F4F4"/>
<path d="M1387.04 444.529L1384.47 434.617L1378.29 444.529H1387.04Z" fill="#F4F4F4"/>
<path d="M1357.31 384.939L1367.28 368.423L1362.64 350.598H1357.31V384.939Z" fill="#F4F4F4"/>
<path opacity="0.5" d="M1357.31 384.939L1367.28 368.423L1362.64 350.598H1357.31V384.939Z" fill="white"/>
<path d="M1319.22 448.006H1260.58L1233.5 492.319V522.294H1274.35L1319.22 448.006Z" fill="#F4F4F4"/>
<path opacity="0.5" d="M1319.22 448.006H1260.58L1233.5 492.319V522.294H1274.35L1319.22 448.006Z" fill="white"/>
<path d="M1262.7 444.529H1272.54V428.443L1262.7 444.529Z" fill="#F4F4F4"/>
<path opacity="0.5" d="M1262.7 444.529H1272.54V428.443L1262.7 444.529Z" fill="white"/>
<path d="M1317.25 444.529H1321.32L1352.66 392.633V350.598H1320.12L1317.25 355.284V444.529Z" fill="#F4F4F4"/>
<path opacity="0.5" d="M1317.25 444.529H1321.32L1352.66 392.633V350.598H1320.12L1317.25 355.284V444.529Z" fill="white"/>
<path d="M1233.5 525.771V589.958L1272.26 525.771H1233.5Z" fill="#F4F4F4"/>
<path opacity="0.5" d="M1233.5 525.771V589.958L1272.26 525.771H1233.5Z" fill="white"/>
<path d="M1277.18 420.839V444.529H1312.61V362.887L1277.18 420.839Z" fill="#F4F4F4"/>
<path opacity="0.5" d="M1277.18 420.839V444.529H1312.61V362.887L1277.18 420.839Z" fill="white"/>
<path d="M1233.5 615.237L1233.45 677.285L1233.55 677.135H1233.5V615.237Z" fill="#DADDDF"/>
<path opacity="0.5" d="M1233.5 615.237L1233.45 677.285L1233.55 677.135H1233.5V615.237Z" fill="white"/>
<path d="M1240.55 603.527L1233.5 615.237V677.135H1233.55L1279.35 603.527H1240.55Z" fill="#F4F4F4"/>
<path opacity="0.5" d="M1240.55 603.527L1233.5 615.237V677.135H1233.55L1279.35 603.527H1240.55Z" fill="white"/>
<path d="M1329.86 522.294V455.081L1289.42 522.294H1329.86Z" fill="#F4F4F4"/>
<path opacity="0.5" d="M1329.86 522.294V455.081L1289.42 522.294H1329.86Z" fill="white"/>
<path d="M1287.32 525.771L1242.63 600.05H1281.52L1327.75 525.771H1287.32Z" fill="#F4F4F4"/>
<path opacity="0.5" d="M1287.32 525.771L1242.63 600.05H1281.52L1327.75 525.771H1287.32Z" fill="white"/>
<path d="M1336.2 444.529H1352.66V417.162L1336.2 444.529Z" fill="#F4F4F4"/>
<path opacity="0.5" d="M1336.2 444.529H1352.66V417.162L1336.2 444.529Z" fill="white"/>
<path d="M1376.14 448.006H1340.1V505.908L1376.14 448.006Z" fill="#F4F4F4"/>
<path opacity="0.5" d="M1376.14 448.006H1340.1V505.908L1376.14 448.006Z" fill="white"/>
<path d="M1357.31 444.529H1378.3L1384.47 434.618L1371.71 385.499L1357.31 409.439V444.529Z" fill="#F4F4F4"/>
<path opacity="0.5" d="M1357.31 444.529H1378.3L1384.47 434.618L1371.71 385.499L1357.31 409.439V444.529Z" fill="white"/>
<path d="M1320.91 677.135L1320.81 677.285L1329.86 677.215V677.135H1320.91Z" fill="#DADDDF"/>
<path opacity="0.5" d="M1320.91 677.135L1320.81 677.285L1329.86 677.215V677.135H1320.91Z" fill="white"/>
<path d="M1340.1 677.135L1383.66 603.527H1365.43L1340.1 645.392V677.135Z" fill="#F4F4F4"/>
<path opacity="0.5" d="M1340.1 677.135L1383.66 603.527H1365.43L1340.1 645.392V677.135Z" fill="white"/>
<path d="M1329.86 662.348L1320.91 677.135H1329.86V662.348Z" fill="#F4F4F4"/>
<path opacity="0.5" d="M1329.86 662.348L1320.91 677.135H1329.86V662.348Z" fill="white"/>
<path d="M1385.72 600.05L1414.71 551.06L1409.44 530.767L1367.53 600.05H1385.72Z" fill="#F4F4F4"/>
<path opacity="0.5" d="M1385.72 600.05L1414.71 551.06L1409.44 530.767L1367.53 600.05H1385.72Z" fill="white"/>
<path d="M1357.31 444.529V446.268H1352.66V444.529H1336.2H1321.32H1317.25V446.268H1312.61V444.529H1277.18V446.268H1272.54V444.529H1262.7H1233.5H1229.09V448.006H1233.5H1260.58H1319.22H1329.86V446.278H1340.1V448.006H1376.14H1387.94L1387.04 444.529H1378.3H1357.31Z" fill="#DADDDF"/>
<path d="M1287.32 525.773H1327.75H1329.86V522.294H1289.42H1274.36H1233.5H1229.09V525.773H1233.5H1272.26H1287.32Z" fill="#DADDDF"/>
<path d="M1340.1 525.773H1408.14L1407.24 522.294H1340.1V525.773Z" fill="#DADDDF"/>
<path d="M1279.35 603.527H1329.86V600.05H1281.52H1242.63H1233.5H1229.09V603.527H1233.5H1240.55H1279.35Z" fill="#DADDDF"/>
<path d="M1367.53 600.05H1340.1V603.527H1365.43H1383.66H1428.33L1427.43 600.05H1385.72H1367.53Z" fill="#DADDDF"/>
<path d="M1340.1 677.135V645.392V603.527V600.05V525.772V522.294V505.908V448.006V446.278H1329.86V448.006V455.08V522.294V525.772V600.05V603.527V662.348V677.135V677.215V684.07H1340.1V677.135Z" fill="#DADDDF"/>
<path d="M1352.66 417.162V444.529V446.268H1357.31V444.529V409.439V384.939V350.598H1352.66V392.633V417.162Z" fill="#DADDDF"/>
<path d="M1312.61 444.529V446.268H1317.25V444.529V355.284V350.598H1312.61V362.887V444.529Z" fill="#DADDDF"/>
<path d="M1272.54 444.529V446.268H1277.18V444.529V420.839V350.598H1272.54V428.443V444.529Z" fill="#DADDDF"/>
<path d="M1214.23 332.453C1213.57 333.115 1213.12 333.959 1212.93 334.877C1212.75 335.795 1212.85 336.747 1213.2 337.612C1213.56 338.477 1214.17 339.216 1214.95 339.737C1215.73 340.257 1216.64 340.535 1217.58 340.536H1360.04L1357.58 331.064H1217.58C1216.32 331.07 1215.12 331.569 1214.23 332.453Z" fill="#DADDDF"/>
<path d="M1222.17 687.347H1210.89C1210.32 687.342 1209.74 687.454 1209.2 687.675C1208.67 687.896 1208.18 688.223 1207.77 688.636C1207.35 689.044 1207.01 689.529 1206.77 690.065C1206.55 690.604 1206.44 691.181 1206.44 691.763C1206.44 692.342 1206.55 692.914 1206.77 693.449C1206.99 693.983 1207.32 694.469 1207.72 694.879C1208.13 695.288 1208.62 695.612 1209.15 695.834C1209.69 696.056 1210.26 696.169 1210.83 696.169H1435.22L1437.59 687.477H1222.17V687.347Z" fill="#DADDDF"/>
<path opacity="0.1" d="M1222.29 684.08H1222.17V687.347H1222.29V684.08Z" fill="black"/>
<path d="M1329.86 684.069H1222.28V687.347H1222.16V687.476H1437.63L1438.56 684.069H1340.1H1329.86Z" fill="#DADDDF"/>
<path opacity="0.1" d="M1329.86 684.069H1222.28V687.347H1222.16V687.476H1437.63L1438.56 684.069H1340.1H1329.86Z" fill="black"/>
<path d="M1348.09 1074.18L1309.14 1037.15L1286.23 1055.99L1256.22 1025.32L1208.41 1073.42L1303.65 1073.78L1348.09 1074.18Z" fill="#B2B6BB"/>
<path opacity="0.1" d="M1345.88 1075.29L1306.92 1038.25L1284.01 1057.1L1254 1026.43L1206.2 1074.53L1301.43 1074.88L1345.88 1075.29Z" fill="black"/>
<path d="M1253.82 755.91H712.259C687.549 755.91 667.524 773.895 667.524 796.036V826.361H667.465V1027.62C667.465 1043.09 659.475 1057.67 645.772 1067.08L636.553 1073.42H1210.23C1234.28 1073.42 1253.77 1055.94 1253.77 1034.38V943.453H1253.82V801.711C1253.82 786.254 1261.81 771.677 1275.51 762.264L1284.74 755.91H1253.82Z" fill="#DADDDF"/>
<path d="M1253.82 755.91H712.259C687.549 755.91 667.524 773.895 667.524 796.036V826.361H667.465V1027.62C667.465 1043.09 659.475 1057.67 645.772 1067.08L636.553 1073.42H1210.23C1234.28 1073.42 1253.77 1055.94 1253.77 1034.38V943.453H1253.82V801.711C1253.82 786.254 1261.81 771.677 1275.51 762.264L1284.74 755.91H1253.82Z" fill="#DADDDF"/>
<path d="M1218.47 836.722H1031.48C1031.35 836.703 1031.22 836.637 1031.13 836.535C1031.04 836.433 1031 836.302 1031 836.168C1031 836.032 1031.04 835.901 1031.13 835.799C1031.22 835.697 1031.35 835.631 1031.48 835.613H1218.47C1218.6 835.631 1218.73 835.697 1218.82 835.799C1218.91 835.901 1218.96 836.032 1218.96 836.168C1218.96 836.302 1218.91 836.433 1218.82 836.535C1218.73 836.637 1218.6 836.703 1218.47 836.722Z" fill="#3F4249"/>
<path d="M1017.35 836.722H924.192C924.113 836.732 924.033 836.726 923.957 836.703C923.881 836.68 923.81 836.641 923.75 836.588C923.69 836.536 923.642 836.472 923.609 836.399C923.576 836.326 923.559 836.248 923.559 836.168C923.559 836.088 923.576 836.009 923.609 835.936C923.642 835.864 923.69 835.799 923.75 835.746C923.81 835.694 923.881 835.654 923.957 835.631C924.033 835.608 924.113 835.602 924.192 835.613H1017.35C1017.48 835.631 1017.61 835.697 1017.7 835.799C1017.79 835.901 1017.83 836.032 1017.83 836.168C1017.83 836.303 1017.79 836.434 1017.7 836.535C1017.61 836.637 1017.48 836.704 1017.35 836.722Z" fill="#3F4249"/>
<path d="M1110.03 783.047H923.075C922.996 783.058 922.916 783.051 922.839 783.028C922.763 783.005 922.692 782.966 922.632 782.913C922.572 782.861 922.524 782.796 922.491 782.723C922.458 782.651 922.442 782.572 922.442 782.492C922.442 782.412 922.458 782.333 922.491 782.26C922.524 782.189 922.572 782.124 922.632 782.071C922.692 782.019 922.763 781.98 922.839 781.957C922.916 781.934 922.996 781.927 923.075 781.938H1110.03C1110.16 781.956 1110.29 782.022 1110.38 782.124C1110.47 782.225 1110.52 782.356 1110.52 782.492C1110.52 782.628 1110.47 782.758 1110.38 782.861C1110.29 782.963 1110.16 783.029 1110.03 783.047Z" fill="#3F4249"/>
<path d="M1217.32 783.047H1124.16C1124.08 783.058 1124 783.051 1123.92 783.028C1123.85 783.005 1123.78 782.966 1123.72 782.913C1123.66 782.861 1123.61 782.796 1123.58 782.723C1123.54 782.651 1123.53 782.572 1123.53 782.492C1123.53 782.412 1123.54 782.333 1123.58 782.26C1123.61 782.189 1123.66 782.124 1123.72 782.071C1123.78 782.019 1123.85 781.98 1123.92 781.957C1124 781.934 1124.08 781.927 1124.16 781.938H1217.32C1217.45 781.956 1217.58 782.022 1217.67 782.124C1217.76 782.225 1217.81 782.356 1217.81 782.492C1217.81 782.628 1217.76 782.758 1217.67 782.861C1217.58 782.963 1217.45 783.029 1217.32 783.047Z" fill="#3F4249"/>
<path d="M1216.76 809.884H924.753C924.674 809.895 924.593 809.889 924.517 809.866C924.44 809.843 924.37 809.804 924.31 809.752C924.25 809.699 924.202 809.634 924.169 809.562C924.135 809.489 924.118 809.41 924.118 809.33C924.118 809.25 924.135 809.172 924.169 809.099C924.202 809.026 924.25 808.961 924.31 808.909C924.37 808.856 924.44 808.817 924.517 808.794C924.593 808.771 924.674 808.765 924.753 808.775H1216.76C1216.89 808.793 1217.02 808.86 1217.11 808.962C1217.2 809.064 1217.25 809.195 1217.25 809.33C1217.25 809.466 1217.2 809.597 1217.11 809.699C1217.02 809.801 1216.89 809.866 1216.76 809.884Z" fill="#3F4249"/>
<path d="M1217.32 863.56H925.313C925.233 863.571 925.153 863.564 925.076 863.541C925 863.518 924.929 863.479 924.869 863.427C924.81 863.374 924.762 863.309 924.729 863.237C924.696 863.164 924.679 863.085 924.679 863.005C924.679 862.925 924.696 862.846 924.729 862.774C924.762 862.701 924.81 862.637 924.869 862.585C924.929 862.532 925 862.493 925.076 862.47C925.153 862.447 925.233 862.44 925.313 862.451H1217.32C1217.45 862.469 1217.58 862.535 1217.67 862.637C1217.76 862.739 1217.81 862.869 1217.81 863.005C1217.81 863.141 1217.76 863.272 1217.67 863.374C1217.58 863.476 1217.45 863.542 1217.32 863.56Z" fill="#3F4249"/>
<path d="M1216.21 892.336H1029.25C1029.12 892.318 1028.99 892.252 1028.9 892.149C1028.81 892.047 1028.76 891.916 1028.76 891.781C1028.76 891.645 1028.81 891.515 1028.9 891.413C1028.99 891.311 1029.12 891.245 1029.25 891.227H1216.21C1216.29 891.216 1216.37 891.223 1216.45 891.246C1216.52 891.269 1216.59 891.308 1216.65 891.36C1216.71 891.413 1216.76 891.478 1216.79 891.55C1216.83 891.622 1216.84 891.701 1216.84 891.781C1216.84 891.861 1216.83 891.94 1216.79 892.012C1216.76 892.085 1216.71 892.15 1216.65 892.202C1216.59 892.255 1216.52 892.294 1216.45 892.317C1216.37 892.34 1216.29 892.347 1216.21 892.336Z" fill="#3F4249"/>
<path d="M1015.12 892.336H921.966C921.832 892.318 921.709 892.252 921.62 892.149C921.531 892.047 921.482 891.916 921.482 891.781C921.482 891.645 921.531 891.515 921.62 891.413C921.709 891.311 921.832 891.245 921.966 891.227H1015.12C1015.2 891.216 1015.28 891.223 1015.36 891.246C1015.43 891.269 1015.5 891.308 1015.56 891.36C1015.62 891.413 1015.67 891.478 1015.7 891.55C1015.74 891.622 1015.75 891.701 1015.75 891.781C1015.75 891.861 1015.74 891.94 1015.7 892.012C1015.67 892.085 1015.62 892.15 1015.56 892.202C1015.5 892.255 1015.43 892.294 1015.36 892.317C1015.28 892.34 1015.2 892.347 1015.12 892.336Z" fill="#3F4249"/>
<path d="M1217.33 972.839H1030.37C1030.22 972.839 1030.08 972.781 1029.98 972.678C1029.88 972.575 1029.82 972.435 1029.82 972.289C1029.82 972.143 1029.88 972.003 1029.98 971.9C1030.08 971.797 1030.22 971.74 1030.37 971.74H1217.33C1217.48 971.74 1217.62 971.797 1217.72 971.9C1217.82 972.003 1217.88 972.143 1217.88 972.289C1217.88 972.435 1217.82 972.575 1217.72 972.678C1217.62 972.781 1217.48 972.839 1217.33 972.839Z" fill="#3F4249"/>
<path d="M1016.24 972.839H923.084C922.939 972.839 922.799 972.781 922.696 972.678C922.592 972.575 922.534 972.435 922.534 972.289C922.534 972.143 922.592 972.003 922.696 971.9C922.799 971.797 922.939 971.74 923.084 971.74H1016.24C1016.39 971.74 1016.53 971.797 1016.63 971.9C1016.73 972.003 1016.79 972.143 1016.79 972.289C1016.79 972.435 1016.73 972.575 1016.63 972.678C1016.53 972.781 1016.39 972.839 1016.24 972.839Z" fill="#3F4249"/>
<path d="M1108.92 919.174H921.966C921.832 919.156 921.709 919.09 921.62 918.988C921.531 918.886 921.482 918.755 921.482 918.619C921.482 918.483 921.531 918.352 921.62 918.25C921.709 918.148 921.832 918.082 921.966 918.064H1108.92C1109.05 918.082 1109.18 918.148 1109.27 918.25C1109.36 918.352 1109.41 918.483 1109.41 918.619C1109.41 918.755 1109.36 918.886 1109.27 918.988C1109.18 919.09 1109.05 919.156 1108.92 919.174Z" fill="#3F4249"/>
<path d="M1216.21 919.173H1123.05C1122.92 919.155 1122.79 919.089 1122.7 918.987C1122.61 918.886 1122.56 918.755 1122.56 918.619C1122.56 918.484 1122.61 918.353 1122.7 918.251C1122.79 918.148 1122.92 918.082 1123.05 918.064H1216.21C1216.29 918.054 1216.37 918.06 1216.45 918.083C1216.52 918.106 1216.59 918.145 1216.65 918.198C1216.71 918.25 1216.76 918.315 1216.79 918.388C1216.83 918.46 1216.84 918.539 1216.84 918.619C1216.84 918.699 1216.83 918.778 1216.79 918.851C1216.76 918.922 1216.71 918.987 1216.65 919.04C1216.59 919.092 1216.52 919.131 1216.45 919.154C1216.37 919.177 1216.29 919.184 1216.21 919.173Z" fill="#3F4249"/>
<path d="M1215.65 946.001H923.644C923.498 946.001 923.358 945.943 923.256 945.84C923.153 945.737 923.095 945.597 923.095 945.451C923.095 945.307 923.153 945.167 923.256 945.064C923.358 944.96 923.498 944.902 923.644 944.902H1215.65C1215.8 944.902 1215.94 944.96 1216.04 945.064C1216.14 945.167 1216.2 945.307 1216.2 945.451C1216.2 945.597 1216.14 945.737 1216.04 945.84C1215.94 945.943 1215.8 946.001 1215.65 946.001Z" fill="#3F4249"/>
<path d="M1216.21 999.676H924.204C924.059 999.676 923.919 999.616 923.816 999.516C923.712 999.416 923.655 999.277 923.655 999.127C923.655 998.981 923.712 998.841 923.816 998.738C923.919 998.635 924.059 998.577 924.204 998.577H1216.21C1216.36 998.577 1216.5 998.635 1216.6 998.738C1216.7 998.841 1216.76 998.981 1216.76 999.127C1216.76 999.277 1216.7 999.416 1216.6 999.516C1216.5 999.616 1216.36 999.676 1216.21 999.676Z" fill="#3F4249"/>
<path d="M1281.74 755.91H1287.73C1295.15 755.91 1302.26 758.857 1307.5 764.104C1312.75 769.351 1315.69 776.467 1315.69 783.886V1073.42H1253.77V783.886C1253.77 776.467 1256.72 769.351 1261.96 764.104C1267.2 758.857 1274.32 755.91 1281.74 755.91Z" fill="#B2B6BB"/>
<path d="M1168.75 499.064H376.48C368.443 499.064 361.928 505.582 361.928 513.622V1051.2C361.928 1059.25 368.443 1065.76 376.48 1065.76H1168.75C1176.79 1065.76 1183.3 1059.25 1183.3 1051.2V513.622C1183.3 505.582 1176.79 499.064 1168.75 499.064Z" fill="#21252B"/>
<path d="M328.729 1023.85H1218.61V1055.65C1218.61 1060.37 1216.75 1064.89 1213.41 1068.23C1210.08 1071.56 1205.55 1073.43 1200.84 1073.43H346.507C341.792 1073.43 337.27 1071.56 333.936 1068.23C330.602 1064.89 328.729 1060.37 328.729 1055.65V1023.85Z" fill="#21252B"/>
<path d="M1160.11 521.575H385.127V1000.15H1160.11V521.575Z" fill="#61656D"/>
<path d="M1183.3 1025.88C1183.3 1026.15 999.409 1026.38 772.634 1026.38C545.858 1026.38 361.928 1026.15 361.928 1025.88C361.928 1025.61 545.778 1025.38 772.634 1025.38C999.489 1025.38 1183.3 1025.6 1183.3 1025.88Z" fill="#3F4249"/>
<path d="M685.603 1023.85H861.752L852.404 1039.91H695.321L685.603 1023.85Z" fill="#3F4249"/>
<path d="M1096.69 407.2H524.195C499.496 407.2 479.461 426.764 479.461 450.894V1000.44H1065.73V457.079C1065.76 448.723 1067.72 440.488 1071.49 433.029C1075.25 425.57 1080.71 419.094 1087.42 414.115L1096.69 407.2Z" fill="#DADDDF"/>
<path d="M1093.63 407.2H1099.62C1107.04 407.2 1114.16 410.148 1119.4 415.395C1124.64 420.641 1127.59 427.757 1127.59 435.177V499.204H1065.67V435.177C1065.67 427.757 1068.61 420.641 1073.86 415.395C1079.1 410.148 1086.21 407.2 1093.63 407.2Z" fill="#B2B6BB"/>
<path opacity="0.1" d="M1281.74 755.91H1287.73C1295.15 755.91 1302.26 758.857 1307.5 764.104C1312.75 769.351 1315.69 776.467 1315.69 783.886V1073.42H1253.77V783.886C1253.77 776.467 1256.72 769.351 1261.96 764.104C1267.2 758.857 1274.32 755.91 1281.74 755.91Z" fill="black"/>
<g opacity="0.1">
<path opacity="0.1" d="M1093.63 408.16H1099.62C1107.04 408.16 1114.16 411.107 1119.4 416.354C1124.64 421.6 1127.59 428.717 1127.59 436.136V500.163H1065.67V436.136C1065.67 428.717 1068.61 421.6 1073.86 416.354C1079.1 411.107 1086.21 408.16 1093.63 408.16Z" fill="black"/>
</g>
<path d="M876.962 438.744H609.758C609.623 438.726 609.5 438.66 609.411 438.558C609.321 438.456 609.272 438.325 609.272 438.19C609.272 438.055 609.321 437.924 609.411 437.821C609.5 437.719 609.623 437.653 609.758 437.635H876.962C877.042 437.624 877.122 437.631 877.199 437.654C877.275 437.677 877.346 437.716 877.406 437.769C877.466 437.821 877.514 437.886 877.547 437.959C877.58 438.031 877.597 438.11 877.597 438.19C877.597 438.269 877.58 438.348 877.547 438.421C877.514 438.493 877.466 438.558 877.406 438.611C877.346 438.663 877.275 438.702 877.199 438.725C877.122 438.748 877.042 438.755 876.962 438.744Z" fill="#3F4249"/>
<path d="M1030.31 438.744H897.168C897.089 438.755 897.008 438.748 896.932 438.725C896.856 438.702 896.786 438.663 896.726 438.611C896.665 438.558 896.617 438.493 896.584 438.421C896.551 438.348 896.534 438.269 896.534 438.19C896.534 438.11 896.551 438.031 896.584 437.959C896.617 437.886 896.665 437.821 896.726 437.769C896.786 437.716 896.856 437.677 896.932 437.654C897.008 437.631 897.089 437.624 897.168 437.635H1030.31C1030.45 437.653 1030.57 437.719 1030.66 437.821C1030.75 437.924 1030.8 438.055 1030.8 438.19C1030.8 438.325 1030.75 438.456 1030.66 438.558C1030.57 438.66 1030.45 438.726 1030.31 438.744Z" fill="#3F4249"/>
<path d="M1028.47 497.955H608.839C608.704 497.937 608.581 497.87 608.492 497.768C608.402 497.666 608.354 497.535 608.354 497.4C608.354 497.264 608.402 497.133 608.492 497.032C608.581 496.93 608.704 496.864 608.839 496.846H1028.47C1028.6 496.864 1028.73 496.93 1028.82 497.032C1028.91 497.133 1028.96 497.264 1028.96 497.4C1028.96 497.535 1028.91 497.666 1028.82 497.768C1028.73 497.87 1028.6 497.937 1028.47 497.955Z" fill="#3F4249"/>
<path d="M1030.27 739.214H515.914C515.78 739.196 515.657 739.129 515.568 739.027C515.478 738.925 515.429 738.794 515.429 738.659C515.429 738.523 515.478 738.392 515.568 738.29C515.657 738.188 515.78 738.122 515.914 738.104H1030.27C1030.4 738.122 1030.53 738.188 1030.62 738.29C1030.71 738.392 1030.75 738.523 1030.75 738.659C1030.75 738.794 1030.71 738.925 1030.62 739.027C1030.53 739.129 1030.4 739.196 1030.27 739.214Z" fill="#3F4249"/>
<path d="M1030.27 764.662H515.914C515.78 764.644 515.657 764.578 515.568 764.476C515.478 764.375 515.429 764.244 515.429 764.108C515.429 763.973 515.478 763.842 515.568 763.74C515.657 763.638 515.78 763.572 515.914 763.553H1030.27C1030.4 763.572 1030.53 763.638 1030.62 763.74C1030.71 763.842 1030.75 763.973 1030.75 764.108C1030.75 764.244 1030.71 764.375 1030.62 764.476C1030.53 764.578 1030.4 764.644 1030.27 764.662Z" fill="#3F4249"/>
<path d="M1032.49 967.193H518.133C517.987 967.193 517.847 967.135 517.744 967.032C517.64 966.93 517.582 966.79 517.582 966.644C517.582 966.499 517.64 966.359 517.744 966.255C517.847 966.152 517.987 966.094 518.133 966.094H1032.49C1032.64 966.094 1032.78 966.152 1032.88 966.255C1032.98 966.359 1033.04 966.499 1033.04 966.644C1033.04 966.79 1032.98 966.93 1032.88 967.032C1032.78 967.135 1032.64 967.193 1032.49 967.193Z" fill="#3F4249"/>
<path d="M1030.31 464.752H763.105C763.026 464.763 762.946 464.757 762.869 464.734C762.793 464.711 762.722 464.672 762.662 464.619C762.602 464.567 762.555 464.503 762.522 464.43C762.489 464.357 762.472 464.278 762.472 464.198C762.472 464.119 762.489 464.04 762.522 463.967C762.555 463.894 762.602 463.829 762.662 463.777C762.722 463.724 762.793 463.685 762.869 463.662C762.946 463.639 763.026 463.633 763.105 463.643H1030.31C1030.44 463.661 1030.57 463.728 1030.66 463.83C1030.75 463.932 1030.8 464.063 1030.8 464.198C1030.8 464.334 1030.75 464.465 1030.66 464.567C1030.57 464.668 1030.44 464.734 1030.31 464.752Z" fill="#3F4249"/>
<path d="M742.901 464.752H609.758C609.623 464.734 609.5 464.668 609.411 464.567C609.321 464.465 609.272 464.334 609.272 464.198C609.272 464.063 609.321 463.932 609.411 463.83C609.5 463.728 609.623 463.661 609.758 463.643H742.901C742.98 463.633 743.06 463.639 743.137 463.662C743.213 463.685 743.284 463.724 743.344 463.777C743.404 463.829 743.452 463.894 743.484 463.967C743.517 464.04 743.534 464.119 743.534 464.198C743.534 464.278 743.517 464.357 743.484 464.43C743.452 464.503 743.404 464.567 743.344 464.619C743.284 464.672 743.213 464.711 743.137 464.734C743.06 464.757 742.98 464.763 742.901 464.752Z" fill="#3F4249"/>
<g opacity="0.1">
<path opacity="0.1" d="M841.438 537.482L833.927 676.666L1039.05 691.623L1030.69 537.052L841.438 537.482Z" fill="black"/>
</g>
<path d="M1017.6 527.807L832.994 528.999L833.947 676.643L1018.56 675.451L1017.6 527.807Z" fill="#F5F5F5"/>
<path d="M1011.28 537.14L839.656 538.248L840.489 667.309L1012.12 666.199L1011.28 537.14Z" fill="#E63946"/>
<g opacity="0.2">
<path opacity="0.2" d="M1011.28 537.14L839.656 538.248L840.489 667.309L1012.12 666.199L1011.28 537.14Z" fill="white"/>
</g>
<g opacity="0.2">
<path opacity="0.2" d="M1012.1 666.224L951.639 586.391L914.824 636.819L889.467 610.151L840.468 667.333L1012.1 666.224Z" fill="black"/>
</g>
<g opacity="0.2">
<path opacity="0.2" d="M898.676 576.899C898.692 579.573 899.5 582.182 900.998 584.396C902.496 586.61 904.617 588.33 907.092 589.339C909.567 590.347 912.285 590.599 914.904 590.062C917.522 589.524 919.922 588.222 921.8 586.321C923.679 584.42 924.952 582.003 925.458 579.378C925.964 576.752 925.68 574.035 924.643 571.571C923.605 569.107 921.861 567.006 919.63 565.534C917.399 564.062 914.782 563.284 912.109 563.3C908.526 563.324 905.099 564.769 902.58 567.319C900.061 569.869 898.657 573.314 898.676 576.899Z" fill="black"/>
</g>
<g opacity="0.1">
<path opacity="0.1" d="M704.249 800.872L711.759 940.056L506.636 955.013L514.985 800.442L704.249 800.872Z" fill="black"/>
</g>
<path d="M528.129 791.253L527.176 938.897L711.781 940.089L712.734 792.445L528.129 791.253Z" fill="#F5F5F5"/>
<path d="M534.439 800.587L533.605 929.647L705.237 930.756L706.07 801.695L534.439 800.587Z" fill="#E63946"/>
<g opacity="0.2">
<path opacity="0.2" d="M534.439 800.586L533.605 929.646L705.237 930.755L706.07 801.694L534.439 800.586Z" fill="white"/>
</g>
<g opacity="0.2">
<path opacity="0.2" d="M533.582 929.615L594.047 849.781L630.851 900.209L656.219 873.541L705.217 930.724L533.582 929.615Z" fill="black"/>
</g>
<g opacity="0.2">
<path opacity="0.2" d="M647 840.299C646.982 842.973 646.172 845.582 644.672 847.795C643.173 850.008 641.051 851.727 638.575 852.733C636.099 853.74 633.38 853.99 630.763 853.45C628.145 852.912 625.746 851.608 623.868 849.704C621.992 847.801 620.72 845.384 620.217 842.758C619.712 840.132 619.998 837.417 621.038 834.953C622.076 832.49 623.822 830.389 626.055 828.919C628.287 827.449 630.904 826.673 633.577 826.69C635.352 826.701 637.108 827.061 638.743 827.752C640.379 828.441 641.862 829.447 643.109 830.711C644.356 831.975 645.34 833.472 646.009 835.117C646.677 836.763 647.013 838.524 647 840.299Z" fill="black"/>
</g>
<path d="M1031.41 707.12H514.805V723.716H1031.41V707.12Z" fill="#B2B6BB"/>
<path d="M806.851 527.83H515.915V544.426H806.851V527.83Z" fill="#B2B6BB"/>
<path d="M807.99 569.885H620.994C620.848 569.885 620.708 569.827 620.605 569.724C620.502 569.621 620.444 569.481 620.444 569.335C620.444 569.189 620.502 569.049 620.605 568.947C620.708 568.844 620.848 568.786 620.994 568.786H807.99C808.136 568.786 808.275 568.844 808.378 568.947C808.481 569.049 808.539 569.189 808.539 569.335C808.539 569.481 808.481 569.621 808.378 569.724C808.275 569.827 808.136 569.885 807.99 569.885Z" fill="#3F4249"/>
<path d="M606.861 569.885H513.708C513.562 569.885 513.422 569.827 513.319 569.724C513.217 569.621 513.159 569.481 513.159 569.335C513.159 569.189 513.217 569.049 513.319 568.947C513.422 568.844 513.562 568.786 513.708 568.786H606.861C607.007 568.786 607.147 568.844 607.25 568.947C607.353 569.049 607.411 569.189 607.411 569.335C607.411 569.481 607.353 569.621 607.25 569.724C607.147 569.827 607.007 569.885 606.861 569.885Z" fill="#3F4249"/>
<path d="M809.067 650.398H622.111C621.977 650.38 621.854 650.314 621.765 650.212C621.675 650.11 621.626 649.979 621.626 649.843C621.626 649.707 621.675 649.576 621.765 649.474C621.854 649.372 621.977 649.307 622.111 649.289H809.067C809.201 649.307 809.324 649.372 809.414 649.474C809.503 649.576 809.552 649.707 809.552 649.843C809.552 649.979 809.503 650.11 809.414 650.212C809.324 650.314 809.201 650.38 809.067 650.398Z" fill="#3F4249"/>
<path d="M607.98 650.398H514.827C514.747 650.409 514.667 650.402 514.59 650.379C514.514 650.356 514.443 650.317 514.383 650.265C514.323 650.212 514.275 650.147 514.242 650.075C514.209 650.002 514.192 649.923 514.192 649.843C514.192 649.763 514.209 649.684 514.242 649.612C514.275 649.539 514.323 649.474 514.383 649.422C514.443 649.369 514.514 649.331 514.59 649.308C514.667 649.285 514.747 649.279 514.827 649.289H607.98C608.114 649.307 608.237 649.373 608.327 649.475C608.415 649.577 608.464 649.708 608.464 649.843C608.464 649.979 608.415 650.11 608.327 650.212C608.237 650.314 608.114 650.38 607.98 650.398Z" fill="#3F4249"/>
<path d="M700.653 596.722H513.706C513.627 596.733 513.547 596.727 513.47 596.704C513.394 596.681 513.324 596.642 513.264 596.589C513.204 596.537 513.156 596.473 513.123 596.4C513.09 596.327 513.073 596.248 513.073 596.168C513.073 596.089 513.09 596.01 513.123 595.937C513.156 595.864 513.204 595.8 513.264 595.747C513.324 595.694 513.394 595.655 513.47 595.632C513.547 595.609 513.627 595.603 513.706 595.613H700.653C700.732 595.603 700.812 595.609 700.889 595.632C700.965 595.655 701.036 595.694 701.096 595.747C701.155 595.8 701.203 595.864 701.236 595.937C701.269 596.01 701.286 596.089 701.286 596.168C701.286 596.248 701.269 596.327 701.236 596.4C701.203 596.473 701.155 596.537 701.096 596.589C701.036 596.642 700.965 596.681 700.889 596.704C700.812 596.727 700.732 596.733 700.653 596.722Z" fill="#3F4249"/>
<path d="M807.988 596.722H714.794C714.715 596.733 714.636 596.727 714.559 596.704C714.483 596.681 714.412 596.642 714.352 596.589C714.292 596.537 714.244 596.473 714.211 596.4C714.178 596.327 714.161 596.248 714.161 596.168C714.161 596.089 714.178 596.01 714.211 595.937C714.244 595.864 714.292 595.8 714.352 595.747C714.412 595.694 714.483 595.655 714.559 595.632C714.636 595.609 714.715 595.603 714.794 595.613H807.988C808.123 595.632 808.245 595.698 808.334 595.8C808.423 595.902 808.473 596.033 808.473 596.168C808.473 596.304 808.423 596.435 808.334 596.537C808.245 596.638 808.123 596.704 807.988 596.722Z" fill="#3F4249"/>
<path d="M807.389 623.56H515.355C515.276 623.571 515.195 623.564 515.119 623.541C515.042 623.518 514.972 623.479 514.912 623.426C514.852 623.374 514.804 623.309 514.771 623.236C514.738 623.164 514.721 623.085 514.721 623.005C514.721 622.926 514.738 622.847 514.771 622.774C514.804 622.702 514.852 622.637 514.912 622.584C514.972 622.532 515.042 622.493 515.119 622.47C515.195 622.447 515.276 622.44 515.355 622.451H807.389C807.523 622.469 807.647 622.535 807.736 622.637C807.825 622.739 807.874 622.87 807.874 623.005C807.874 623.14 807.825 623.271 807.736 623.373C807.647 623.476 807.523 623.542 807.389 623.56Z" fill="#3F4249"/>
<path d="M807.989 677.235H515.944C515.865 677.245 515.784 677.239 515.709 677.216C515.632 677.193 515.562 677.154 515.501 677.101C515.441 677.049 515.393 676.984 515.36 676.912C515.327 676.839 515.31 676.76 515.31 676.681C515.31 676.601 515.327 676.522 515.36 676.449C515.393 676.376 515.441 676.312 515.501 676.259C515.562 676.206 515.632 676.167 515.709 676.144C515.784 676.121 515.865 676.115 515.944 676.126H807.989C808.123 676.144 808.245 676.21 808.335 676.312C808.424 676.414 808.473 676.545 808.473 676.681C808.473 676.816 808.424 676.946 808.335 677.048C808.245 677.15 808.123 677.216 807.989 677.235Z" fill="#3F4249"/>
<path d="M740.472 806.717H1031.41V790.121H740.472V806.717Z" fill="#B2B6BB"/>
<path d="M926.341 832.176H739.385C739.25 832.158 739.127 832.091 739.038 831.989C738.948 831.887 738.899 831.756 738.899 831.621C738.899 831.486 738.948 831.355 739.038 831.253C739.127 831.151 739.25 831.085 739.385 831.067H926.341C926.474 831.085 926.597 831.151 926.686 831.253C926.776 831.355 926.825 831.486 926.825 831.621C926.825 831.756 926.776 831.887 926.686 831.989C926.597 832.091 926.474 832.158 926.341 832.176Z" fill="#3F4249"/>
<path d="M1033.63 832.176H940.472C940.338 832.158 940.215 832.092 940.125 831.99C940.036 831.887 939.988 831.756 939.988 831.621C939.988 831.486 940.036 831.355 940.125 831.253C940.215 831.151 940.338 831.085 940.472 831.067H1033.63C1033.71 831.056 1033.79 831.063 1033.87 831.086C1033.94 831.109 1034.01 831.148 1034.07 831.2C1034.13 831.253 1034.18 831.318 1034.21 831.39C1034.25 831.463 1034.26 831.541 1034.26 831.621C1034.26 831.701 1034.25 831.78 1034.21 831.852C1034.18 831.925 1034.13 831.99 1034.07 832.042C1034.01 832.095 1033.94 832.134 1033.87 832.157C1033.79 832.18 1033.71 832.187 1033.63 832.176Z" fill="#3F4249"/>
<path d="M925.223 912.679H738.267C738.121 912.679 737.981 912.621 737.879 912.518C737.776 912.415 737.718 912.275 737.718 912.129C737.718 911.983 737.776 911.844 737.879 911.741C737.981 911.638 738.121 911.58 738.267 911.58H925.223C925.368 911.58 925.508 911.638 925.612 911.741C925.715 911.844 925.772 911.983 925.772 912.129C925.772 912.275 925.715 912.415 925.612 912.518C925.508 912.621 925.368 912.679 925.223 912.679Z" fill="#3F4249"/>
<path d="M1032.51 912.679H939.355C939.209 912.679 939.07 912.621 938.967 912.518C938.863 912.415 938.805 912.275 938.805 912.129C938.805 911.983 938.863 911.844 938.967 911.741C939.07 911.638 939.209 911.58 939.355 911.58H1032.51C1032.66 911.58 1032.8 911.638 1032.9 911.741C1033 911.844 1033.06 911.983 1033.06 912.129C1033.06 912.275 1033 912.415 1032.9 912.518C1032.8 912.621 1032.66 912.679 1032.51 912.679Z" fill="#3F4249"/>
<path d="M1033.63 859.014H846.669C846.535 858.996 846.413 858.93 846.324 858.828C846.234 858.726 846.185 858.595 846.185 858.459C846.185 858.324 846.234 858.193 846.324 858.091C846.413 857.99 846.535 857.923 846.669 857.905H1033.63C1033.71 857.895 1033.79 857.901 1033.87 857.924C1033.94 857.947 1034.01 857.986 1034.07 858.038C1034.13 858.09 1034.18 858.155 1034.21 858.228C1034.25 858.3 1034.26 858.379 1034.26 858.459C1034.26 858.539 1034.25 858.618 1034.21 858.691C1034.18 858.763 1034.13 858.828 1034.07 858.881C1034.01 858.933 1033.94 858.972 1033.87 858.995C1033.79 859.018 1033.71 859.025 1033.63 859.014Z" fill="#3F4249"/>
<path d="M832.538 859.014H739.385C739.25 858.996 739.127 858.93 739.038 858.828C738.948 858.726 738.899 858.595 738.899 858.459C738.899 858.324 738.948 858.193 739.038 858.091C739.127 857.99 739.25 857.923 739.385 857.905H832.538C832.617 857.895 832.697 857.901 832.774 857.924C832.85 857.947 832.921 857.986 832.98 858.038C833.04 858.09 833.088 858.155 833.121 858.228C833.154 858.3 833.171 858.379 833.171 858.459C833.171 858.539 833.154 858.618 833.121 858.691C833.088 858.763 833.04 858.828 832.98 858.881C832.921 858.933 832.85 858.972 832.774 858.995C832.697 859.018 832.617 859.025 832.538 859.014Z" fill="#3F4249"/>
<path d="M1031.95 885.842H739.944C739.798 885.842 739.659 885.784 739.555 885.68C739.452 885.578 739.395 885.438 739.395 885.293C739.395 885.147 739.452 885.007 739.555 884.904C739.659 884.8 739.798 884.742 739.944 884.742H1031.95C1032.1 884.742 1032.24 884.8 1032.34 884.904C1032.44 885.007 1032.5 885.147 1032.5 885.293C1032.5 885.438 1032.44 885.578 1032.34 885.68C1032.24 885.784 1032.1 885.842 1031.95 885.842Z" fill="#3F4249"/>
<path d="M1031.39 939.517H739.385C739.239 939.517 739.099 939.459 738.996 939.356C738.893 939.253 738.835 939.113 738.835 938.967C738.835 938.821 738.893 938.681 738.996 938.578C739.099 938.475 739.239 938.417 739.385 938.417H1031.39C1031.54 938.417 1031.68 938.475 1031.78 938.578C1031.88 938.681 1031.94 938.821 1031.94 938.967C1031.94 939.113 1031.88 939.253 1031.78 939.356C1031.68 939.459 1031.54 939.517 1031.39 939.517Z" fill="#3F4249"/>
<path d="M524.943 437.345H579.874L579.964 455.76H577.337C576.479 449.178 574.012 444.722 569.937 442.391C567.653 441.112 564.237 440.413 559.69 440.293V488.393C559.69 491.763 560.275 493.995 561.447 495.087C562.626 496.186 565.063 496.746 568.778 496.746V499.064H536.259V496.746C539.824 496.746 542.251 496.186 543.37 495.067C544.489 493.948 545.128 491.73 545.128 488.393V440.293C540.673 440.413 537.258 441.112 534.881 442.391C530.512 444.776 528.045 449.232 527.48 455.76H524.853L524.943 437.345Z" fill="#E63946"/>
<path d="M1315.71 979.013H1377.64V1046.21C1377.64 1053.63 1374.69 1060.75 1369.45 1065.99C1364.2 1071.24 1357.09 1074.18 1349.67 1074.18H1343.68C1336.26 1074.18 1329.15 1071.24 1323.9 1065.99C1318.66 1060.75 1315.71 1053.63 1315.71 1046.21V979.013Z" fill="#DADDDF"/>
<path d="M1389.08 1076.62H154.496C154.099 1076.62 153.718 1076.46 153.437 1076.18C153.155 1075.9 152.998 1075.52 152.998 1075.12C152.998 1074.72 153.155 1074.34 153.437 1074.06C153.718 1073.78 154.099 1073.62 154.496 1073.62H1389.08C1389.48 1073.62 1389.86 1073.78 1390.14 1074.06C1390.42 1074.34 1390.58 1074.72 1390.58 1075.12C1390.58 1075.52 1390.42 1075.9 1390.14 1076.18C1389.86 1076.46 1389.48 1076.62 1389.08 1076.62Z" fill="#B2B6BB"/>
<path d="M1207.19 914.957L1224.81 943.933C1227.07 947.438 1227.88 951.692 1227.05 955.785C1226.23 959.878 1223.83 963.484 1220.38 965.834L1153.13 1007.27L1141.33 992.082L1185.52 948.988L1176.53 935.699L1207.19 914.957Z" fill="#FC9D9D"/>
<path d="M990.93 914.957L973.312 943.933C971.048 947.443 970.248 951.7 971.082 955.794C971.917 959.887 974.32 963.491 977.776 965.834L1046.99 1007.27L1058.78 992.082L1012.65 948.988L1021.64 935.699L990.93 914.957Z" fill="#FC9D9D"/>
<path d="M1123.52 847.543L1075.58 845.885L1033.71 854.287C1030.36 854.876 1027.17 856.158 1024.36 858.05C1021.54 859.944 1019.14 862.406 1017.34 865.278L988.762 916.096L1021.1 937.908L1036.7 915.107V1011.34H1161.92V915.107L1176.01 936.799L1208.97 916.066L1181.06 865.059C1179.21 862.028 1176.72 859.438 1173.76 857.473C1170.8 855.506 1167.45 854.212 1163.94 853.678L1123.45 847.543" fill="#E63946"/>
<path d="M1075.21 803.53L1074.78 847.074C1074.77 848.049 1075.08 849.002 1075.65 849.791L1076.04 850.471C1086.39 866.457 1111.67 861.362 1119.81 853.089C1120.48 852.533 1121 851.811 1121.31 850.993C1121.61 850.177 1121.7 849.294 1121.56 848.432L1114.29 800.333L1075.21 803.53Z" fill="#FC9D9D"/>
<path d="M1118.6 783.736C1118.6 783.736 1126.59 836.312 1097.57 838.451C1069.25 840.579 1068.37 787.423 1068.37 787.423L1067.6 772.196L1104.06 765.791L1113.27 770.547L1118.6 783.736Z" fill="#FC9D9D"/>
<path opacity="0.15" d="M1119.23 834.084L1117.1 819.626C1114.48 828.939 1109.05 836.702 1099.54 838.251H1099.64L1097.65 838.541C1090.09 839.12 1083.78 835.633 1079.03 828.159C1078.94 828.018 1078.8 827.92 1078.63 827.885C1078.47 827.849 1078.3 827.879 1078.16 827.969C1078.09 828.012 1078.03 828.07 1077.98 828.138C1077.93 828.205 1077.9 828.282 1077.88 828.363C1077.86 828.444 1077.86 828.528 1077.88 828.61C1077.89 828.692 1077.92 828.769 1077.97 828.839C1082.96 836.832 1089.7 840.479 1097.75 839.9C1099.44 839.779 1101.12 839.443 1102.74 838.9C1108.65 839.477 1114.56 837.752 1119.23 834.084Z" fill="black"/>
<path d="M1111.67 772.006C1111.67 772.006 1120.88 765.891 1125.24 776.363C1128.93 785.195 1122.72 794.797 1122.72 794.797L1117.39 794.218C1115.15 794.118 1113.61 793.049 1113.4 790.92L1111.67 772.006Z" fill="#21252B"/>
<path d="M1118.26 765.601C1119.04 775.593 1110.5 778.211 1107.01 778.501L1078.41 780.929C1077.28 781.026 1076.24 781.553 1075.49 782.402C1074.75 783.252 1074.37 784.356 1074.42 785.485L1074.9 794.607C1074.95 795.202 1074.77 795.792 1074.41 796.259C1074.04 796.726 1073.5 797.036 1072.91 797.125L1071.16 797.315L1069.22 799.743C1057.98 797.025 1053.32 765.112 1073.98 758.717C1076.2 758 1078.04 756.429 1079.11 754.351C1082.11 748.136 1094.43 746.487 1100.63 753.471C1101.24 754.196 1102.01 754.767 1102.87 755.139C1103.74 755.511 1104.69 755.672 1105.63 755.61C1113.03 755.42 1117.87 760.076 1118.26 765.601Z" fill="#21252B"/>
<path d="M1071.24 800.423C1071.16 799.575 1070.84 798.767 1070.34 798.082C1069.83 797.398 1069.15 796.864 1068.36 796.536C1067.57 796.208 1066.71 796.099 1065.88 796.22C1065.04 796.342 1064.24 796.689 1063.58 797.225L1063.48 797.315C1058.49 801.582 1061.73 814.97 1072.6 813.811L1071.24 800.423Z" fill="#FC9D9D"/>
<path d="M1125.24 793.338L1125.14 793.248C1124.41 792.822 1123.58 792.601 1122.73 792.607C1121.9 792.613 1121.07 792.847 1120.34 793.282C1119.62 793.719 1119.02 794.343 1118.62 795.087C1118.22 795.832 1118.03 796.671 1118.07 797.515L1118.65 810.314C1129.59 809.925 1130.67 796.836 1125.24 793.338Z" fill="#FC9D9D"/>
<path d="M1072.6 802.071C1072.62 802.405 1072.51 802.731 1072.29 802.984C1072.07 803.237 1071.76 803.397 1071.43 803.43C1071.11 803.474 1070.78 803.396 1070.51 803.211C1070.24 803.026 1070.05 802.748 1069.97 802.431L1068.71 793.798L1072.3 793.898L1072.6 802.071Z" fill="#21252B"/>
<path d="M1120.3 798.584C1120.32 798.918 1120.21 799.246 1119.99 799.498C1119.77 799.751 1119.46 799.907 1119.13 799.933C1118.81 799.979 1118.48 799.901 1118.21 799.716C1117.94 799.531 1117.75 799.251 1117.68 798.934L1116.42 790.301L1120.01 790.401L1120.3 798.584Z" fill="#21252B"/>
<path d="M1085.64 810.464C1086.14 810.466 1086.63 810.319 1087.05 810.042C1087.47 809.765 1087.79 809.371 1087.99 808.908C1088.18 808.446 1088.23 807.937 1088.13 807.445C1088.04 806.954 1087.79 806.503 1087.44 806.148C1087.09 805.795 1086.63 805.554 1086.14 805.456C1085.65 805.359 1085.14 805.41 1084.68 805.603C1084.22 805.795 1083.82 806.121 1083.54 806.538C1083.27 806.955 1083.12 807.445 1083.12 807.946C1083.12 808.613 1083.39 809.254 1083.86 809.726C1084.33 810.199 1084.97 810.464 1085.64 810.464Z" fill="#21252B"/>
<path d="M1085.8 809.515C1085.88 809.515 1085.95 809.5 1086.02 809.471C1086.09 809.442 1086.16 809.399 1086.21 809.345C1086.26 809.292 1086.31 809.228 1086.34 809.157C1086.37 809.087 1086.38 809.011 1086.38 808.935C1086.38 808.859 1086.37 808.785 1086.34 808.714C1086.31 808.644 1086.26 808.58 1086.21 808.526C1086.16 808.472 1086.09 808.43 1086.02 808.4C1085.95 808.371 1085.88 808.356 1085.8 808.356C1085.72 808.356 1085.65 808.371 1085.58 808.4C1085.51 808.43 1085.44 808.472 1085.39 808.526C1085.34 808.58 1085.29 808.644 1085.26 808.714C1085.24 808.785 1085.22 808.859 1085.22 808.935C1085.22 809.011 1085.24 809.087 1085.26 809.157C1085.29 809.228 1085.34 809.292 1085.39 809.345C1085.44 809.399 1085.51 809.442 1085.58 809.471C1085.65 809.5 1085.72 809.515 1085.8 809.515Z" fill="white"/>
<path d="M1105.08 809.005C1105.58 809.003 1106.06 808.853 1106.48 808.576C1106.88 808.298 1107.2 807.904 1107.39 807.444C1107.58 806.983 1107.63 806.477 1107.53 805.99C1107.43 805.502 1107.19 805.055 1106.84 804.703C1106.5 804.352 1106.05 804.113 1105.56 804.016C1105.07 803.921 1104.56 803.97 1104.1 804.161C1103.64 804.352 1103.25 804.675 1102.97 805.09C1102.7 805.503 1102.55 805.99 1102.55 806.487C1102.55 806.818 1102.62 807.147 1102.74 807.453C1102.87 807.759 1103.06 808.037 1103.29 808.271C1103.53 808.505 1103.81 808.691 1104.11 808.816C1104.42 808.942 1104.75 809.006 1105.08 809.005Z" fill="#21252B"/>
<path d="M1105.2 808.156C1105.31 808.156 1105.43 808.122 1105.52 808.058C1105.62 807.994 1105.69 807.904 1105.74 807.798C1105.78 807.692 1105.79 807.576 1105.77 807.464C1105.75 807.351 1105.69 807.248 1105.61 807.167C1105.53 807.086 1105.43 807.03 1105.31 807.008C1105.2 806.986 1105.08 806.997 1104.98 807.041C1104.87 807.085 1104.78 807.159 1104.72 807.255C1104.65 807.35 1104.62 807.462 1104.62 807.577C1104.62 807.73 1104.68 807.877 1104.79 807.986C1104.9 808.095 1105.05 808.156 1105.2 808.156Z" fill="white"/>
<g opacity="0.3">
<path opacity="0.3" d="M1096.63 817.318L1098.62 817.129C1098.81 817.116 1098.99 817.026 1099.12 816.88C1099.25 816.734 1099.31 816.543 1099.3 816.349C1099.29 816.156 1099.2 815.976 1099.05 815.849C1098.9 815.721 1098.71 815.657 1098.53 815.67L1096.53 815.87C1096.13 815.874 1095.74 815.724 1095.45 815.451C1095.16 815.179 1094.98 814.805 1094.96 814.406C1094.93 814.007 1095.06 813.615 1095.32 813.309C1095.58 813.003 1095.94 812.807 1096.34 812.762C1096.53 812.749 1096.71 812.659 1096.84 812.513C1096.97 812.368 1097.03 812.177 1097.02 811.983C1097.01 811.79 1096.92 811.609 1096.77 811.482C1096.62 811.354 1096.43 811.29 1096.24 811.303C1095.85 811.325 1095.46 811.427 1095.11 811.603C1094.76 811.778 1094.45 812.024 1094.19 812.324C1093.94 812.624 1093.75 812.973 1093.64 813.349C1093.52 813.725 1093.48 814.12 1093.53 814.511C1093.53 814.905 1093.61 815.295 1093.77 815.655C1093.93 816.016 1094.16 816.338 1094.46 816.603C1094.75 816.867 1095.09 817.068 1095.47 817.191C1095.84 817.314 1096.24 817.357 1096.63 817.318Z" fill="black"/>
</g>
<path d="M1176.38 1058.71L1151.51 1056.01L1149.98 1079.64L1174.22 1080.46L1176.38 1058.71Z" fill="#FC9D9D"/>
<path opacity="0.15" d="M1153.71 1079.63L1160.52 1056.41L1161.05 1068.12C1161.19 1068.65 1161.5 1069.11 1161.92 1069.46C1162.35 1069.8 1162.86 1069.99 1163.41 1070.02L1175.19 1070.62L1174.19 1080.46L1153.68 1079.63H1153.71Z" fill="black"/>
<path d="M1195.27 1094.64C1190.93 1094.35 1186.83 1092.52 1183.71 1089.48L1180.02 1085.91C1177.81 1083.74 1175.05 1082.18 1172.03 1081.4C1169.59 1080.74 1167.44 1079.24 1165.96 1077.17C1164.48 1075.1 1163.77 1072.6 1163.94 1070.06V1069.56C1164.15 1066.48 1165.57 1063.61 1167.88 1061.58C1170.2 1059.55 1173.22 1058.52 1176.3 1058.71L1197.5 1060.12L1195.27 1094.64Z" fill="#E63946"/>
<path d="M1174.53 1079.1C1174.36 1079.18 1174.03 1079.16 1173.96 1078.9C1172.96 1076.88 1172.51 1074.64 1172.66 1072.41C1172.81 1070.16 1173.54 1068 1174.79 1066.13C1174.87 1066.06 1174.97 1066.02 1175.07 1066.01C1175.18 1066.01 1175.28 1066.05 1175.36 1066.12C1175.43 1066.19 1175.48 1066.28 1175.5 1066.39C1175.51 1066.49 1175.48 1066.59 1175.42 1066.68C1174.25 1068.41 1173.56 1070.42 1173.42 1072.5C1173.29 1074.58 1173.71 1076.66 1174.65 1078.53C1174.68 1078.56 1174.7 1078.6 1174.72 1078.65C1174.73 1078.69 1174.73 1078.74 1174.72 1078.78C1174.69 1078.9 1174.63 1079.02 1174.53 1079.1Z" fill="white"/>
<path d="M1177.46 1080.59C1177.29 1080.66 1176.96 1080.59 1176.89 1080.38C1175.89 1078.37 1175.45 1076.13 1175.59 1073.88C1175.74 1071.65 1176.47 1069.49 1177.72 1067.62C1177.79 1067.54 1177.89 1067.48 1178 1067.48C1178.11 1067.47 1178.22 1067.5 1178.3 1067.58C1178.39 1067.65 1178.44 1067.75 1178.45 1067.86C1178.46 1067.97 1178.42 1068.08 1178.35 1068.16C1177.17 1069.89 1176.48 1071.9 1176.35 1073.98C1176.21 1076.06 1176.64 1078.14 1177.58 1080.01C1177.61 1080.04 1177.63 1080.08 1177.64 1080.13C1177.66 1080.17 1177.66 1080.22 1177.65 1080.26C1177.64 1080.43 1177.53 1080.59 1177.46 1080.59Z" fill="white"/>
<path d="M1180.52 1082.37C1180.35 1082.44 1180.02 1082.37 1179.95 1082.16C1178.96 1080.15 1178.52 1077.91 1178.66 1075.66C1178.8 1073.42 1179.54 1071.27 1180.78 1069.4C1180.85 1069.32 1180.95 1069.27 1181.06 1069.26C1181.17 1069.25 1181.28 1069.28 1181.37 1069.36C1181.45 1069.43 1181.5 1069.53 1181.51 1069.64C1181.52 1069.75 1181.48 1069.86 1181.41 1069.94C1180.24 1071.67 1179.55 1073.67 1179.41 1075.76C1179.28 1077.84 1179.7 1079.92 1180.64 1081.79C1180.67 1081.82 1180.7 1081.87 1180.71 1081.91C1180.72 1081.96 1180.72 1082 1180.71 1082.05C1180.7 1082.11 1180.68 1082.18 1180.65 1082.23C1180.62 1082.29 1180.57 1082.33 1180.52 1082.37Z" fill="white"/>
<path d="M1198.17 1094.92L1195.35 1094.73L1197.59 1060.08L1200.41 1060.27C1200.61 1060.28 1200.8 1060.33 1200.98 1060.42C1201.15 1060.5 1201.31 1060.62 1201.44 1060.77C1201.57 1060.92 1201.67 1061.08 1201.73 1061.27C1201.8 1061.46 1201.82 1061.65 1201.81 1061.85L1199.81 1093.44C1199.8 1093.64 1199.75 1093.85 1199.66 1094.03C1199.57 1094.22 1199.45 1094.38 1199.3 1094.52C1199.14 1094.66 1198.97 1094.76 1198.77 1094.83C1198.58 1094.9 1198.37 1094.93 1198.17 1094.92Z" fill="#3F4249"/>
<path d="M1014.88 1074.29L1039.1 1072.98L1037.1 1049.39L1012.28 1052.59L1014.88 1074.29Z" fill="#FC9D9D"/>
<path opacity="0.15" d="M1032.3 1073.31L1014.88 1074.31L1013.71 1064.49L1025.47 1063.66C1026.02 1063.62 1026.55 1063.4 1026.96 1063.04C1027.38 1062.68 1027.67 1062.2 1027.8 1061.66L1032.08 1050.01L1032.38 1073.28L1032.3 1073.31Z" fill="black"/>
<path d="M991.179 1054.39L1012.27 1052.59C1015.34 1052.34 1018.39 1053.31 1020.74 1055.3C1023.1 1057.29 1024.58 1060.13 1024.85 1063.19V1063.69C1025.07 1066.22 1024.41 1068.75 1022.98 1070.85C1021.54 1072.95 1019.43 1074.47 1017 1075.19C1014.02 1076.04 1011.31 1077.65 1009.15 1079.87L1005.54 1083.52C1002.49 1086.61 998.422 1088.52 994.086 1088.91L991.179 1054.39Z" fill="#E63946"/>
<path d="M1014.32 1072.6C1014.31 1072.56 1014.31 1072.51 1014.32 1072.46C1014.33 1072.42 1014.35 1072.38 1014.38 1072.34C1015.28 1070.46 1015.67 1068.37 1015.49 1066.28C1015.31 1064.2 1014.59 1062.21 1013.38 1060.51C1013.34 1060.47 1013.31 1060.43 1013.28 1060.38C1013.26 1060.33 1013.25 1060.27 1013.25 1060.22C1013.25 1060.16 1013.26 1060.1 1013.28 1060.05C1013.31 1060 1013.34 1059.96 1013.38 1059.92C1013.42 1059.88 1013.46 1059.85 1013.51 1059.83C1013.56 1059.81 1013.62 1059.79 1013.67 1059.79C1013.73 1059.79 1013.78 1059.81 1013.83 1059.83C1013.89 1059.85 1013.93 1059.88 1013.97 1059.92C1015.25 1061.76 1016.03 1063.91 1016.22 1066.14C1016.41 1068.38 1016.01 1070.63 1015.06 1072.67C1014.99 1072.93 1014.66 1072.96 1014.49 1072.89C1014.41 1072.81 1014.35 1072.71 1014.32 1072.6Z" fill="white"/>
<path d="M1011.45 1074.17C1011.44 1074.13 1011.44 1074.08 1011.45 1074.03C1011.46 1073.99 1011.48 1073.95 1011.51 1073.91C1012.42 1072.04 1012.8 1069.95 1012.63 1067.86C1012.45 1065.78 1011.72 1063.78 1010.52 1062.08C1010.48 1062.04 1010.45 1062 1010.42 1061.95C1010.4 1061.9 1010.39 1061.84 1010.39 1061.79C1010.39 1061.73 1010.4 1061.67 1010.42 1061.62C1010.45 1061.57 1010.48 1061.53 1010.52 1061.49C1010.56 1061.45 1010.6 1061.42 1010.65 1061.4C1010.71 1061.38 1010.76 1061.36 1010.81 1061.36C1010.86 1061.36 1010.91 1061.38 1010.97 1061.4C1011.02 1061.42 1011.06 1061.45 1011.1 1061.49C1012.38 1063.34 1013.16 1065.49 1013.35 1067.72C1013.54 1069.96 1013.14 1072.21 1012.19 1074.24C1012.12 1074.5 1011.79 1074.53 1011.62 1074.46C1011.45 1074.39 1011.46 1074.34 1011.45 1074.17Z" fill="white"/>
<path d="M1008.44 1076.01C1008.43 1075.92 1008.45 1075.83 1008.5 1075.76C1009.41 1073.88 1009.8 1071.79 1009.62 1069.71C1009.44 1067.62 1008.71 1065.63 1007.5 1063.92C1007.46 1063.88 1007.43 1063.84 1007.4 1063.79C1007.38 1063.74 1007.37 1063.68 1007.37 1063.63C1007.37 1063.57 1007.38 1063.51 1007.4 1063.46C1007.43 1063.41 1007.46 1063.37 1007.5 1063.33C1007.54 1063.29 1007.58 1063.26 1007.63 1063.23C1007.68 1063.21 1007.74 1063.2 1007.79 1063.2C1007.85 1063.2 1007.9 1063.21 1007.95 1063.23C1008 1063.26 1008.04 1063.29 1008.08 1063.33C1009.37 1065.17 1010.15 1067.32 1010.34 1069.56C1010.53 1071.8 1010.13 1074.04 1009.17 1076.07C1009.11 1076.33 1008.78 1076.36 1008.61 1076.29C1008.52 1076.22 1008.46 1076.12 1008.44 1076.01Z" fill="white"/>
<path d="M989.612 1087.79L986.925 1056.26C986.908 1056.06 986.929 1055.87 986.988 1055.68C987.046 1055.49 987.142 1055.32 987.267 1055.17C987.394 1055.02 987.549 1054.89 987.723 1054.8C987.898 1054.71 988.088 1054.66 988.283 1054.64L991.1 1054.4L994.046 1089L991.239 1089.24C990.834 1089.26 990.438 1089.12 990.133 1088.84C989.829 1088.57 989.642 1088.2 989.612 1087.79Z" fill="#3F4249"/>
<path d="M1112.06 797.225L1101.07 797.804L1099.61 797.904L1090.02 798.484H1089.92L1077.6 799.163C1077.12 799.191 1076.65 799.314 1076.22 799.525C1075.79 799.736 1075.41 800.03 1075.09 800.391C1074.77 800.752 1074.54 801.172 1074.39 801.627C1074.24 802.082 1074.18 802.563 1074.22 803.04L1074.41 805.858C1074.58 808.451 1075.75 810.874 1077.7 812.599C1079.64 814.325 1082.19 815.213 1084.77 815.072C1087.37 814.931 1089.81 813.772 1091.54 811.847C1093.29 809.921 1094.2 807.385 1094.09 804.789L1093.89 801.971C1093.85 801.183 1093.54 800.432 1093.02 799.843L1096.81 799.643C1096.37 800.302 1096.16 801.09 1096.22 801.881L1096.42 804.689C1096.56 807.299 1097.74 809.746 1099.67 811.491C1101.62 813.237 1104.18 814.138 1106.78 813.996C1109.4 813.854 1111.85 812.681 1113.59 810.736C1115.33 808.789 1116.23 806.229 1116.09 803.62L1115.9 800.812C1115.89 800.32 1115.79 799.835 1115.59 799.385C1115.39 798.936 1115.1 798.531 1114.74 798.196C1114.39 797.86 1113.97 797.602 1113.51 797.435C1113.04 797.268 1112.55 797.196 1112.06 797.225ZM1092.47 801.971L1092.66 804.789C1092.73 805.884 1092.57 806.982 1092.22 808.019C1091.86 809.057 1091.3 810.013 1090.58 810.835C1089.85 811.655 1088.96 812.325 1087.98 812.805C1086.99 813.285 1085.92 813.565 1084.82 813.631C1083.72 813.697 1082.63 813.546 1081.6 813.188C1080.56 812.829 1079.6 812.269 1078.78 811.541C1077.96 810.813 1077.29 809.929 1076.81 808.942C1076.33 807.955 1076.04 806.883 1075.98 805.788L1075.79 802.97C1075.76 802.401 1075.96 801.842 1076.33 801.41C1076.7 800.977 1077.22 800.702 1077.79 800.642L1090.11 799.963H1090.2C1090.49 799.922 1090.77 799.944 1091.04 800.027C1091.32 800.11 1091.58 800.251 1091.79 800.442C1092.01 800.633 1092.18 800.869 1092.3 801.133C1092.42 801.397 1092.47 801.682 1092.47 801.971ZM1114.67 803.53C1114.8 805.742 1114.06 807.917 1112.59 809.576C1111.12 811.233 1109.04 812.239 1106.83 812.372C1104.62 812.504 1102.45 811.753 1100.79 810.282C1099.13 808.811 1098.13 806.741 1098 804.529L1097.81 801.711C1097.78 801.142 1097.98 800.583 1098.35 800.151C1098.71 799.718 1099.23 799.443 1099.8 799.383L1101.25 799.293L1112.24 798.704C1112.81 798.68 1113.37 798.873 1113.8 799.244C1114.23 799.615 1114.51 800.136 1114.57 800.702L1114.67 803.53Z" fill="#21252B"/>
<path d="M1090.44 821.315L1102.75 820.446C1102.82 820.444 1102.89 820.459 1102.96 820.489C1103.03 820.519 1103.08 820.564 1103.13 820.62C1103.18 820.676 1103.21 820.74 1103.23 820.81C1103.24 820.881 1103.25 820.954 1103.23 821.025C1102.85 822.406 1102.05 823.635 1100.95 824.548C1099.84 825.462 1098.49 826.013 1097.06 826.13C1095.64 826.247 1094.21 825.922 1092.97 825.201C1091.73 824.478 1090.74 823.394 1090.15 822.094V821.994C1090.11 821.934 1090.08 821.864 1090.07 821.79C1090.06 821.716 1090.07 821.641 1090.1 821.573C1090.13 821.504 1090.18 821.444 1090.24 821.399C1090.3 821.354 1090.37 821.325 1090.44 821.315Z" fill="white"/>
<g opacity="0.3">
<path opacity="0.3" d="M1068.52 807.406C1068.33 807.398 1068.15 807.327 1068.01 807.204C1067.87 807.08 1067.77 806.912 1067.74 806.728L1067.55 805.178C1067.51 803.921 1067.03 802.717 1066.2 801.781C1066.04 801.64 1065.86 801.532 1065.66 801.465C1065.45 801.398 1065.24 801.373 1065.03 801.391C1064.84 801.43 1064.64 801.39 1064.47 801.281C1064.31 801.171 1064.19 801.001 1064.15 800.807C1064.12 800.614 1064.16 800.413 1064.27 800.249C1064.38 800.086 1064.55 799.972 1064.74 799.933C1065.56 799.844 1066.39 800.053 1067.06 800.522C1068.13 801.292 1068.81 802.85 1069 804.889L1069.2 806.437C1069.2 806.65 1069.14 806.86 1069.02 807.034C1068.9 807.209 1068.72 807.339 1068.52 807.406Z" fill="black"/>
</g>
<g opacity="0.3">
<path opacity="0.3" d="M1121.85 803.43C1122.04 803.412 1122.22 803.322 1122.35 803.176C1122.47 803.031 1122.54 802.843 1122.53 802.651V801.102C1122.42 800.49 1122.45 799.863 1122.6 799.26C1122.74 798.659 1123.02 798.094 1123.4 797.605C1123.54 797.428 1123.71 797.284 1123.91 797.183C1124.12 797.083 1124.34 797.029 1124.56 797.025C1124.75 797.017 1124.93 796.945 1125.07 796.822C1125.21 796.698 1125.31 796.531 1125.34 796.346C1125.33 796.159 1125.26 795.98 1125.14 795.84C1125.01 795.699 1124.85 795.606 1124.66 795.576C1124.25 795.589 1123.86 795.685 1123.49 795.857C1123.12 796.029 1122.79 796.273 1122.53 796.576C1121.53 797.575 1121.17 799.094 1121.27 801.232V802.78C1121.08 803.14 1121.37 803.43 1121.85 803.43Z" fill="black"/>
</g>
<path opacity="0.15" d="M1153.14 1007.27L1152.07 1008.01L1220.38 965.835C1223.83 963.486 1226.23 959.879 1227.05 955.786C1227.88 951.692 1227.07 947.439 1224.81 943.933L1221.38 938.288C1221.38 938.288 1230.25 953.435 1209.04 966.834L1149.23 1004.91L1153.14 1007.27Z" fill="black"/>
<path opacity="0.15" d="M985.146 965.195C970.764 958.201 974.559 941.884 974.559 941.884L973.311 943.943C971.051 947.452 970.252 951.707 971.087 955.798C971.921 959.889 974.322 963.491 977.775 965.834L1047.23 1007.27L1045.66 1006.46L1050.43 1003.16L985.146 965.195Z" fill="black"/>
<path d="M980.113 1001.51L1036.74 1007.92H1161.96L1215.73 1001.51L1206.36 1055.07L1002.92 1058.07L982.071 1003.13" fill="#61656D"/>
<path opacity="0.3" d="M980.113 1001.51L1036.74 1007.92H1161.96L1215.73 1001.51L1206.36 1055.07L1002.92 1058.07L982.071 1003.13" fill="black"/>
<path d="M1090.95 1034.72L1186.06 1007.41C1195.79 1004.61 1205.76 1002.68 1215.85 1001.64C1221.31 1001.08 1226.8 1002.37 1231.44 1005.31C1237.91 1009.41 1242.5 1015.91 1244.2 1023.39L1244.54 1024.87C1245.97 1031.18 1244.84 1037.81 1241.4 1043.3C1239.49 1046.35 1236.93 1048.93 1233.91 1050.87C1230.89 1052.82 1227.47 1054.07 1223.92 1054.55L1033.28 1080.03L1028.58 1049.53L1090.95 1034.72Z" fill="#61656D"/>
<path opacity="0.2" d="M1241.45 1043.3C1244.89 1037.81 1246.02 1031.18 1244.59 1024.87L1244.25 1023.39C1243.27 1019.07 1241.32 1015.03 1238.53 1011.59C1238.53 1011.59 1244.52 1043.81 1210.79 1047.62L1182.6 1052.25C1175.65 1053.23 1168.57 1052.57 1161.92 1050.32L1100.99 1031.68L1087.01 1035.68L1125.24 1068.27L1223.92 1054.55C1227.48 1054.08 1230.91 1052.83 1233.94 1050.88C1236.96 1048.94 1239.53 1046.35 1241.45 1043.3Z" fill="black"/>
<path d="M1099.32 1036.67L1004.99 1006.8C995.33 1003.74 985.418 1001.54 975.369 1000.24C969.924 999.526 964.399 1000.67 959.679 1003.47C953.092 1007.4 948.329 1013.77 946.435 1021.21L946.056 1022.68C944.457 1028.95 945.409 1035.62 948.703 1041.19C950.531 1044.29 953.019 1046.94 955.988 1048.97C958.957 1050.98 962.335 1052.33 965.881 1052.9L1158.12 1083.34L1161.28 1053.15L1099.32 1036.67Z" fill="#61656D"/>
<path opacity="0.2" d="M1031.18 1065.53L1073.77 1074.61L1089.88 1072.84L1031.03 1063.75L1031.18 1065.53Z" fill="black"/>
<path opacity="0.2" d="M1159.08 1078.68L993.396 1047.52C989.401 1046.75 985.406 1046.14 981.411 1045.52C948.202 1040.73 947.353 1018.28 947.353 1018.28C947 1019.23 946.696 1020.19 946.445 1021.17L946.065 1022.64C944.467 1028.91 945.418 1035.58 948.712 1041.15C950.541 1044.25 953.029 1046.9 955.998 1048.93C958.967 1050.94 962.344 1052.29 965.89 1052.86L1158.13 1083.3L1159.08 1078.68Z" fill="black"/>
<path d="M1098.51 865.048C1095.46 865.056 1092.43 864.619 1089.52 863.749C1085.31 862.472 1081.42 860.367 1078.04 857.561C1074.66 854.753 1071.88 851.3 1069.86 847.403L1074.97 846.084C1075.13 846.464 1079.43 854.997 1090.95 858.444C1097.08 860.206 1103.62 859.855 1109.52 857.445C1114.09 855.676 1120.46 852.929 1121.94 847.593L1126.93 848.412C1125.28 854.407 1119.38 859.463 1111.25 862.63C1107.18 864.218 1102.87 865.038 1098.51 865.048Z" fill="white"/>
<path opacity="0.2" d="M1161.96 915.107L1155.38 907.313L1154.31 953.435H1162.27L1161.96 915.107Z" fill="black"/>
<path d="M1037.27 1023.15L1031.17 951.906C1031.14 951.553 1031.18 951.198 1031.3 950.863C1031.41 950.528 1031.6 950.22 1031.84 949.961C1032.08 949.7 1032.37 949.492 1032.69 949.351C1033.02 949.209 1033.37 949.136 1033.72 949.138H1164.95C1165.31 949.138 1165.67 949.215 1166 949.363C1166.33 949.511 1166.62 949.728 1166.86 949.997C1167.1 950.267 1167.28 950.585 1167.39 950.929C1167.5 951.273 1167.53 951.637 1167.49 951.996L1158.76 1024.07L1037.27 1023.15Z" fill="#21252B"/>
<path d="M1108.09 988.586C1108.09 990.311 1107.58 991.998 1106.62 993.432C1105.67 994.867 1104.3 995.985 1102.71 996.645C1101.11 997.305 1099.36 997.477 1097.67 997.139C1095.98 996.803 1094.42 995.97 1093.2 994.749C1091.98 993.528 1091.15 991.974 1090.82 990.281C1090.49 988.589 1090.65 986.834 1091.32 985.24C1091.98 983.647 1093.1 982.285 1094.54 981.328C1095.97 980.37 1097.66 979.861 1099.38 979.863C1100.53 979.863 1101.66 980.089 1102.72 980.526C1103.78 980.965 1104.74 981.607 1105.55 982.418C1106.36 983.228 1106.99 984.19 1107.43 985.248C1107.87 986.306 1108.09 987.44 1108.09 988.586Z" fill="#FAFAFA"/>
<path d="M1105.44 933.432L1091.34 923.22L1077.12 933.262L1063.94 921.981L1048.99 930.954L1036.26 918.164L1037.78 916.715L1049.33 928.316L1064.16 919.413L1077.25 930.614L1091.36 920.652L1105.33 930.774L1118.45 919.623L1133.41 928.226L1144.97 915.576L1161.89 922.101L1161.11 924.029L1145.56 918.034L1133.82 930.874L1118.69 922.161L1105.44 933.432Z" fill="white"/>
</g>
<defs>
<clipPath id="clip0_506_245">
<rect width="1598" height="1199" fill="white"/>
</clipPath>
</defs>
</svg>
